SplineFontDB: 3.2
FontName: Omiega-Ybluifont
FullName: Omiega-Ybluifont
FamilyName: Omiega-Ybluifont
Weight: Regular
Copyright: Copyright (c) 2025, LENOVO
UComments: "2025-11-8: Created with FontForge (http://fontforge.org)"
Version: 001.000
ItalicAngle: 0
UnderlinePosition: -100
UnderlineWidth: 50
Ascent: 800
Descent: 200
InvalidEm: 0
LayerCount: 2
Layer: 0 0 "Back" 1
Layer: 1 0 "Fore" 0
XUID: [1021 195 1705217536 6892]
StyleMap: 0x0000
FSType: 0
OS2Version: 0
OS2_WeightWidthSlopeOnly: 0
OS2_UseTypoMetrics: 1
CreationTime: 1762587740
ModificationTime: 1763209954
OS2TypoAscent: 0
OS2TypoAOffset: 1
OS2TypoDescent: 0
OS2TypoDOffset: 1
OS2TypoLinegap: 90
OS2WinAscent: 0
OS2WinAOffset: 1
OS2WinDescent: 0
OS2WinDOffset: 1
HheadAscent: 0
HheadAOffset: 1
HheadDescent: 0
HheadDOffset: 1
OS2Vendor: 'PfEd'
Lookup: 4 0 0 "YbluiFont-Ligature Substitution lookup 0" { "YbluiFont-Ligature Substitution lookup 0 subtable"  } []
Lookup: 258 0 0 "YbluiFont-'kern' Horizontal Kerning in Latin lookup 0" { "YbluiFont-'kern' Horizontal Kerning in Latin lookup 0 subtable"  } ['kern' ('DFLT' <'dflt' > 'latn' <'dflt' > ) ]
MarkAttachClasses: 1
DEI: 91125
Encoding: UnicodeBmp
UnicodeInterp: none
NameList: AGL For New Fonts
DisplaySize: -48
AntiAlias: 1
FitToEm: 0
WinInfo: 58748 38 13
BeginPrivate: 0
EndPrivate
Grid
-1000 600 m 0
 2000 600.5 l 1024
  Named: "b"
-1000 400 m 0
 2000 400 l 1024
EndSplineSet
BeginChars: 65537 1211

StartChar: a
Encoding: 97 97 0
Width: 409
VWidth: 1024
GlyphClass: 2
Flags: W
LayerCount: 2
Fore
SplineSet
100 207 m 128
 100 164.333333333 109.166666667 130 127.5 104 c 128
 145.833333333 78 171.666666667 65 205 65 c 128
 238.333333333 65 263.5 77.8333333333 280.5 103.5 c 128
 297.5 129.166666667 306 163.666666667 306 207 c 128
 306 250.333333333 297.5 284.666666667 280.5 310 c 128
 263.5 335.333333333 238.333333333 348 205 348 c 128
 171.666666667 348 145.833333333 335.166666667 127.5 309.5 c 128
 109.166666667 283.833333333 100 249.666666667 100 207 c 128
28 206 m 128
 28 265.333333333 44.8333333333 315.833333333 78.5 357.5 c 128
 112.166666667 399.166666667 154.333333333 420 205 420 c 0
 243.779846837 420 277.446513504 407.567954095 306 382.703862286 c 1
 306 414 l 1
 378 414 l 1
 378 231.018429397 l 2
 378.666666667 222.86750512 379 214.528028654 379 206 c 128
 379 197.471971346 378.666666667 189.13249488 378 180.981570603 c 2
 378 0 l 1
 306 0 l 1
 306 29.2961377135 l 1
 277.446513504 4.4320459045 243.779846837 -8 205 -8 c 0
 154.333333333 -8 112.166666667 12.8333333333 78.5 54.5 c 128
 44.8333333333 96.1666666667 28 146.666666667 28 206 c 128
EndSplineSet
Validated: 1
EndChar

StartChar: b
Encoding: 98 98 1
Width: 409
VWidth: 1024
GlyphClass: 2
Flags: W
LayerCount: 2
Fore
SplineSet
102 819 m 1
 31 819 l 1
 31 240.88 l 2
 29.6666666667 229.626666667 29 218 29 206 c 128
 29 194 29.6666666667 182.373333333 31 171.12 c 2
 31 0 l 1
 102 0 l 1
 102 29.9455233615 l 1
 131.029120391 4.64850778717 165.362453724 -8 205 -8 c 0
 255.666666667 -8 297.833333333 12.8333333333 331.5 54.5 c 128
 365.166666667 96.1666666667 382 146.666666667 382 206 c 128
 382 265.333333333 365.166666667 315.833333333 331.5 357.5 c 128
 297.833333333 399.166666667 255.666666667 420 205 420 c 0
 165.362453724 420 131.029120391 407.351492213 102 382.054476639 c 1
 102 819 l 1
309 207 m 128
 309 164.333333333 300 130 282 104 c 128
 264 78 238.333333333 65 205 65 c 128
 171.666666667 65 145.833333333 78 127.5 104 c 0
 114.110798991 122.988321431 105.610798991 146.421371051 102 174.29914886 c 1
 102 239.664487504 l 1
 105.610798991 267.476614423 114.110798991 290.755118588 127.5 309.5 c 0
 145.833333333 335.166666667 171.666666667 348 205 348 c 128
 238.333333333 348 264 335.166666667 282 309.5 c 128
 300 283.833333333 309 249.666666667 309 207 c 128
EndSplineSet
Validated: 9
EndChar

StartChar: i
Encoding: 105 105 2
Width: 133
VWidth: 1024
GlyphClass: 2
Flags: W
LayerCount: 2
Fore
SplineSet
31 612 m 1
 102 612 l 1
 102 541 l 1
 31 541 l 1
 31 612 l 1
31 414 m 1
 102 414 l 1
 102 0 l 1
 31 0 l 1
 31 414 l 1
EndSplineSet
Validated: 1
EndChar

StartChar: o
Encoding: 111 111 3
Width: 409
VWidth: 1024
GlyphClass: 2
Flags: W
LayerCount: 2
Fore
SplineSet
28 206 m 128
 28 265.333333333 44.8333333333 315.833333333 78.5 357.5 c 128
 112.166666667 399.166666667 154.333333333 420 205 420 c 128
 255.666666667 420 297.833333333 399.166666667 331.5 357.5 c 128
 365.166666667 315.833333333 382 265.333333333 382 206 c 128
 382 146.666666667 365.166666667 96.1666666667 331.5 54.5 c 128
 297.833333333 12.8333333333 255.666666667 -8 205 -8 c 128
 154.333333333 -8 112.166666667 12.8333333333 78.5 54.5 c 128
 44.8333333333 96.1666666667 28 146.666666667 28 206 c 128
100 207 m 128
 100 164.333333333 109.166666667 130 127.5 104 c 128
 145.833333333 78 171.666666667 65 205 65 c 128
 238.333333333 65 264 78 282 104 c 128
 300 130 309 164.333333333 309 207 c 128
 309 249.666666667 300 283.833333333 282 309.5 c 128
 264 335.166666667 238.333333333 348 205 348 c 128
 171.666666667 348 145.833333333 335.166666667 127.5 309.5 c 128
 109.166666667 283.833333333 100 249.666666667 100 207 c 128
EndSplineSet
Validated: 1
EndChar

StartChar: n
Encoding: 110 110 4
Width: 409
VWidth: 1024
GlyphClass: 2
Flags: W
LayerCount: 2
Fore
SplineSet
31 414 m 1
 102 414 l 1
 102 388.564095987 l 1
 137.450681658 412.188031996 171.784014991 424 205 424 c 0
 241 424 275.833333333 416.166666667 309.5 400.5 c 128
 343.166666667 384.833333333 364.666666667 360.333333333 374 327 c 0
 377.333333333 314.333333333 379 205.333333333 379 0 c 1
 307 0 l 1
 307 301 l 2
 306.333333333 335 273 352 207 352 c 0
 184.333333333 352 165.666666667 347.666666667 151 339 c 128
 136.333333333 330.333333333 120 316.333333333 102 297 c 1
 102 0 l 1
 31 0 l 1
 31 414 l 1
EndSplineSet
Validated: 1
EndChar

StartChar: w
Encoding: 119 119 5
Width: 614
VWidth: 1024
GlyphClass: 2
Flags: W
LayerCount: 2
Fore
SplineSet
29 398 m 1
 99 423 l 1
 178 123 l 1
 275 420 l 1
 347 420 l 1
 450 123 l 1
 521 423 l 1
 583 398 l 1
 485 0 l 1
 419 0 l 1
 311.765957447 312.765957447 l 1
 209 0 l 1
 142 0 l 1
 29 398 l 1
EndSplineSet
Validated: 1
EndChar

StartChar: f
Encoding: 102 102 6
Width: 409
VWidth: 1024
GlyphClass: 2
Flags: W
LayerCount: 2
Fore
SplineSet
100 0 m 1
 172 0 l 1
 172 392 l 1
 377 392 l 1
 377 464 l 1
 172 464 l 1
 172 621 l 2
 172.666666667 649 180 676.833333333 194 704.5 c 128
 208 732.166666667 222.666666667 746 238 746 c 0
 259.333333333 746 279.166666667 736.5 297.5 717.5 c 128
 315.833333333 698.5 329.666666667 675 339 647 c 1
 410 687 l 1
 347.333333333 773.666666667 290 817.333333333 238 818 c 0
 204 818.666666667 172.166666667 800.333333333 142.5 763 c 128
 112.833333333 725.666666667 98 679 98 623 c 2
 98.5104333868 464 l 1
 30 464 l 1
 30 392 l 1
 98.7415730337 392 l 1
 100 0 l 1
EndSplineSet
Validated: 41
EndChar

StartChar: c
Encoding: 99 99 7
Width: 409
VWidth: 1024
GlyphClass: 2
Flags: W
LayerCount: 2
Fore
SplineSet
325 303 m 1
 305.666666667 314.333333333 291.166666667 322.5 281.5 327.5 c 128
 271.833333333 332.5 260 337.166666667 246 341.5 c 128
 232 345.833333333 218.333333333 348 205 348 c 0
 171.666666667 348 145.833333333 335.166666667 127.5 309.5 c 128
 109.166666667 283.833333333 100 249.666666667 100 207 c 128
 100 164.333333333 109.166666667 130 127.5 104 c 128
 145.833333333 78 171.666666667 65 205 65 c 0
 226.333333333 65 249 69.6666666667 273 79 c 128
 297 88.3333333333 316 98.3333333333 330 109 c 1
 378 55 l 1
 327.333333333 13 269.666666667 -8 205 -8 c 0
 154.333333333 -8 112.166666667 12.8333333333 78.5 54.5 c 128
 44.8333333333 96.1666666667 28 146.666666667 28 206 c 128
 28 265.333333333 44.8333333333 315.833333333 78.5 357.5 c 128
 112.166666667 399.166666667 154.333333333 420 205 420 c 0
 230.333333333 420 260 413 294 399 c 128
 328 385 356.666666667 368 380 348 c 1
 325 303 l 1
EndSplineSet
Validated: 1
EndChar

StartChar: z
Encoding: 122 122 8
Width: 409
VWidth: 1024
GlyphClass: 2
Flags: W
LayerCount: 2
Fore
SplineSet
31 410 m 1
 31 338 l 1
 293 338 l 1
 27 90 l 1
 31 0 l 1
 379 0 l 1
 379 72 l 1
 90 65 l 1
 379 338 l 1
 379 411 l 1
 31 410 l 1
EndSplineSet
Validated: 9
EndChar

StartChar: h
Encoding: 104 104 9
Width: 382
VWidth: 1024
GlyphClass: 2
Flags: W
LayerCount: 2
Fore
SplineSet
31 820 m 1
 103 820 l 1
 103 388.62754045 l 1
 138.274683227 412.20918015 172.274683227 424 205 424 c 0
 227 424 250.333333333 419.666666667 275 411 c 128
 299.666666667 402.333333333 322.166666667 387.833333333 342.5 367.5 c 128
 362.833333333 347.166666667 373.333333333 323.333333333 374 296 c 0
 374 294 374.5 277.166666667 375.5 245.5 c 128
 376.5 213.833333333 377.5 174.833333333 378.5 128.5 c 128
 379.5 82.1666666667 380 39.3333333333 380 0 c 1
 308 0 l 1
 309 284 l 2
 309 307.333333333 298.333333333 324.5 277 335.5 c 128
 255.666666667 346.5 232.333333333 352 207 352 c 0
 184.333333333 352 165.833333333 347.833333333 151.5 339.5 c 128
 137.166666667 331.166666667 121 317 103 297 c 1
 103 0 l 1
 31 0 l 1
 31 820 l 1
EndSplineSet
Validated: 1
EndChar

StartChar: d
Encoding: 100 100 10
Width: 409
VWidth: 1024
GlyphClass: 2
Flags: W
LayerCount: 2
Fore
SplineSet
307 819 m 1
 379 819 l 1
 379 240.88 l 2
 380.333333333 229.626666667 381 218 381 206 c 128
 381 194 380.333333333 182.373333333 379 171.12 c 2
 379 0 l 1
 307 0 l 1
 307 29.080890627 l 1
 278.183350303 4.36029687567 244.183350303 -8 205 -8 c 0
 154.333333333 -8 112.166666667 12.8333333333 78.5 54.5 c 128
 44.8333333333 96.1666666667 28 146.666666667 28 206 c 128
 28 265.333333333 44.8333333333 315.833333333 78.5 357.5 c 128
 112.166666667 399.166666667 154.333333333 420 205 420 c 0
 244.183350303 420 278.183350303 407.639703124 307 382.919109373 c 1
 307 819 l 1
100 207 m 128
 100 164.333333333 109.166666667 130 127.5 104 c 128
 145.833333333 78 171.666666667 65 205 65 c 128
 238.333333333 65 264 78 282 104 c 0
 295.101020515 122.923696299 303.434353848 146.261917765 307 174.014664399 c 1
 307 239.948298564 l 1
 303.434353848 267.635014714 295.101020515 290.818915193 282 309.5 c 0
 264 335.166666667 238.333333333 348 205 348 c 128
 171.666666667 348 145.833333333 335.166666667 127.5 309.5 c 128
 109.166666667 283.833333333 100 249.666666667 100 207 c 128
EndSplineSet
Validated: 1
EndChar

StartChar: e
Encoding: 101 101 11
Width: 399
VWidth: 1024
GlyphClass: 2
Flags: W
LayerCount: 2
Fore
SplineSet
300 206 m 1024
94.5535947095 170 m 1
 98.3868225478 144.004098217 106.535624311 122.004098217 119 104 c 0
 137 78 162.666666667 65 196 65 c 0
 226.666666667 65 250.666666667 75.3333333333 268 96 c 1
 315 42 l 1
 283.666666667 8.66666666667 244 -8 196 -8 c 0
 145.333333333 -8 103.333333333 12.6666666667 70 54 c 128
 36.6666666667 95.3333333333 20 146 20 206 c 128
 20 266 36.6666666667 316.666666667 70 358 c 128
 103.333333333 399.333333333 145.333333333 420 196 420 c 128
 246.666666667 420 288.833333333 399.166666667 322.5 357.5 c 0
 349.139298772 324.530570827 365.239207855 286.030570827 370.799727249 242 c 1
 371 242 l 1
 371 240.373819021 l 2
 372.333333333 229.265714331 373 217.807774657 373 206 c 2
 373 205 l 1
 374 170 l 1
 371 170 l 1
 94.5535947095 170 l 1
298.683789722 242 m 1
 294.907287397 268.782232849 286.512690823 291.282232849 273.5 309.5 c 0
 255.166666667 335.166666667 229.333333333 348 196 348 c 128
 162.666666667 348 137 335.166666667 119 309.5 c 0
 106.223903556 291.282232849 97.9819360107 268.782232849 94.2740973636 242 c 1
 298.683789722 242 l 1
EndSplineSet
Validated: 1
EndChar

StartChar: g
Encoding: 103 103 12
Width: 409
VWidth: 1024
GlyphClass: 2
Flags: W
LayerCount: 2
Fore
SplineSet
100 207 m 128
 100 164.333333333 109.166666667 130 127.5 104 c 128
 145.833333333 78 171.666666667 65 205 65 c 128
 238.333333333 65 263.5 77.8333333333 280.5 103.5 c 128
 297.5 129.166666667 306 163.666666667 306 207 c 128
 306 250.333333333 297.5 284.666666667 280.5 310 c 128
 263.5 335.333333333 238.333333333 348 205 348 c 128
 171.666666667 348 145.833333333 335.166666667 127.5 309.5 c 128
 109.166666667 283.833333333 100 249.666666667 100 207 c 128
28 206 m 128
 28 265.333333333 44.8333333333 315.833333333 78.5 357.5 c 128
 112.166666667 399.166666667 154.333333333 420 205 420 c 0
 243.779846837 420 277.446513504 407.567954095 306 382.703862286 c 1
 306 410 l 1
 378 410 l 1
 378.93352983 212.558441029 l 2
 378.977843277 210.384827116 379 208.198680106 379 206 c 0
 379 204.827986787 378.993704265 203.659534799 378.981112794 202.494644035 c 2
 380 -13 l 2
 380 -68.3333333333 361.666666667 -115 325 -153 c 128
 288.333333333 -191 252.333333333 -209.666666667 217 -209 c 0
 182.333333333 -208.333333333 147.5 -200.666666667 112.5 -186 c 128
 77.5 -171.333333333 50.6666666667 -151 32 -125 c 1
 91 -74 l 1
 105 -116 147 -137 217 -137 c 0
 233 -137 251.666666667 -122.666666667 273 -94 c 128
 294.333333333 -65.3333333333 305.333333333 -37.6666666667 306 -11 c 2
 306 29.2961377135 l 1
 277.446513504 4.4320459045 243.779846837 -8 205 -8 c 0
 154.333333333 -8 112.166666667 12.8333333333 78.5 54.5 c 128
 44.8333333333 96.1666666667 28 146.666666667 28 206 c 128
EndSplineSet
Validated: 33
EndChar

StartChar: s
Encoding: 115 115 13
Width: 409
VWidth: 1024
GlyphClass: 2
Flags: W
LayerCount: 2
Fore
SplineSet
310 124 m 0
 310 104 300.833333333 87.6666666667 282.5 75 c 128
 264.166666667 62.3333333333 241 56 213 56 c 0
 196.333333333 56 179.666666667 57.8333333333 163 61.5 c 128
 146.333333333 65.1666666667 124.166666667 71.5 96.5 80.5 c 128
 68.8333333333 89.5 54 94.3333333333 52 95 c 1
 31 29 l 1
 38.3333333333 27 50.1666666667 23.6666666667 66.5 19 c 128
 82.8333333333 14.3333333333 95.3333333333 10.8333333333 104 8.5 c 128
 112.666666667 6.16666666667 123.833333333 3.5 137.5 0.5 c 128
 151.166666667 -2.5 164.333333333 -4.66666666667 177 -6 c 128
 189.666666667 -7.33333333333 202.666666667 -8 216 -8 c 0
 259.333333333 -8 297.333333333 2.66666666667 330 24 c 128
 362.666666667 45.3333333333 380 78.6666666667 382 124 c 0
 382.666666667 135.333333333 381.333333333 145.833333333 378 155.5 c 128
 374.666666667 165.166666667 370.833333333 173.333333333 366.5 180 c 128
 362.166666667 186.666666667 355.166666667 193.166666667 345.5 199.5 c 128
 335.833333333 205.833333333 327.833333333 210.833333333 321.5 214.5 c 128
 315.166666667 218.166666667 305.333333333 222.166666667 292 226.5 c 128
 278.666666667 230.833333333 269 233.666666667 263 235 c 128
 257 236.333333333 246.666666667 238.833333333 232 242.5 c 128
 217.333333333 246.166666667 208.333333333 248.333333333 205 249 c 0
 196.333333333 251 185 253.333333333 171 256 c 128
 157 258.666666667 146.833333333 260.833333333 140.5 262.5 c 128
 134.166666667 264.166666667 127.166666667 267 119.5 271 c 128
 111.833333333 275 106.333333333 280.166666667 103 286.5 c 128
 99.6666666667 292.833333333 98 301 98 311 c 0
 98 321.666666667 101 330.166666667 107 336.5 c 128
 113 342.833333333 122.333333333 347.166666667 135 349.5 c 128
 147.666666667 351.833333333 158.333333333 353.333333333 167 354 c 128
 175.666666667 354.666666667 187.666666667 355 203 355 c 0
 241 355 287.333333333 341 342 313 c 1
 374 376 l 1
 367.333333333 378.666666667 355.666666667 384 339 392 c 128
 322.333333333 400 309 406 299 410 c 128
 289 414 275 417.833333333 257 421.5 c 128
 239 425.166666667 220.666666667 427 202 427 c 0
 157.333333333 427 117 417.166666667 81 397.5 c 128
 45 377.833333333 27 349.666666667 27 313 c 0
 27 275 41 246.5 69 227.5 c 128
 97 208.5 135.666666667 193.333333333 185 182 c 0
 190.333333333 180.666666667 198 179 208 177 c 0
 227.333333333 173 241.5 169.833333333 250.5 167.5 c 128
 259.5 165.166666667 269.5 161.833333333 280.5 157.5 c 128
 291.5 153.166666667 299.166666667 148.333333333 303.5 143 c 128
 307.833333333 137.666666667 310 131.333333333 310 124 c 0
EndSplineSet
Validated: 9
EndChar

StartChar: u
Encoding: 117 117 14
Width: 409
VWidth: 1024
GlyphClass: 2
Flags: W
LayerCount: 2
Fore
SplineSet
379 0 m 1
 307 0 l 1
 307 24.6121491324 l 1
 272.051721941 1.53738304413 238.051721941 -10 205 -10 c 0
 169 -10 134.166666667 -2.16666666667 100.5 13.5 c 128
 66.8333333333 29.1666666667 45.3333333333 53.6666666667 36 87 c 0
 32.6666666667 99.6666666667 31 208.666666667 31 414 c 1
 102 414 l 1
 102 113 l 2
 102.666666667 78.3333333333 136.333333333 61 203 61 c 0
 225.666666667 61 244 65.3333333333 258 74 c 128
 272 82.6666666667 288.333333333 97 307 117 c 1
 307 414 l 1
 379 414 l 1
 379 0 l 1
EndSplineSet
Validated: 1
EndChar

StartChar: j
Encoding: 106 106 15
Width: 133
VWidth: 1024
GlyphClass: 2
Flags: W
LayerCount: 2
Fore
SplineSet
31 617 m 1
 102 617 l 1
 102 546 l 1
 31 546 l 1
 31 617 l 1
102 410 m 5
 31 410 l 5
 31 -11 l 6
 30.3333333333 -37.6666666667 19.3333333333 -65.3333333333 -2 -94 c 132
 -23.3333333333 -122.666666667 -42 -137 -58 -137 c 4
 -128 -137 -170 -116 -184 -74 c 5
 -244 -125 l 5
 -225.333333333 -151 -198.333333333 -171.333333333 -163 -186 c 132
 -127.666666667 -200.666666667 -92.6666666667 -208.333333333 -58 -209 c 4
 -22.6666666667 -209.666666667 13.1666666667 -191 49.5 -153 c 132
 85.8333333333 -115 104 -68.3333333333 104 -13 c 6
 102 410 l 5
EndSplineSet
Validated: 41
EndChar

StartChar: r
Encoding: 114 114 16
Width: 409
VWidth: 1024
GlyphClass: 2
Flags: W
LayerCount: 2
Fore
SplineSet
31 414 m 1
 102 414 l 1
 102 388.564095987 l 1
 137.450681658 412.188031996 171.784014991 424 205 424 c 0
 233.666666667 424 264 415.666666667 296 399 c 128
 328 382.333333333 355 361.333333333 377 336 c 1
 323 298 l 1
 287 334 248.333333333 352 207 352 c 0
 184.333333333 352 165.666666667 347.666666667 151 339 c 128
 136.333333333 330.333333333 120 316.333333333 102 297 c 1
 102 0 l 1
 31 0 l 1
 31 414 l 1
EndSplineSet
Validated: 1
EndChar

StartChar: exclam
Encoding: 33 33 18
Width: 133
VWidth: 1024
GlyphClass: 2
Flags: W
LayerCount: 2
Fore
SplineSet
31 614 m 1
 102 614 l 1
 102 156 l 1
 31 156 l 1
 31 614 l 1
31 102 m 1
 102 102 l 1
 102 31 l 1
 31 31 l 1
 31 102 l 1
EndSplineSet
Validated: 1
EndChar

StartChar: quotedbl
Encoding: 34 34 19
Width: 409
VWidth: 1024
GlyphClass: 2
Flags: W
LayerCount: 2
Fore
SplineSet
231 741 m 1
 303 743 l 1
 293 549 l 1
 242 549 l 1
 231 741 l 1
90 741 m 1
 162 743 l 1
 152 549 l 1
 100 549 l 1
 90 741 l 1
EndSplineSet
Validated: 1
EndChar

StartChar: numbersign
Encoding: 35 35 20
Width: 409
VWidth: 1024
GlyphClass: 2
Flags: W
LayerCount: 2
Fore
SplineSet
295 606 m 1
 365 589 l 1
 251 -4 l 1
 182 18 l 1
 295 606 l 1
172 606 m 1
 242 589 l 1
 128 -4 l 1
 59 18 l 1
 172 606 l 1
31 212 m 1
 370 212 l 1
 370 138 l 1
 31 138 l 1
 31 212 l 1
37 433 m 1
 379 434 l 1
 377 358 l 1
 37 361 l 1
 37 433 l 1
EndSplineSet
Validated: 5
EndChar

StartChar: dollar
Encoding: 36 36 21
Width: 512
VWidth: 1024
GlyphClass: 2
Flags: W
LayerCount: 2
Fore
SplineSet
214 693 m 1
 214 -66 l 1
 286 -66 l 1
 286 693 l 1
 214 693 l 1
392 494 m 1
 431 554 l 1
 368.333333333 596 300.666666667 617 228 617 c 0
 169.333333333 617 121.333333333 604.5 84 579.5 c 128
 46.6666666667 554.5 28 516.333333333 28 465 c 0
 28 453.666666667 30 442.833333333 34 432.5 c 128
 38 422.166666667 42.6666666667 413.166666667 48 405.5 c 128
 53.3333333333 397.833333333 61.5 389.833333333 72.5 381.5 c 128
 83.5 373.166666667 92.8333333333 366.5 100.5 361.5 c 128
 108.166666667 356.5 119.5 350.5 134.5 343.5 c 128
 149.5 336.5 160.833333333 331.5 168.5 328.5 c 128
 176.166666667 325.5 188.5 320.833333333 205.5 314.5 c 128
 222.5 308.166666667 233.666666667 304 239 302 c 128
 247 299 247 299 275 288.5 c 128
 293.666666667 281.5 307.333333333 276.333333333 316 273 c 128
 324.666666667 269.666666667 336.333333333 264.166666667 351 256.5 c 128
 365.666666667 248.833333333 376.666666667 241.666666667 384 235 c 128
 391.333333333 228.333333333 397.833333333 219.833333333 403.5 209.5 c 128
 409.166666667 199.166666667 412 188.333333333 412 177 c 0
 411.333333333 141 394.833333333 114 362.5 96 c 128
 330.166666667 78 285.333333333 69 228 69 c 0
 175.333333333 69 119.333333333 110.333333333 60 193 c 1
 15 129 l 1
 33.6666666667 109 48.5 93.5 59.5 82.5 c 128
 70.5 71.5 85.6666666667 58.1666666667 105 42.5 c 128
 124.333333333 26.8333333333 144.166666667 15.3333333333 164.5 8 c 128
 184.833333333 0.666666666667 206 -3 228 -3 c 0
 304.666666667 -3 366.166666667 12.3333333333 412.5 43 c 128
 458.833333333 73.6666666667 482.333333333 118 483 176 c 0
 483.666666667 200 478.833333333 222.166666667 468.5 242.5 c 128
 458.166666667 262.833333333 446.833333333 278.833333333 434.5 290.5 c 128
 422.166666667 302.166666667 404.333333333 313.666666667 381 325 c 128
 357.666666667 336.333333333 340 344.166666667 328 348.5 c 128
 316 352.833333333 297.666666667 358.666666667 273 366 c 0
 270.333333333 366.666666667 263.166666667 368.833333333 251.5 372.5 c 128
 239.833333333 376.166666667 229.833333333 379.333333333 221.5 382 c 128
 213.166666667 384.666666667 202.666666667 388.333333333 190 393 c 128
 177.333333333 397.666666667 166.5 402.333333333 157.5 407 c 128
 148.5 411.666666667 139.666666667 417 131 423 c 128
 122.333333333 429 115.666666667 435.5 111 442.5 c 128
 106.333333333 449.5 104 457 104 465 c 0
 104 485.666666667 118 504.333333333 146 521 c 128
 174 537.666666667 200.666666667 546 226 546 c 0
 253.333333333 546 278 543 300 537 c 128
 322 531 337.833333333 525.5 347.5 520.5 c 128
 357.166666667 515.5 372 506.666666667 392 494 c 1
EndSplineSet
Validated: 37
EndChar

StartChar: percent
Encoding: 37 37 22
Width: 512
VWidth: 1024
GlyphClass: 2
Flags: W
LayerCount: 2
Fore
SplineSet
317 104 m 0
 317 76.6666666667 334.333333333 63 369 63 c 0
 385 63 397.5 66.8333333333 406.5 74.5 c 128
 415.5 82.1666666667 420 92 420 104 c 128
 420 116 415.5 126.666666667 406.5 136 c 128
 397.5 145.333333333 385.333333333 150 370 150 c 0
 334.666666667 150 317 134.666666667 317 104 c 0
246 106 m 128
 246 137.333333333 258 164.333333333 282 187 c 128
 306 209.666666667 335 221 369 221 c 128
 403 221 432 209.666666667 456 187 c 128
 480 164.333333333 492 137.333333333 492 106 c 128
 492 74.6666666667 480 47.8333333333 456 25.5 c 128
 432 3.16666666667 403 -8 369 -8 c 128
 335 -8 306 3.16666666667 282 25.5 c 128
 258 47.8333333333 246 74.6666666667 246 106 c 128
103 493 m 0
 103 465.666666667 120.333333333 452 155 452 c 0
 171 452 183.5 456 192.5 464 c 128
 201.5 472 206 481.666666667 206 493 c 0
 206 505 201.5 515.5 192.5 524.5 c 128
 183.5 533.5 171.333333333 538 156 538 c 0
 120.666666667 538 103 523 103 493 c 0
32 495 m 128
 32 526.333333333 44 553.166666667 68 575.5 c 128
 92 597.833333333 121 609 155 609 c 128
 189 609 218 597.833333333 242 575.5 c 128
 266 553.166666667 278 526.333333333 278 495 c 128
 278 463.666666667 266 436.666666667 242 414 c 128
 218 391.333333333 189 380 155 380 c 128
 121 380 92 391.333333333 68 414 c 128
 44 436.666666667 32 463.666666667 32 495 c 128
71 148 m 1
 394 490 l 1
 445 443 l 1
 124 98 l 1
 71 148 l 1
EndSplineSet
Validated: 1
EndChar

StartChar: ampersand
Encoding: 38 38 23
Width: 512
VWidth: 1024
GlyphClass: 2
Flags: W
LayerCount: 2
Fore
SplineSet
190 395 m 1
 188.666666667 397 185.5 402.666666667 180.5 412 c 128
 175.5 421.333333333 172 428 170 432 c 128
 168 436 165.5 441.666666667 162.5 449 c 128
 159.5 456.333333333 157.333333333 463.166666667 156 469.5 c 128
 154.666666667 475.833333333 154 482.333333333 154 489 c 0
 154 505.666666667 161.5 519.5 176.5 530.5 c 128
 191.5 541.5 213 547 241 547 c 0
 261.666666667 547 275.5 544 282.5 538 c 128
 289.5 532 293 519 293 499 c 0
 293 493 291.5 487.166666667 288.5 481.5 c 128
 285.5 475.833333333 280.333333333 469.666666667 273 463 c 128
 265.666666667 456.333333333 258.5 450.166666667 251.5 444.5 c 128
 244.5 438.833333333 234.666666667 431 222 421 c 128
 209.333333333 411 198.666666667 402.333333333 190 395 c 1
178 299 m 1
 276 155 l 2
 275.333333333 154.333333333 270.166666667 147.833333333 260.5 135.5 c 128
 250.833333333 123.166666667 243.666666667 114.333333333 239 109 c 128
 234.333333333 103.666666667 227.333333333 96.5 218 87.5 c 128
 208.666666667 78.5 200.333333333 72 193 68 c 128
 185.666666667 64 178.666666667 62 172 62 c 0
 155.333333333 62 139.5 74.1666666667 124.5 98.5 c 128
 109.5 122.833333333 102 149.333333333 102 178 c 0
 102 188.666666667 103.166666667 198.333333333 105.5 207 c 128
 107.833333333 215.666666667 112 224.333333333 118 233 c 128
 124 241.666666667 129.166666667 248.5 133.5 253.5 c 128
 137.833333333 258.5 145.333333333 266.166666667 156 276.5 c 128
 166.666666667 286.833333333 174 294.333333333 178 299 c 1
428 -15 m 1
 481 33 l 1
 364 161 l 1
 467 271 l 1
 409 312 l 1
 327 210 l 1
 229 346 l 1
 264.333333333 371.333333333 295.833333333 398.833333333 323.5 428.5 c 128
 351.166666667 458.166666667 365 482.666666667 365 502 c 0
 365 542.666666667 355.5 572 336.5 590 c 128
 317.5 608 287.333333333 617 246 617 c 0
 196.666666667 617 157 604.166666667 127 578.5 c 128
 97 552.833333333 82 521.666666667 82 485 c 0
 82 472.333333333 83.8333333333 459.5 87.5 446.5 c 128
 91.1666666667 433.5 94.8333333333 423.333333333 98.5 416 c 128
 102.166666667 408.666666667 108.333333333 397.666666667 117 383 c 128
 125.666666667 368.333333333 131.666666667 357.666666667 135 351 c 1
 132.333333333 348.333333333 125.666666667 341.833333333 115 331.5 c 128
 104.333333333 321.166666667 97.6666666667 314.5 95 311.5 c 128
 92.3333333333 308.5 86.8333333333 302.333333333 78.5 293 c 128
 70.1666666667 283.666666667 64.6666666667 276.833333333 62 272.5 c 128
 58 266 58 266 50 253 c 128
 44.6666666667 244.333333333 41 236.666666667 39 230 c 128
 37 223.333333333 35.1666666667 215.5 33.5 206.5 c 128
 31.8333333333 197.5 31 188.333333333 31 179 c 0
 31 125 44.6666666667 80.1666666667 72 44.5 c 128
 99.3333333333 8.83333333333 132.333333333 -9 171 -9 c 0
 216.333333333 -9 269 26.6666666667 329 98 c 1
 428 -15 l 1
EndSplineSet
Validated: 9
EndChar

StartChar: quotesingle
Encoding: 39 39 24
Width: 133
VWidth: 1024
GlyphClass: 2
Flags: W
LayerCount: 2
Fore
SplineSet
31 741 m 1
 102 743 l 1
 92 549 l 1
 41 549 l 1
 31 741 l 1
EndSplineSet
Validated: 1
EndChar

StartChar: parenleft
Encoding: 40 40 25
Width: 409
VWidth: 1024
GlyphClass: 2
Flags: W
LayerCount: 2
Fore
SplineSet
334 614 m 1
 379 556 l 1
 194.333333333 508.666666667 102 424.666666667 102 304 c 0
 102 266.666666667 117 229.166666667 147 191.5 c 128
 177 153.833333333 211.833333333 122.333333333 251.5 97 c 128
 291.166666667 71.6666666667 333 51 377 35 c 1
 331 -23 l 1
 303 -17 271.333333333 -3.33333333333 236 18 c 128
 200.666666667 39.3333333333 167.166666667 64.6666666667 135.5 94 c 128
 103.833333333 123.333333333 77.1666666667 157 55.5 195 c 128
 33.8333333333 233 23 269.666666667 23 305 c 0
 23 374.333333333 55 440 119 502 c 128
 183 564 254.666666667 601.333333333 334 614 c 1
EndSplineSet
Validated: 1
EndChar

StartChar: parenright
Encoding: 41 41 26
Width: 409
VWidth: 1024
GlyphClass: 2
Flags: W
LayerCount: 2
Fore
SplineSet
68 614 m 1
 23 556 l 1
 207 508.666666667 299 424.666666667 299 304 c 0
 299 275.333333333 290.5 246.666666667 273.5 218 c 128
 256.5 189.333333333 234.333333333 163.5 207 140.5 c 128
 179.666666667 117.5 150.5 97.1666666667 119.5 79.5 c 128
 88.5 61.8333333333 57 47 25 35 c 1
 71 -23 l 1
 99 -17 130.666666667 -3.33333333333 166 18 c 128
 201.333333333 39.3333333333 234.833333333 64.6666666667 266.5 94 c 128
 298.166666667 123.333333333 324.833333333 157 346.5 195 c 128
 368.166666667 233 379 269.666666667 379 305 c 0
 379 374.333333333 347 440 283 502 c 128
 219 564 147.333333333 601.333333333 68 614 c 1
EndSplineSet
Validated: 9
EndChar

StartChar: asterisk
Encoding: 42 42 27
Width: 409
VWidth: 1024
GlyphClass: 2
Flags: W
LayerCount: 2
Fore
SplineSet
239 500 m 1
 177 584 l 1
 220 615 l 1
 282 531 l 1
 239 500 l 1
176 588 m 1
 118 501 l 1
 74 530 l 1
 131 618 l 1
 176 588 l 1
154 667 m 1
 154 771 l 1
 207 771 l 1
 207 667 l 1
 154 667 l 1
207 667 m 1
 308 693 l 1
 321 642 l 1
 220 615 l 1
 207 667 l 1
58 710 m 1
 153 666 l 1
 131 618 l 1
 36 661 l 1
 58 710 l 1
EndSplineSet
Validated: 5
EndChar

StartChar: plus
Encoding: 43 43 28
Width: 409
VWidth: 1024
GlyphClass: 2
Flags: W
LayerCount: 2
Fore
SplineSet
243 30 m 1
 171 30 l 1
 171 361 l 1
 243 361 l 1
 243 30 l 1
37 241 m 1
 369 241 l 1
 369 169 l 1
 37 169 l 1
 37 241 l 1
EndSplineSet
Validated: 5
EndChar

StartChar: comma
Encoding: 44 44 29
Width: 133
VWidth: 1024
GlyphClass: 2
Flags: W
LayerCount: 2
Fore
SplineSet
102 31 m 1
 102 10.3333333333 97.6666666667 -6.66666666667 89 -20 c 0
 81.6666666667 -31.3333333333 68.3333333333 -42 49 -52 c 1
 38 -34 l 1
 55.3333333333 -24 66 -15.3333333333 70 -8 c 0
 74.6666666667 0 77 13 77 31 c 1
 102 31 l 1
31 102 m 1
 102 102 l 1
 102 31 l 1
 77 31 l 1
 31 31 l 1
 31 102 l 1
EndSplineSet
Validated: 5
EndChar

StartChar: hyphen
Encoding: 45 45 30
Width: 409
VWidth: 1024
GlyphClass: 2
Flags: W
LayerCount: 2
Fore
SplineSet
37 241 m 1
 369 241 l 1
 369 169 l 1
 37 169 l 1
 37 241 l 1
EndSplineSet
Validated: 1
EndChar

StartChar: period
Encoding: 46 46 31
Width: 133
VWidth: 1024
GlyphClass: 2
Flags: W
LayerCount: 2
Fore
SplineSet
31 102 m 5
 102 102 l 5
 102 31 l 5
 31 31 l 5
 31 102 l 5
EndSplineSet
Validated: 1
EndChar

StartChar: slash
Encoding: 47 47 32
Width: 409
VWidth: 1024
GlyphClass: 2
Flags: W
LayerCount: 2
Fore
SplineSet
304 605 m 1
 378 575 l 1
 116 -7 l 1
 42 23 l 1
 304 605 l 1
EndSplineSet
Validated: 1
EndChar

StartChar: zero
Encoding: 48 48 33
Width: 409
VWidth: 1024
GlyphClass: 2
Flags: W
LayerCount: 2
Fore
SplineSet
28 206 m 128
 28 265.333333333 44.8333333333 315.833333333 78.5 357.5 c 128
 112.166666667 399.166666667 154.333333333 420 205 420 c 128
 255.666666667 420 297.833333333 399.166666667 331.5 357.5 c 128
 365.166666667 315.833333333 382 265.333333333 382 206 c 128
 382 146.666666667 365.166666667 96.1666666667 331.5 54.5 c 128
 297.833333333 12.8333333333 255.666666667 -8 205 -8 c 128
 154.333333333 -8 112.166666667 12.8333333333 78.5 54.5 c 128
 44.8333333333 96.1666666667 28 146.666666667 28 206 c 128
100 207 m 128
 100 164.333333333 109.166666667 130 127.5 104 c 128
 145.833333333 78 171.666666667 65 205 65 c 128
 238.333333333 65 264 78 282 104 c 128
 300 130 309 164.333333333 309 207 c 128
 309 249.666666667 300 283.833333333 282 309.5 c 128
 264 335.166666667 238.333333333 348 205 348 c 128
 171.666666667 348 145.833333333 335.166666667 127.5 309.5 c 128
 109.166666667 283.833333333 100 249.666666667 100 207 c 128
EndSplineSet
Validated: 1
EndChar

StartChar: one
Encoding: 49 49 34
Width: 133
VWidth: 1024
GlyphClass: 2
Flags: W
LayerCount: 2
Fore
SplineSet
31 414 m 1
 102 414 l 1
 102 0 l 1
 31 0 l 1
 31 414 l 1
EndSplineSet
Validated: 1
EndChar

StartChar: two
Encoding: 50 50 35
Width: 409
VWidth: 1024
GlyphClass: 2
Flags: W
LayerCount: 2
Fore
SplineSet
31 324 m 1
 79 270 l 1
 99.6666666667 290 113.833333333 303.166666667 121.5 309.5 c 128
 129.166666667 315.833333333 140.333333333 322.166666667 155 328.5 c 128
 169.666666667 334.833333333 186.333333333 338 205 338 c 0
 229.666666667 338 252.333333333 330 273 314 c 128
 293.666666667 298 304 284 304 272 c 0
 304 248.666666667 264.666666667 219.333333333 186 184 c 0
 175 179 175 179 175 179 c 1
 31 103 l 1
 31 0 l 1
 379 0 l 1
 379 72 l 1
 106 72 l 1
 221 123 l 2
 225 124.333333333 230.666666667 126.5 238 129.5 c 128
 245.333333333 132.5 258 139 276 149 c 128
 294 159 310 169.5 324 180.5 c 128
 338 191.5 350.666666667 205.166666667 362 221.5 c 128
 373.333333333 237.833333333 379 254.333333333 379 271 c 0
 379 308.333333333 362.5 340.833333333 329.5 368.5 c 128
 296.5 396.166666667 255.666666667 410 207 410 c 0
 149.666666667 410 91 381.333333333 31 324 c 1
EndSplineSet
Validated: 9
EndChar

StartChar: three
Encoding: 51 51 36
Width: 409
VWidth: 1024
GlyphClass: 2
Flags: W
LayerCount: 2
Fore
SplineSet
317 340 m 1
 53 132 l 1
 88 77 l 1
 125.333333333 83.6666666667 163 87 201 87 c 0
 233.666666667 87 260 78.5 280 61.5 c 128
 300 44.5 310 24 310 0 c 0
 310 -46.6666666667 300.166666667 -80.5 280.5 -101.5 c 128
 260.833333333 -122.5 230.666666667 -133 190 -133 c 0
 162 -133 139.666666667 -128.666666667 123 -120 c 128
 106.333333333 -111.333333333 88.6666666667 -97.3333333333 70 -78 c 1
 25 -135 l 1
 57.6666666667 -161.666666667 85.5 -180.666666667 108.5 -192 c 128
 131.5 -203.333333333 159.666666667 -209 193 -209 c 0
 249.666666667 -209 295.333333333 -190 330 -152 c 128
 364.666666667 -114 382 -63.3333333333 382 0 c 0
 382 44.6666666667 364.5 81.8333333333 329.5 111.5 c 128
 294.5 141.166666667 253 156 205 156 c 0
 196.333333333 156 190 155.666666667 186 155 c 128
 182 154.333333333 177.666666667 152.5 173 149.5 c 128
 168.333333333 146.5 163.666666667 141.333333333 159 134 c 1
 379 317 l 1
 379 410 l 1
 31 410 l 1
 31 338 l 1
 317 340 l 1
EndSplineSet
Validated: 5
EndChar

StartChar: four
Encoding: 52 52 37
Width: 409
VWidth: 1024
GlyphClass: 2
Flags: W
LayerCount: 2
Fore
SplineSet
236 254 m 1
 116 72 l 1
 236 72 l 1
 236 254 l 1
256 410 m 1
 307 395 l 1
 307 72 l 1
 379 72 l 1
 379 0 l 1
 309 0 l 1
 307 -205 l 1
 236 -205 l 1
 236 0 l 1
 45 0 l 1
 31 76 l 1
 256 410 l 1
EndSplineSet
Validated: 1
EndChar

StartChar: five
Encoding: 53 53 38
Width: 409
VWidth: 1024
GlyphClass: 2
Flags: W
LayerCount: 2
Fore
SplineSet
379 410 m 1
 31 410 l 1
 31 132 l 1
 66 77 l 1
 103.333333333 83.6666666667 148.333333333 87 201 87 c 0
 233.666666667 87 260 78.5 280 61.5 c 128
 300 44.5 310 24 310 0 c 0
 310 -46.6666666667 300.166666667 -80.5 280.5 -101.5 c 128
 260.833333333 -122.5 230.666666667 -133 190 -133 c 0
 162 -133 139.666666667 -128.666666667 123 -120 c 128
 106.333333333 -111.333333333 88.6666666667 -97.3333333333 70 -78 c 1
 25 -135 l 1
 57.6666666667 -161.666666667 85.5 -180.666666667 108.5 -192 c 128
 131.5 -203.333333333 159.666666667 -209 193 -209 c 0
 249.666666667 -209 295.333333333 -190 330 -152 c 128
 364.666666667 -114 382 -63.3333333333 382 0 c 0
 382 44.6666666667 364.5 81.8333333333 329.5 111.5 c 128
 294.5 141.166666667 253 156 205 156 c 0
 158.333333333 156 124 155 102 153 c 1
 102 338 l 1
 379 338 l 1
 379 410 l 1
EndSplineSet
Validated: 9
EndChar

StartChar: six
Encoding: 54 54 39
Width: 409
VWidth: 1024
GlyphClass: 2
Flags: W
LayerCount: 2
Fore
SplineSet
309 210 m 128
 309 252.666666667 300 287 282 313 c 128
 264 339 238.333333333 352 205 352 c 128
 171.666666667 352 145.833333333 339 127.5 313 c 128
 109.166666667 287 100 252.666666667 100 210 c 128
 100 167.333333333 109.166666667 133.166666667 127.5 107.5 c 128
 145.833333333 81.8333333333 171.666666667 69 205 69 c 128
 238.333333333 69 264 81.8333333333 282 107.5 c 128
 300 133.166666667 309 167.333333333 309 210 c 128
382 211 m 128
 382 151.666666667 365.166666667 101.166666667 331.5 59.5 c 128
 297.833333333 17.8333333333 255.666666667 -3 205 -3 c 128
 154.333333333 -3 112.166666667 17.8333333333 78.5 59.5 c 128
 44.8333333333 101.166666667 28 151.666666667 28 211 c 0
 28 226.333333333 28.1666666667 246.833333333 28.5 272.5 c 128
 28.8333333333 298.166666667 29.1666666667 316.166666667 29.5 326.5 c 128
 29.8333333333 336.833333333 30.8333333333 350.833333333 32.5 368.5 c 128
 34.1666666667 386.166666667 36.6666666667 400.333333333 40 411 c 128
 43.3333333333 421.666666667 48 434.333333333 54 449 c 128
 60 463.666666667 67.6666666667 478.666666667 77 494 c 0
 94.3333333333 522.666666667 121.5 549.333333333 158.5 574 c 128
 195.5 598.666666667 226.666666667 614.333333333 252 621 c 1
 270 551 l 1
 252 545 229.833333333 533.833333333 203.5 517.5 c 128
 177.166666667 501.166666667 155.666666667 481 139 457 c 0
 126.131494351 438.687126576 116.661921131 417.434635916 110.591280341 393.242528019 c 1
 137.84410337 413.74750934 169.313676589 424 205 424 c 0
 255.666666667 424 297.833333333 403.333333333 331.5 362 c 128
 365.166666667 320.666666667 382 270.333333333 382 211 c 128
EndSplineSet
Validated: 1
EndChar

StartChar: seven
Encoding: 55 55 40
Width: 409
VWidth: 1024
GlyphClass: 2
Flags: W
LayerCount: 2
Fore
SplineSet
31 410 m 1
 31 338 l 1
 313 338 l 1
 96 -186 l 1
 162 -217 l 1
 379 319 l 1
 379 410 l 1
 31 410 l 1
EndSplineSet
Validated: 9
EndChar

StartChar: eight
Encoding: 56 56 41
Width: 409
VWidth: 1024
GlyphClass: 2
Flags: W
LayerCount: 2
Fore
SplineSet
28 450 m 0
 28 502 44.5 543.666666667 77.5 575 c 128
 110.5 606.333333333 153 622 205 622 c 0
 258.333333333 622 301.166666667 607.333333333 333.5 578 c 128
 365.833333333 548.666666667 382 505.666666667 382 449 c 0
 382 394.333333333 365.5 351 332.5 319 c 128
 299.5 287 257 271 205 271 c 0
 152.333333333 271 109.666666667 286.666666667 77 318 c 128
 44.3333333333 349.333333333 28 393.333333333 28 450 c 0
100 451 m 0
 100 416.333333333 109 389.666666667 127 371 c 128
 145 352.333333333 171 343 205 343 c 128
 239 343 264.833333333 352.166666667 282.5 370.5 c 128
 300.166666667 388.833333333 309 415.333333333 309 450 c 0
 309 516.666666667 274.333333333 550 205 550 c 0
 171 550 145 541 127 523 c 128
 109 505 100 481 100 451 c 0
28 171 m 0
 28 223 44.5 264.666666667 77.5 296 c 128
 110.5 327.333333333 153 343 205 343 c 0
 258.333333333 343 301.166666667 328.333333333 333.5 299 c 128
 365.833333333 269.666666667 382 226.666666667 382 170 c 0
 382 115.333333333 365.5 72 332.5 40 c 128
 299.5 8 257 -8 205 -8 c 0
 152.333333333 -8 109.666666667 7.66666666667 77 39 c 128
 44.3333333333 70.3333333333 28 114.333333333 28 171 c 0
100 172 m 0
 100 138 109 111.666666667 127 93 c 128
 145 74.3333333333 171 65 205 65 c 0
 274.333333333 65 309 100.333333333 309 171 c 0
 309 237.666666667 274.333333333 271 205 271 c 0
 171 271 145 262 127 244 c 128
 109 226 100 202 100 172 c 0
EndSplineSet
Validated: 5
EndChar

StartChar: nine
Encoding: 57 57 42
Width: 409
VWidth: 1024
GlyphClass: 2
Flags: W
LayerCount: 2
Fore
SplineSet
100 207 m 128
 100 164.333333333 109.166666667 130 127.5 104 c 128
 145.833333333 78 171.666666667 65 205 65 c 128
 238.333333333 65 264 78 282 104 c 0
 299.327691859 129.028888241 308.315136352 161.780227745 308.96233348 202.254018514 c 2
 309 207 l 2
 309 249.666666667 300 283.833333333 282 309.5 c 128
 264 335.166666667 238.333333333 348 205 348 c 128
 171.666666667 348 145.833333333 335.166666667 127.5 309.5 c 128
 109.166666667 283.833333333 100 249.666666667 100 207 c 128
28 206 m 128
 28 265.333333333 44.8333333333 315.833333333 78.5 357.5 c 128
 112.166666667 399.166666667 154.333333333 420 205 420 c 128
 255.666666667 420 297.833333333 399.166666667 331.5 357.5 c 128
 365.166666667 315.833333333 382 265.333333333 382 206 c 0
 382 203.475981837 381.969538058 200.967948654 381.908614175 198.475900449 c 2
 379 -41 l 2
 378.333333333 -63 377.333333333 -80 376 -92 c 128
 374.666666667 -104 370.666666667 -117.333333333 364 -132 c 128
 357.333333333 -146.666666667 347.666666667 -159.333333333 335 -170 c 0
 311.666666667 -189.333333333 271.333333333 -203 214 -211 c 1
 212 -153 l 1
 244 -149 268 -137.666666667 284 -119 c 0
 290 -112.333333333 294.833333333 -102.833333333 298.5 -90.5 c 128
 302.166666667 -78.1666666667 304.666666667 -67.3333333333 306 -58 c 2
 307 -45 l 1
 307.592320505 29.6323836745 l 1
 278.512884516 4.5441278915 244.315444348 -8 205 -8 c 0
 154.333333333 -8 112.166666667 12.8333333333 78.5 54.5 c 128
 44.8333333333 96.1666666667 28 146.666666667 28 206 c 128
EndSplineSet
Validated: 1
EndChar

StartChar: colon
Encoding: 58 58 43
Width: 133
VWidth: 1024
GlyphClass: 2
Flags: W
LayerCount: 2
Fore
SplineSet
31 410 m 1
 102 410 l 1
 102 338 l 1
 31 338 l 1
 31 410 l 1
31 102 m 1
 102 102 l 1
 102 31 l 1
 31 31 l 1
 31 102 l 1
EndSplineSet
Validated: 1
EndChar

StartChar: semicolon
Encoding: 59 59 44
Width: 133
VWidth: 1024
GlyphClass: 2
Flags: W
LayerCount: 2
Fore
SplineSet
31 410 m 1
 102 410 l 1
 102 338 l 1
 31 338 l 1
 31 410 l 1
102 31 m 1
 102 10.3333333333 97.6666666667 -6.66666666667 89 -20 c 0
 81.6666666667 -31.3333333333 68.3333333333 -42 49 -52 c 1
 38 -34 l 1
 55.3333333333 -24 66 -15.3333333333 70 -8 c 0
 74.6666666667 0 77 13 77 31 c 1
 102 31 l 1
31 102 m 1
 102 102 l 1
 102 31 l 1
 77 31 l 1
 31 31 l 1
 31 102 l 1
EndSplineSet
Validated: 5
EndChar

StartChar: less
Encoding: 60 60 45
Width: 409
VWidth: 1024
GlyphClass: 2
Flags: W
LayerCount: 2
Fore
SplineSet
338 416 m 1
 379 354 l 1
 117 219 l 1
 379 29 l 1
 334 -27 l 1
 31 197 l 1
 31 248 l 1
 338 416 l 1
EndSplineSet
Validated: 1
EndChar

StartChar: equal
Encoding: 61 61 46
Width: 409
VWidth: 1024
GlyphClass: 2
Flags: W
LayerCount: 2
Fore
SplineSet
31 141 m 1
 379 141 l 1
 379 70 l 1
 31 70 l 1
 31 141 l 1
31 371 m 1
 379 371 l 1
 379 299 l 1
 31 299 l 1
 31 371 l 1
EndSplineSet
Validated: 1
EndChar

StartChar: greater
Encoding: 62 62 47
Width: 409
VWidth: 1024
GlyphClass: 2
Flags: W
LayerCount: 2
Fore
SplineSet
73 416 m 1
 32 354 l 1
 294 219 l 1
 32 29 l 1
 77 -27 l 1
 380 197 l 1
 380 248 l 1
 73 416 l 1
EndSplineSet
Validated: 9
EndChar

StartChar: question
Encoding: 63 63 48
Width: 409
VWidth: 1024
GlyphClass: 2
Flags: W
LayerCount: 2
Fore
SplineSet
158 102 m 1
 229 102 l 1
 229 31 l 1
 158 31 l 1
 158 102 l 1
27 516 m 1
 61 470 l 1
 69 476 78.6666666667 484.333333333 90 495 c 128
 101.333333333 505.666666667 109.833333333 513.166666667 115.5 517.5 c 128
 121.166666667 521.833333333 128.5 526.666666667 137.5 532 c 128
 146.5 537.333333333 155.5 541 164.5 543 c 128
 173.5 545 184 546 196 546 c 0
 220.666666667 546 245.333333333 533 270 507 c 128
 294.666666667 481 307 453.666666667 307 425 c 0
 307 413.666666667 304.666666667 403.166666667 300 393.5 c 128
 295.333333333 383.833333333 290.333333333 375.666666667 285 369 c 128
 279.666666667 362.333333333 270.666666667 355.166666667 258 347.5 c 128
 245.333333333 339.833333333 235.5 334.333333333 228.5 331 c 128
 221.5 327.666666667 209.333333333 322.333333333 192 315 c 128
 174.666666667 307.666666667 163.333333333 302.666666667 158 300 c 1
 158 136 l 1
 228 136 l 1
 228 259 l 1
 328.666666667 308.333333333 379 363.666666667 379 425 c 0
 379 471.666666667 359.666666667 515.166666667 321 555.5 c 128
 282.333333333 595.833333333 241.666666667 616 199 616 c 0
 177.666666667 616 155.5 610.166666667 132.5 598.5 c 128
 109.5 586.833333333 91 575 77 563 c 128
 63 551 46.3333333333 535.333333333 27 516 c 1
EndSplineSet
Validated: 9
EndChar

StartChar: at
Encoding: 64 64 49
Width: 512
VWidth: 1024
GlyphClass: 2
Flags: W
LayerCount: 2
Fore
SplineSet
293 413 m 1
 283 302 l 2
 276.333333333 238 264 206 246 206 c 0
 224 206 207.5 216 196.5 236 c 128
 185.5 256 180 279.666666667 180 307 c 0
 180 387 200 427 240 427 c 0
 260 427 277.666666667 422.333333333 293 413 c 1
365 452 m 1
 346.333333333 464 332.833333333 472.333333333 324.5 477 c 128
 316.166666667 481.666666667 304.666666667 486.5 290 491.5 c 128
 275.333333333 496.5 260 499 244 499 c 0
 200 499 166.5 480 143.5 442 c 128
 120.5 404 109 359 109 307 c 0
 109 263 121.166666667 223.166666667 145.5 187.5 c 128
 169.833333333 151.833333333 201.333333333 134 240 134 c 0
 263.333333333 134 280.333333333 139.166666667 291 149.5 c 128
 301.666666667 159.833333333 314 180 328 210 c 1
 334.666666667 196.666666667 340.166666667 187 344.5 181 c 128
 348.833333333 175 354.666666667 169.5 362 164.5 c 128
 369.333333333 159.5 377.666666667 157 387 157 c 0
 420.333333333 157 444.333333333 168.5 459 191.5 c 128
 473.666666667 214.5 481 253 481 307 c 0
 481 364.333333333 473.833333333 415.333333333 459.5 460 c 128
 445.166666667 504.666666667 420.5 541.5 385.5 570.5 c 128
 350.5 599.5 307 614 255 614 c 0
 173.666666667 614 116 586.833333333 82 532.5 c 128
 48 478.166666667 31 403 31 307 c 0
 31 264.333333333 35.1666666667 224.833333333 43.5 188.5 c 128
 51.8333333333 152.166666667 64.5 119.5 81.5 90.5 c 128
 98.5 61.5 121.833333333 38.6666666667 151.5 22 c 128
 181.166666667 5.33333333333 216 -3 256 -3 c 0
 273.333333333 -3 289.333333333 -1.33333333333 304 2 c 128
 318.666666667 5.33333333333 330.5 9 339.5 13 c 128
 348.5 17 361 23 377 31 c 1
 340 91 l 1
 321.333333333 80.3333333333 308 74 300 72 c 128
 292 70 277.333333333 69 256 69 c 0
 230 69 207.666666667 73.1666666667 189 81.5 c 128
 170.333333333 89.8333333333 155.5 100.833333333 144.5 114.5 c 128
 133.5 128.166666667 124.833333333 145.666666667 118.5 167 c 128
 112.166666667 188.333333333 107.833333333 209.833333333 105.5 231.5 c 128
 103.166666667 253.166666667 102 278.333333333 102 307 c 0
 102 337.666666667 102.833333333 363.666666667 104.5 385 c 128
 106.166666667 406.333333333 110.166666667 427.666666667 116.5 449 c 128
 122.833333333 470.333333333 131.5 487.333333333 142.5 500 c 128
 153.5 512.666666667 168.5 523 187.5 531 c 128
 206.5 539 229.333333333 543 256 543 c 128
 282.666666667 543 305.5 539 324.5 531 c 128
 343.5 523 358.5 512.5 369.5 499.5 c 128
 380.5 486.5 389 469.333333333 395 448 c 128
 401 426.666666667 405 405.333333333 407 384 c 128
 409 362.666666667 410 337 410 307 c 0
 410 254.333333333 403.333333333 228 390 228 c 0
 384 228 378.833333333 232.666666667 374.5 242 c 128
 370.166666667 251.333333333 363.333333333 271.666666667 354 303 c 1
 365 452 l 1
EndSplineSet
Validated: 9
EndChar

StartChar: A
Encoding: 65 65 50
Width: 512
VWidth: 1024
GlyphClass: 2
Flags: W
LayerCount: 2
Fore
SplineSet
159 302 m 1
 159 230 l 1
 343 230 l 1
 343 302 l 1
 159 302 l 1
481 13 m 1
 302 614 l 1
 219 614 l 1
 407 -21 l 1
 481 13 l 1
29 9 m 1
 98 -22 l 1
 302 615 l 1
 219 614 l 1
 29 9 l 1
EndSplineSet
Validated: 5
EndChar

StartChar: B
Encoding: 66 66 51
Width: 512
VWidth: 1024
GlyphClass: 2
Flags: W
LayerCount: 2
Fore
SplineSet
56 271 m 1
 263 270 l 2
 319 269.333333333 357.5 260.5 378.5 243.5 c 128
 399.5 226.5 410 200.333333333 410 165 c 0
 410 139.666666667 398.833333333 118.166666667 376.5 100.5 c 128
 354.166666667 82.8333333333 323.333333333 74 284 74 c 2
 71 73 l 1
 73 1 l 1
 286 0 l 2
 335.333333333 0 380.166666667 15.8333333333 420.5 47.5 c 128
 460.833333333 79.1666666667 481 118 481 164 c 0
 481 221.333333333 461 265.5 421 296.5 c 128
 381 327.5 329.666666667 343 267 343 c 2
 56 343 l 1
 56 271 l 1
31 614 m 1
 31 0 l 1
 94 0 l 1
 94 614 l 1
 31 614 l 1
56 543 m 1
 263 542 l 2
 319 541.333333333 357.5 532.5 378.5 515.5 c 128
 399.5 498.5 410 472 410 436 c 0
 410 410.666666667 398.833333333 389.166666667 376.5 371.5 c 128
 354.166666667 353.833333333 323.333333333 345 284 345 c 2
 71 344 l 1
 73 272 l 1
 286 271 l 2
 335.333333333 271 380.166666667 286.833333333 420.5 318.5 c 128
 460.833333333 350.166666667 481 389 481 435 c 0
 481 492.333333333 461 536.5 421 567.5 c 128
 381 598.5 329.666666667 614 267 614 c 2
 56 614 l 1
 56 543 l 1
EndSplineSet
Validated: 5
EndChar

StartChar: C
Encoding: 67 67 52
Width: 512
VWidth: 1024
GlyphClass: 2
Flags: W
LayerCount: 2
Fore
SplineSet
436 490 m 1
 428 493.333333333 415.333333333 499.166666667 398 507.5 c 128
 380.666666667 515.833333333 368.333333333 521.333333333 361 524 c 128
 353.666666667 526.666666667 343.666666667 530.333333333 331 535 c 128
 318.333333333 539.666666667 306.166666667 542.666666667 294.5 544 c 128
 282.833333333 545.333333333 270 546 256 546 c 0
 209.333333333 546 171.666666667 521.5 143 472.5 c 128
 114.333333333 423.5 100 369 100 309 c 0
 100 227 114 165.833333333 142 125.5 c 128
 170 85.1666666667 208 65 256 65 c 0
 305.333333333 65 363 89.3333333333 429 138 c 1
 429 138 429 138 482 90 c 1
 481.333333333 89.3333333333 477.5 86 470.5 80 c 128
 463.5 74 458.666666667 70 456 68 c 128
 452 65 452 65 440 56 c 128
 432 50 425.666666667 45.5 421 42.5 c 128
 416.333333333 39.5 409.5 35.3333333333 400.5 30 c 128
 391.5 24.6666666667 383.5 20.5 376.5 17.5 c 128
 369.5 14.5 360.833333333 11.1666666667 350.5 7.5 c 128
 340.166666667 3.83333333333 330.5 1 321.5 -1 c 128
 312.5 -3 302.166666667 -4.66666666667 290.5 -6 c 128
 278.833333333 -7.33333333333 267.333333333 -8 256 -8 c 0
 104 -8 28 97.3333333333 28 308 c 0
 28 405.333333333 47.3333333333 481.166666667 86 535.5 c 128
 124.666666667 589.833333333 181.333333333 617 256 617 c 0
 333.333333333 617 408.333333333 593.333333333 481 546 c 1
 436 490 436 490 436 490 c 1
EndSplineSet
Validated: 1
EndChar

StartChar: D
Encoding: 68 68 53
Width: 512
VWidth: 1024
GlyphClass: 2
Flags: W
LayerCount: 2
Fore
SplineSet
31 614 m 1
 31 543 l 1
 242 543 l 2
 302.666666667 541.666666667 345.833333333 523 371.5 487 c 128
 397.166666667 451 410 390 410 304 c 0
 410 234 395 178.333333333 365 137 c 128
 335 95.6666666667 296 74.3333333333 248 73 c 2
 31 72 l 1
 31 0 l 1
 248 0 l 2
 312 0 366.833333333 28.6666666667 412.5 86 c 128
 458.166666667 143.333333333 481 217 481 307 c 0
 481 406.333333333 461.166666667 482.333333333 421.5 535 c 128
 381.833333333 587.666666667 324.666666667 614 250 614 c 2
 31 614 l 1
31 614 m 1
 31 0 l 1
 102 0 l 1
 102 614 l 1
 31 614 l 1
EndSplineSet
Validated: 5
EndChar

StartChar: E
Encoding: 69 69 54
Width: 512
VWidth: 1024
GlyphClass: 2
Flags: W
LayerCount: 2
Fore
SplineSet
102 521 m 1
 102 341 l 1
 481 341 l 1
 481 270 l 1
 102 270 l 1
 102 71 l 1
 481 71 l 1
 481 0 l 1
 102 0 l 1
 46 0 l 1
 30 0 l 1
 30 592 l 1
 46 592 l 1
 102 592 l 1
 481 592 l 1
 481 521 l 1
 102 521 l 1
EndSplineSet
Validated: 1
EndChar

StartChar: F
Encoding: 70 70 55
Width: 512
VWidth: 1024
GlyphClass: 2
Flags: W
LayerCount: 2
Fore
SplineSet
102 521 m 1
 102 341 l 1
 481 341 l 1
 481 270 l 1
 102 270 l 1
 102 0 l 1
 30 0 l 1
 30 592 l 1
 46 592 l 1
 102 592 l 1
 481 592 l 1
 481 521 l 1
 102 521 l 1
EndSplineSet
Validated: 1
EndChar

StartChar: G
Encoding: 71 71 56
Width: 512
VWidth: 1024
GlyphClass: 2
Flags: W
LayerCount: 2
Fore
SplineSet
436 490 m 1
 428 493.333333333 415.333333333 499.166666667 398 507.5 c 128
 380.666666667 515.833333333 368.333333333 521.333333333 361 524 c 128
 353.666666667 526.666666667 343.666666667 530.333333333 331 535 c 128
 318.333333333 539.666666667 306.166666667 542.666666667 294.5 544 c 128
 282.833333333 545.333333333 270 546 256 546 c 0
 209.333333333 546 171.666666667 521.5 143 472.5 c 128
 114.333333333 423.5 100 369 100 309 c 0
 100 227 114 165.833333333 142 125.5 c 128
 170 85.1666666667 208 65 256 65 c 0
 300.540535361 65 351.873868695 84.8349700773 410 124.504910232 c 1
 410 253 l 1
 314 253 l 1
 314 325 l 1
 531 325 l 1
 531 253 l 1
 481 253 l 1
 481 90.9056603774 l 1
 482 90 l 1
 481.842781028 89.8427810281 481.509447695 89.5372552256 481 89.0834225923 c 2
 481 -40 l 1
 410 -40 l 1
 410 35.6826303574 l 1
 407.159706236 33.9641594935 403.993039569 32.0699493743 400.5 30 c 0
 391.5 24.6666666667 383.5 20.5 376.5 17.5 c 128
 369.5 14.5 360.833333333 11.1666666667 350.5 7.5 c 128
 340.166666667 3.83333333333 330.5 1 321.5 -1 c 128
 312.5 -3 302.166666667 -4.66666666667 290.5 -6 c 128
 278.833333333 -7.33333333333 267.333333333 -8 256 -8 c 0
 104 -8 28 97.3333333333 28 308 c 0
 28 405.333333333 47.3333333333 481.166666667 86 535.5 c 128
 124.666666667 589.833333333 181.333333333 617 256 617 c 0
 333.333333333 617 408.333333333 593.333333333 481 546 c 1
 436 490 l 1
EndSplineSet
Validated: 1
EndChar

StartChar: H
Encoding: 72 72 57
Width: 512
VWidth: 1024
GlyphClass: 2
Flags: W
LayerCount: 2
Fore
SplineSet
31 614 m 1
 102 614 l 1
 102 343 l 1
 410 343 l 1
 410 614 l 1
 481 614 l 1
 481 2 l 1
 410 0 l 1
 410 257 l 1
 102 257 l 1
 102 0 l 1
 31 0 l 1
 31 614 l 1
EndSplineSet
Validated: 1
EndChar

StartChar: I
Encoding: 73 73 58
Width: 133
VWidth: 1024
GlyphClass: 2
Flags: W
LayerCount: 2
Fore
SplineSet
31 614 m 1
 102 614 l 1
 102 0 l 1
 31 0 l 1
 31 614 l 1
EndSplineSet
Validated: 1
EndChar

StartChar: J
Encoding: 74 74 59
Width: 512
VWidth: 1024
GlyphClass: 2
Flags: W
LayerCount: 2
Fore
SplineSet
483 186 m 2
 481 614 l 1
 410 614 l 1
 410 188 l 2
 410 158 395.833333333 131 367.5 107 c 128
 339.166666667 83 301.666666667 71 255 71 c 0
 205 71 150 88.6666666667 90 124 c 1
 41 62 l 1
 123.666666667 20.6666666667 195.333333333 0 256 0 c 0
 328.666666667 0 384.833333333 16.1666666667 424.5 48.5 c 128
 464.166666667 80.8333333333 483.666666667 126.666666667 483 186 c 2
EndSplineSet
Validated: 41
EndChar

StartChar: K
Encoding: 75 75 60
Width: 512
VWidth: 1024
GlyphClass: 2
Flags: W
LayerCount: 2
Fore
SplineSet
31 614 m 1
 100 614 l 1
 100 373.512690355 l 1
 429 614 l 1
 473 551 l 1
 138.264070727 307.71254625 l 1
 480 43 l 1
 432 -14 l 1
 100 242.114285714 l 1
 100 0 l 1
 31 0 l 1
 31 614 l 1
EndSplineSet
Validated: 1
EndChar

StartChar: L
Encoding: 76 76 61
Width: 512
VWidth: 1024
GlyphClass: 2
Flags: W
LayerCount: 2
Fore
SplineSet
47 66 m 1
 481 66 l 1
 481 0 l 1
 47 0 l 1
 47 66 l 1
31 614 m 1
 102 614 l 1
 102 0 l 1
 31 0 l 1
 31 614 l 1
EndSplineSet
Validated: 5
EndChar

StartChar: M
Encoding: 77 77 62
Width: 716
VWidth: 1024
GlyphClass: 2
Flags: W
LayerCount: 2
Fore
SplineSet
322 0 m 1
 399 0 l 1
 577 635 l 1
 494 635 l 1
 322 0 l 1
693 30 m 1
 577 635 l 1
 494 636 l 1
 623 -1 l 1
 693 30 l 1
399 1 m 1
 227 636 l 1
 144 636 l 1
 322 0 l 1
 399 1 l 1
29 31 m 1
 98 -1 l 1
 227 636 l 1
 144 636 l 1
 29 31 l 1
EndSplineSet
Validated: 5
EndChar

StartChar: N
Encoding: 78 78 63
Width: 512
VWidth: 1024
GlyphClass: 2
Flags: W
LayerCount: 2
Fore
SplineSet
51 569 m 1
 103 614 l 1
 466 43 l 1
 410 0 l 1
 51 569 l 1
410 614 m 1
 481 614 l 1
 481 0 l 1
 410 0 l 1
 410 614 l 1
31 614 m 1
 103 614 l 1
 103 0 l 1
 31 0 l 1
 31 614 l 1
EndSplineSet
Validated: 5
EndChar

StartChar: O
Encoding: 79 79 64
Width: 512
VWidth: 1024
GlyphClass: 2
Flags: W
LayerCount: 2
Fore
SplineSet
99 306 m 128
 99 234 113.333333333 176.5 142 133.5 c 128
 170.666666667 90.5 208.666666667 69 256 69 c 0
 304 69 342.166666667 89.5 370.5 130.5 c 128
 398.833333333 171.5 413 230 413 306 c 0
 413 375.333333333 398.5 432.166666667 369.5 476.5 c 128
 340.5 520.833333333 302.666666667 543 256 543 c 0
 208.666666667 543 170.666666667 521.5 142 478.5 c 128
 113.333333333 435.5 99 378 99 306 c 128
28 306 m 0
 28 362.666666667 35.8333333333 413.5 51.5 458.5 c 128
 67.1666666667 503.5 92.6666666667 540.666666667 128 570 c 128
 163.333333333 599.333333333 206 614 256 614 c 0
 331.333333333 614 388.166666667 585.5 426.5 528.5 c 128
 464.833333333 471.5 484 397.333333333 484 306 c 0
 484 208.666666667 465 132.666666667 427 78 c 128
 389 23.3333333333 332 -4 256 -4 c 0
 181.333333333 -4 124.666666667 25 86 83 c 128
 47.3333333333 141 28 215.333333333 28 306 c 0
EndSplineSet
Validated: 1
EndChar

StartChar: P
Encoding: 80 80 65
Width: 512
VWidth: 1024
GlyphClass: 2
Flags: W
LayerCount: 2
Fore
SplineSet
31 614 m 1
 31 0 l 1
 94 0 l 1
 94 614 l 1
 31 614 l 1
56 543 m 1
 263 542 l 2
 319 541.333333333 357.5 532.5 378.5 515.5 c 128
 399.5 498.5 410 472 410 436 c 0
 410 410.666666667 398.833333333 389.166666667 376.5 371.5 c 128
 354.166666667 353.833333333 323.333333333 345 284 345 c 2
 71 344 l 1
 73 272 l 1
 286 271 l 2
 335.333333333 271 380.166666667 286.833333333 420.5 318.5 c 128
 460.833333333 350.166666667 481 389 481 435 c 0
 481 492.333333333 461 536.5 421 567.5 c 128
 381 598.5 329.666666667 614 267 614 c 2
 56 614 l 1
 56 543 l 1
EndSplineSet
Validated: 5
EndChar

StartChar: Q
Encoding: 81 81 66
Width: 512
VWidth: 1024
GlyphClass: 2
Flags: W
LayerCount: 2
Fore
SplineSet
419 160 m 1
 584 57 l 1
 548 -5 l 1
 383 99 l 1
 419 160 l 1
99 306 m 128
 99 234 113.333333333 176.5 142 133.5 c 128
 170.666666667 90.5 208.666666667 69 256 69 c 0
 304 69 342.166666667 89.5 370.5 130.5 c 128
 398.833333333 171.5 413 230 413 306 c 0
 413 375.333333333 398.5 432.166666667 369.5 476.5 c 128
 340.5 520.833333333 302.666666667 543 256 543 c 0
 208.666666667 543 170.666666667 521.5 142 478.5 c 128
 113.333333333 435.5 99 378 99 306 c 128
28 306 m 0
 28 362.666666667 35.8333333333 413.5 51.5 458.5 c 128
 67.1666666667 503.5 92.6666666667 540.666666667 128 570 c 128
 163.333333333 599.333333333 206 614 256 614 c 0
 331.333333333 614 388.166666667 585.5 426.5 528.5 c 128
 464.833333333 471.5 484 397.333333333 484 306 c 0
 484 208.666666667 465 132.666666667 427 78 c 128
 389 23.3333333333 332 -4 256 -4 c 0
 181.333333333 -4 124.666666667 25 86 83 c 128
 47.3333333333 141 28 215.333333333 28 306 c 0
EndSplineSet
Validated: 5
EndChar

StartChar: R
Encoding: 82 82 67
Width: 512
VWidth: 1024
GlyphClass: 2
Flags: W
LayerCount: 2
Fore
SplineSet
109 320 m 1
 67 262 l 1
 447 -15 l 1
 489 43 l 1
 109 320 l 1
31 614 m 1
 31 0 l 1
 94 0 l 1
 94 614 l 1
 31 614 l 1
56 543 m 1
 263 542 l 2
 319 541.333333333 357.5 533.333333333 378.5 518 c 128
 399.5 502.666666667 410 477.333333333 410 442 c 0
 410 417.333333333 398.833333333 396.666666667 376.5 380 c 128
 354.166666667 363.333333333 323.333333333 355 284 355 c 2
 71 354 l 1
 73 283 l 1
 286 282 l 2
 336 282 381 297.166666667 421 327.5 c 128
 461 357.833333333 481 395.666666667 481 441 c 0
 481 498.333333333 461.166666667 541.5 421.5 570.5 c 128
 381.833333333 599.5 330.333333333 614 267 614 c 2
 56 614 l 1
 56 543 l 1
EndSplineSet
Validated: 5
EndChar

StartChar: S
Encoding: 83 83 68
Width: 512
VWidth: 1024
GlyphClass: 2
Flags: W
LayerCount: 2
Fore
SplineSet
392 494 m 1
 431 554 l 1
 368.333333333 596 300.666666667 617 228 617 c 0
 169.333333333 617 121.333333333 604.5 84 579.5 c 128
 46.6666666667 554.5 28 516.333333333 28 465 c 0
 28 453.666666667 30 442.833333333 34 432.5 c 128
 38 422.166666667 42.6666666667 413.166666667 48 405.5 c 128
 53.3333333333 397.833333333 61.5 389.833333333 72.5 381.5 c 128
 83.5 373.166666667 92.8333333333 366.5 100.5 361.5 c 128
 108.166666667 356.5 119.5 350.5 134.5 343.5 c 128
 149.5 336.5 160.833333333 331.5 168.5 328.5 c 128
 176.166666667 325.5 188.5 320.833333333 205.5 314.5 c 128
 222.5 308.166666667 233.666666667 304 239 302 c 128
 247 299 247 299 275 288.5 c 128
 293.666666667 281.5 307.333333333 276.333333333 316 273 c 128
 324.666666667 269.666666667 336.333333333 264.166666667 351 256.5 c 128
 365.666666667 248.833333333 376.666666667 241.666666667 384 235 c 128
 391.333333333 228.333333333 397.833333333 219.833333333 403.5 209.5 c 128
 409.166666667 199.166666667 412 188.333333333 412 177 c 0
 411.333333333 141 394.833333333 114 362.5 96 c 128
 330.166666667 78 285.333333333 69 228 69 c 0
 175.333333333 69 119.333333333 110.333333333 60 193 c 1
 15 129 l 1
 33.6666666667 109 48.5 93.5 59.5 82.5 c 128
 70.5 71.5 85.6666666667 58.1666666667 105 42.5 c 128
 124.333333333 26.8333333333 144.166666667 15.3333333333 164.5 8 c 128
 184.833333333 0.666666666667 206 -3 228 -3 c 0
 304.666666667 -3 366.166666667 12.3333333333 412.5 43 c 128
 458.833333333 73.6666666667 482.333333333 118 483 176 c 0
 483.666666667 200 478.833333333 222.166666667 468.5 242.5 c 128
 458.166666667 262.833333333 446.833333333 278.833333333 434.5 290.5 c 128
 422.166666667 302.166666667 404.333333333 313.666666667 381 325 c 128
 357.666666667 336.333333333 340 344.166666667 328 348.5 c 128
 316 352.833333333 297.666666667 358.666666667 273 366 c 0
 270.333333333 366.666666667 263.166666667 368.833333333 251.5 372.5 c 128
 239.833333333 376.166666667 229.833333333 379.333333333 221.5 382 c 128
 213.166666667 384.666666667 202.666666667 388.333333333 190 393 c 128
 177.333333333 397.666666667 166.5 402.333333333 157.5 407 c 128
 148.5 411.666666667 139.666666667 417 131 423 c 128
 122.333333333 429 115.666666667 435.5 111 442.5 c 128
 106.333333333 449.5 104 457 104 465 c 0
 104 485.666666667 118 504.333333333 146 521 c 128
 174 537.666666667 200.666666667 546 226 546 c 0
 253.333333333 546 278 543 300 537 c 128
 322 531 337.833333333 525.5 347.5 520.5 c 128
 357.166666667 515.5 372 506.666666667 392 494 c 1
EndSplineSet
Validated: 41
EndChar

StartChar: T
Encoding: 84 84 69
Width: 512
VWidth: 1024
GlyphClass: 2
Flags: W
LayerCount: 2
Fore
SplineSet
224 594 m 1
 296 594 l 1
 296 0 l 1
 224 0 l 1
 224 594 l 1
31 614 m 1
 481 614 l 1
 481 541 l 1
 31 541 l 1
 31 614 l 1
EndSplineSet
Validated: 5
EndChar

StartChar: U
Encoding: 85 85 70
Width: 512
VWidth: 1024
GlyphClass: 2
Flags: W
LayerCount: 2
Fore
SplineSet
31 614 m 1
 102 614 l 1
 102 191 l 2
 102.666666667 187.666666667 103.666666667 183.333333333 105 178 c 128
 106.333333333 172.666666667 110.5 163.333333333 117.5 150 c 128
 124.5 136.666666667 133 124.833333333 143 114.5 c 128
 153 104.166666667 167.833333333 94.6666666667 187.5 86 c 128
 207.166666667 77.3333333333 229.666666667 73 255 73 c 0
 277.666666667 73 302 83.8333333333 328 105.5 c 128
 354 127.166666667 374 148.666666667 388 170 c 2
 410 203 l 1
 410 614 l 1
 481 614 l 1
 481 0 l 1
 410 0 l 1
 410 98 l 1
 410 82.6666666667 393.166666667 62.5 359.5 37.5 c 128
 325.833333333 12.5 290 0 252 0 c 0
 147.333333333 0 78.6666666667 40.3333333333 46 121 c 0
 36 145.666666667 31 169 31 191 c 2
 31 614 l 1
EndSplineSet
Validated: 1
EndChar

StartChar: V
Encoding: 86 86 71
Width: 512
VWidth: 1024
GlyphClass: 2
Flags: W
LayerCount: 2
Fore
SplineSet
29 605 m 1
 98 637 l 1
 258.838669339 134.773370741 l 1
 407 636 l 1
 481 601 l 1
 302 0 l 1
 219 0 l 1
 29 605 l 1
EndSplineSet
Validated: 1
EndChar

StartChar: W
Encoding: 87 87 72
Width: 716
VWidth: 1024
GlyphClass: 2
Flags: W
LayerCount: 2
Fore
SplineSet
29 605 m 1
 98 637 l 1
 192.155544185 172.061382592 l 1
 322 636 l 1
 399 636 l 1
 528.930220531 172.48488743 l 1
 623 637 l 1
 693 606 l 1
 577 1 l 1
 494 0 l 1
 494.202511774 1 l 1
 494 1 l 1
 360.635433071 493.363372093 l 1
 227 0 l 1
 144 0 l 1
 29 605 l 1
EndSplineSet
Validated: 1
EndChar

StartChar: X
Encoding: 88 88 73
Width: 512
VWidth: 1024
GlyphClass: 2
Flags: W
LayerCount: 2
Fore
SplineSet
32 569 m 1
 82 616 l 1
 262 364 l 1
 433 614 l 1
 481 571 l 1
 305 308 l 1
 482 45 l 1
 430 -4 l 1
 257 255 l 1
 86 -4 l 1
 32 43 l 1
 214 311 l 1
 32 569 l 1
EndSplineSet
Validated: 1
EndChar

StartChar: Y
Encoding: 89 89 74
Width: 512
VWidth: 1024
GlyphClass: 2
Flags: W
LayerCount: 2
Fore
SplineSet
224 330 m 1
 296 330 l 1
 296 0 l 1
 224 0 l 1
 224 330 l 1
490 583 m 1
 297 330 l 1
 224 330 l 1
 436 614 l 1
 490 583 l 1
20 573 m 1
 78 614 l 1
 296 329 l 1
 224 330 l 1
 20 573 l 1
EndSplineSet
Validated: 5
EndChar

StartChar: Z
Encoding: 90 90 75
Width: 512
VWidth: 1024
GlyphClass: 2
Flags: W
LayerCount: 2
Fore
SplineSet
31 614 m 1
 31 543 l 1
 412 543 l 1
 31 111 l 1
 31 0 l 1
 481 0 l 1
 481 72 l 1
 96 72 l 1
 481 515 l 1
 481 614 l 1
 31 614 l 1
EndSplineSet
Validated: 9
EndChar

StartChar: bracketleft
Encoding: 91 91 76
Width: 409
VWidth: 1024
GlyphClass: 2
Flags: W
LayerCount: 2
Fore
SplineSet
59 614 m 1
 336 614 l 1
 336 543 l 1
 131 543 l 1
 131 72 l 1
 336 72 l 1
 336 0 l 1
 59 0 l 1
 59 614 l 1
EndSplineSet
Validated: 1
EndChar

StartChar: backslash
Encoding: 92 92 77
Width: 409
VWidth: 1024
GlyphClass: 2
Flags: W
LayerCount: 2
Fore
SplineSet
304 -15 m 1
 378 15 l 1
 116 597 l 1
 42 567 l 1
 304 -15 l 1
EndSplineSet
Validated: 9
EndChar

StartChar: bracketright
Encoding: 93 93 78
Width: 409
VWidth: 1024
GlyphClass: 2
Flags: W
LayerCount: 2
Fore
SplineSet
340 614 m 1
 63 614 l 1
 63 543 l 1
 268 543 l 1
 268 72 l 1
 63 72 l 1
 63 0 l 1
 340 0 l 1
 340 614 l 1
EndSplineSet
Validated: 9
EndChar

StartChar: asciicircum
Encoding: 94 94 79
Width: 409
VWidth: 1024
GlyphClass: 2
Flags: W
LayerCount: 2
Fore
SplineSet
43 535 m 1
 105 507 l 1
 198 698 l 1
 311 508 l 1
 371 545 l 1
 223 784 l 1
 166 784 l 1
 43 535 l 1
EndSplineSet
Validated: 9
EndChar

StartChar: underscore
Encoding: 95 95 80
Width: 409
VWidth: 1024
GlyphClass: 2
Flags: W
LayerCount: 2
Fore
SplineSet
37 0 m 1
 369 0 l 1
 369 -72 l 1
 37 -72 l 1
 37 0 l 1
EndSplineSet
Validated: 1
EndChar

StartChar: grave
Encoding: 96 96 81
Width: 204
VWidth: 1024
GlyphClass: 2
Flags: W
LayerCount: 2
Fore
SplineSet
30 702 m 1
 95 732 l 1
 162 549 l 1
 115 529 l 1
 30 702 l 1
EndSplineSet
Validated: 1
EndChar

StartChar: k
Encoding: 107 107 82
Width: 409
VWidth: 1024
GlyphClass: 2
Flags: W
LayerCount: 2
Fore
SplineSet
31 0 m 1
 102 0 l 1
 102 165.747440273 l 1
 330 0 l 1
 376 62 l 1
 141.791540523 230.211573989 l 1
 386 354 l 1
 346 418 l 1
 102 295.580756014 l 1
 102 819 l 1
 31 819 l 1
 31 0 l 1
EndSplineSet
Validated: 9
EndChar

StartChar: l
Encoding: 108 108 83
Width: 204
VWidth: 1024
GlyphClass: 2
Flags: W
LayerCount: 2
Fore
SplineSet
31 819 m 1
 103 819 l 1
 103 194 l 2
 103.666666667 167.333333333 114.666666667 139.666666667 136 111 c 128
 157.333333333 82.3333333333 176 68 192 68 c 0
 226.666666667 68 253.333333333 75.3333333333 272 90 c 1
 295 27 l 1
 269 13.6666666667 250.333333333 5.16666666667 239 1.5 c 128
 227.666666667 -2.16666666667 212 -4 192 -4 c 0
 156 -4 119.833333333 14.8333333333 83.5 52.5 c 128
 47.1666666667 90.1666666667 29 136.333333333 29 191 c 2
 31 819 l 1
EndSplineSet
Validated: 1
EndChar

StartChar: m
Encoding: 109 109 84
Width: 614
VWidth: 1024
GlyphClass: 2
Flags: W
LayerCount: 2
Fore
SplineSet
31 414 m 1
 102 414 l 1
 102 393.043102525 l 1
 102.564009213 393.431896582 103.064009213 393.750862407 103.5 394 c 0
 105.833333333 395.333333333 109.666666667 398 115 402 c 128
 120.333333333 406 124.666666667 408.666666667 128 410 c 128
 131.333333333 411.333333333 135.666666667 413.166666667 141 415.5 c 128
 146.333333333 417.833333333 151.333333333 419.5 156 420.5 c 128
 160.666666667 421.5 165.833333333 422.333333333 171.5 423 c 128
 177.166666667 423.666666667 183 424 189 424 c 0
 223.666666667 424 255.666666667 416.166666667 285 400.5 c 0
 297.651846919 393.742763577 308.443385117 385.34225445 317.374614592 375.298472618 c 1
 319.44716831 377.237828751 322.655630113 380.138337878 327 384 c 0
 333 389.333333333 337.166666667 392.666666667 339.5 394 c 128
 341.833333333 395.333333333 345.666666667 398 351 402 c 128
 356.333333333 406 360.666666667 408.666666667 364 410 c 128
 367.333333333 411.333333333 371.666666667 413.166666667 377 415.5 c 128
 382.333333333 417.833333333 387.333333333 419.5 392 420.5 c 128
 396.666666667 421.5 401.833333333 422.333333333 407.5 423 c 128
 413.166666667 423.666666667 419 424 425 424 c 0
 459.666666667 424 491.666666667 416.166666667 521 400.5 c 128
 550.333333333 384.833333333 569.666666667 360.333333333 579 327 c 0
 582.333333333 314.333333333 584 205.333333333 584 0 c 1
 512 0 l 1
 512 301 l 2
 512 315.666666667 507.333333333 327 498 335 c 128
 488.666666667 343 478.833333333 347.833333333 468.5 349.5 c 128
 458.166666667 351.166666667 444.333333333 352 427 352 c 0
 417.666666667 352 409.666666667 351.5 403 350.5 c 128
 396.333333333 349.5 389.666666667 346.666666667 383 342 c 128
 376.333333333 337.333333333 371.833333333 334 369.5 332 c 128
 367.166666667 330 362 324.5 354 315.5 c 0
 350.453129497 311.509770683 347.430437759 308.076481305 344.931924786 305.200131865 c 0
 346.977308262 262.57833703 348 160.844959742 348 0 c 1
 276 0 l 1
 276 301 l 2
 276 315.666666667 271.333333333 327 262 335 c 128
 252.666666667 343 242.833333333 347.833333333 232.5 349.5 c 128
 222.166666667 351.166666667 208.333333333 352 191 352 c 0
 181.666666667 352 173.666666667 351.5 167 350.5 c 128
 160.333333333 349.5 153.666666667 346.666666667 147 342 c 128
 140.333333333 337.333333333 135.833333333 334 133.5 332 c 128
 131.166666667 330 126 324.5 118 315.5 c 128
 110 306.5 104.666666667 300.333333333 102 297 c 1
 102 0 l 1
 31 0 l 1
 31 414 l 1
EndSplineSet
Validated: 1
EndChar

StartChar: p
Encoding: 112 112 85
Width: 409
VWidth: 1024
GlyphClass: 2
Flags: W
LayerCount: 2
Fore
SplineSet
102 -205 m 1
 31 -205 l 1
 31 175.12 l 2
 29.6666666667 186.373333333 29 198 29 210 c 128
 29 221.866666667 29.6666666667 233.373333333 31 244.52 c 2
 31 416 l 1
 102 416 l 1
 102 385.054476639 l 1
 131.029120391 410.351492213 165.362453724 423 205 423 c 0
 255.666666667 423 297.833333333 402.333333333 331.5 361 c 128
 365.166666667 319.666666667 382 269.333333333 382 210 c 128
 382 150.666666667 365.166666667 100.166666667 331.5 58.5 c 128
 297.833333333 16.8333333333 255.666666667 -4 205 -4 c 0
 165.362453724 -4 131.029120391 8.64850778717 102 33.9455233615 c 1
 102 -205 l 1
309 209 m 128
 309 251.666666667 300 286 282 312 c 128
 264 338 238.333333333 351 205 351 c 128
 171.666666667 351 145.833333333 338 127.5 312 c 0
 114.110798991 293.011678569 105.610798991 269.578628949 102 241.70085114 c 1
 102 176.335512496 l 1
 105.610798991 148.523385577 114.110798991 125.244881412 127.5 106.5 c 0
 145.833333333 80.8333333333 171.666666667 68 205 68 c 128
 238.333333333 68 264 80.8333333333 282 106.5 c 128
 300 132.166666667 309 166.333333333 309 209 c 128
EndSplineSet
Validated: 1
EndChar

StartChar: q
Encoding: 113 113 86
Width: 409
VWidth: 1024
GlyphClass: 2
Flags: W
LayerCount: 2
Fore
SplineSet
307 -205 m 1
 379 -205 l 1
 379 175.12 l 2
 380.333333333 186.373333333 381 198 381 210 c 128
 381 221.866666667 380.333333333 233.373333333 379 244.52 c 2
 379 416 l 1
 307 416 l 1
 307 385.919109373 l 1
 278.183350303 410.639703124 244.183350303 423 205 423 c 0
 154.333333333 423 112.166666667 402.333333333 78.5 361 c 128
 44.8333333333 319.666666667 28 269.333333333 28 210 c 128
 28 150.666666667 44.8333333333 100.166666667 78.5 58.5 c 128
 112.166666667 16.8333333333 154.333333333 -4 205 -4 c 0
 244.183350303 -4 278.183350303 8.36029687567 307 33.080890627 c 1
 307 -205 l 1
100 209 m 128
 100 251.666666667 109.166666667 286 127.5 312 c 128
 145.833333333 338 171.666666667 351 205 351 c 128
 238.333333333 351 264 338 282 312 c 0
 295.101020515 293.076303701 303.434353848 269.738082235 307 241.985335601 c 1
 307 176.051701436 l 1
 303.434353848 148.364985286 295.101020515 125.181084807 282 106.5 c 0
 264 80.8333333333 238.333333333 68 205 68 c 128
 171.666666667 68 145.833333333 80.8333333333 127.5 106.5 c 128
 109.166666667 132.166666667 100 166.333333333 100 209 c 128
EndSplineSet
Validated: 9
EndChar

StartChar: t
Encoding: 116 116 87
Width: 409
VWidth: 1024
GlyphClass: 2
Flags: W
LayerCount: 2
Fore
SplineSet
100 614 m 1
 172 614 l 1
 172 442 l 1
 377 442 l 1
 377 371 l 1
 172 371 l 1
 172 196 l 2
 172.666666667 168 180 140 194 112 c 128
 208 84 222.666666667 70 238 70 c 0
 259.333333333 70 276 74.8333333333 288 84.5 c 128
 300 94.1666666667 314.333333333 111.333333333 331 136 c 1
 380 82 l 1
 359.333333333 60.6666666667 344.333333333 45.6666666667 335 37 c 128
 325.666666667 28.3333333333 312.166666667 19.6666666667 294.5 11 c 128
 276.833333333 2.33333333333 258 -2 238 -2 c 0
 204 -2.66666666667 172.166666667 15.8333333333 142.5 53.5 c 128
 112.833333333 91.1666666667 98 138 98 194 c 2
 98.8428571429 371 l 1
 27 371 l 1
 27 442 l 1
 99.180952381 442 l 1
 100 614 l 1
EndSplineSet
Validated: 33
EndChar

StartChar: v
Encoding: 118 118 88
Width: 409
VWidth: 1024
GlyphClass: 2
Flags: W
LayerCount: 2
Fore
SplineSet
29 398 m 1
 99 423 l 1
 194 123 l 1
 311 420 l 1
 379 391 l 1
 224 0 l 1
 158 0 l 1
 29 398 l 1
EndSplineSet
Validated: 1
EndChar

StartChar: x
Encoding: 120 120 89
Width: 409
VWidth: 1024
GlyphClass: 2
Flags: W
LayerCount: 2
Fore
SplineSet
32 383 m 1
 82 430 l 1
 211 266 l 1
 331 430 l 1
 377 385 l 1
 254 211 l 1
 377 49 l 1
 325 0 l 1
 206 158 l 1
 86 0 l 1
 32 47 l 1
 163 214 l 1
 32 383 l 1
EndSplineSet
Validated: 1
EndChar

StartChar: y
Encoding: 121 121 90
Width: 409
VWidth: 1024
GlyphClass: 2
Flags: W
LayerCount: 2
Fore
SplineSet
31 410 m 1
 101 410 l 5
 101 119 l 6
 101 99.6666666667 111.833333333 84 133.5 72 c 0
 151.833333333 62 174 57 200 57 c 0
 225.333333333 57 245.5 62.8333333333 260.5 74.5 c 128
 275.5 86.1666666667 291 103.666666667 307 127 c 1
 307 410 l 1
 379 410 l 1
 379 -51 l 2
 379 -99.6666666667 363.5 -137.833333333 332.5 -165.5 c 128
 301.5 -193.166666667 262.333333333 -207 215 -207 c 0
 201.666666667 -207 188.5 -205.5 175.5 -202.5 c 128
 162.5 -199.5 151.666666667 -196.5 143 -193.5 c 128
 134.333333333 -190.5 123.333333333 -184.833333333 110 -176.5 c 128
 96.6666666667 -168.166666667 87.6666666667 -162.333333333 83 -159 c 128
 78.3333333333 -155.666666667 68.1666666667 -148 52.5 -136 c 128
 36.8333333333 -124 27.6666666667 -117 25 -115 c 1
 68 -58 l 1
 85.3333333333 -76.6666666667 99 -90.3333333333 109 -99 c 128
 119 -107.666666667 132.333333333 -115.5 149 -122.5 c 128
 165.666666667 -129.5 183.666666667 -133 203 -133 c 0
 237.666666667 -133 263.166666667 -128.833333333 279.5 -120.5 c 0
 297.833333333 -110.833333333 307 -92.6666666667 307 -66 c 2
 307 44 l 1
 281 22 262.666666667 8.5 252 3.5 c 128
 241.333333333 -1.5 223 -4 197 -4 c 0
 159 -4 122 8 86 32 c 0
 49.3333333333 56.6666666667 31 85.3333333333 31 118 c 2
 31 410 l 1
EndSplineSet
EndChar

StartChar: braceleft
Encoding: 123 123 91
Width: 409
VWidth: 1024
GlyphClass: 2
Flags: W
LayerCount: 2
Fore
SplineSet
298 616 m 1
 331 554 l 1
 300.333333333 544.666666667 270.666666667 530.333333333 242 511 c 0
 213.333333333 493 199.666666667 468.666666667 201 438 c 2
 203 360 l 1
 91 302 l 1
 210 229 l 1
 216 127 l 2
 216.666666667 104.333333333 228 85.3333333333 250 70 c 0
 261.333333333 62 290 58 336 58 c 1
 313 -10 l 2
 311 -10 311 -10 301.5 -10 c 128
 295.166666667 -10 291.166666667 -9.83333333333 289.5 -9.5 c 128
 287.833333333 -9.16666666667 284.166666667 -9 278.5 -9 c 128
 272.833333333 -9 269 -8.83333333333 267 -8.5 c 128
 265 -8.16666666667 261.5 -7.66666666667 256.5 -7 c 128
 251.5 -6.33333333333 247.833333333 -5.66666666667 245.5 -5 c 128
 243.166666667 -4.33333333333 239.833333333 -3.5 235.5 -2.5 c 128
 231.166666667 -1.5 227.5 -0.333333333333 224.5 1 c 128
 221.5 2.33333333333 218.166666667 4 214.5 6 c 128
 210.833333333 8 207.333333333 10 204 12 c 0
 167.333333333 34.6666666667 147.333333333 69.6666666667 144 117 c 1
 144 193 l 1
 23 270 l 1
 23 342 l 1
 129 397 l 1
 129 438 l 1
 132.333333333 463.333333333 136.166666667 481.5 140.5 492.5 c 128
 144.833333333 503.5 153.666666667 519 167 539 c 0
 175 550.333333333 184.666666667 560.333333333 196 569 c 128
 207.333333333 577.666666667 216.333333333 583.666666667 223 587 c 128
 229.666666667 590.333333333 242.333333333 595.333333333 261 602 c 128
 279.666666667 608.666666667 292 613.333333333 298 616 c 1
EndSplineSet
Validated: 33
EndChar

StartChar: bar
Encoding: 124 124 92
Width: 133
VWidth: 1024
GlyphClass: 2
Flags: W
LayerCount: 2
Fore
SplineSet
31 820 m 1
 103 820 l 1
 103 0 l 1
 31 0 l 1
 31 820 l 1
EndSplineSet
Validated: 1
EndChar

StartChar: braceright
Encoding: 125 125 93
Width: 409
VWidth: 1024
GlyphClass: 2
Flags: W
LayerCount: 2
Fore
SplineSet
116 616 m 1
 83 554 l 1
 113.666666667 544.666666667 143.333333333 530.333333333 172 511 c 0
 200.666666667 493 214.333333333 468.666666667 213 438 c 2
 211 360 l 1
 323 302 l 1
 204 229 l 1
 198 127 l 2
 197.333333333 104.333333333 186 85.3333333333 164 70 c 0
 152.666666667 62 124 58 78 58 c 1
 100 -10 l 2
 102 -10 102 -10 111.5 -10 c 128
 117.833333333 -10 121.833333333 -9.83333333333 123.5 -9.5 c 128
 125.166666667 -9.16666666667 128.833333333 -9 134.5 -9 c 128
 140.166666667 -9 144 -8.83333333333 146 -8.5 c 128
 148 -8.16666666667 151.5 -7.66666666667 156.5 -7 c 128
 161.5 -6.33333333333 165.333333333 -5.66666666667 168 -5 c 128
 170.666666667 -4.33333333333 174.166666667 -3.5 178.5 -2.5 c 128
 182.833333333 -1.5 186.5 -0.333333333333 189.5 1 c 128
 192.5 2.33333333333 195.833333333 4 199.5 6 c 128
 203.166666667 8 206.666666667 10 210 12 c 0
 246 34 265.666666667 69 269 117 c 1
 269 193 l 1
 391 270 l 1
 391 342 l 1
 285 397 l 1
 285 438 l 1
 281.666666667 463.333333333 277.833333333 481.5 273.5 492.5 c 128
 269.166666667 503.5 260.333333333 519 247 539 c 0
 239 550.333333333 229.333333333 560.333333333 218 569 c 128
 206.666666667 577.666666667 197.666666667 583.666666667 191 587 c 128
 184.333333333 590.333333333 171.666666667 595.333333333 153 602 c 128
 134.333333333 608.666666667 122 613.333333333 116 616 c 1
EndSplineSet
Validated: 41
EndChar

StartChar: asciitilde
Encoding: 126 126 94
Width: 409
VWidth: 1024
GlyphClass: 2
Flags: W
LayerCount: 2
Fore
SplineSet
31 295 m 5
 57 228 l 5
 62.3333333333 231.333333333 70 236.166666667 80 242.5 c 132
 90 248.833333333 97.6666666667 253.666666667 103 257 c 132
 108.333333333 260.333333333 115.333333333 263.333333333 124 266 c 132
 132.666666667 268.666666667 141.333333333 270 150 270 c 4
 162 270 181.333333333 258.833333333 208 236.5 c 132
 234.666666667 214.166666667 255.666666667 203 271 203 c 4
 295.666666667 203 334 226 386 272 c 5
 371 343 l 5
 368.333333333 341 359 333.166666667 343 319.5 c 132
 327 305.833333333 312.666666667 294.833333333 300 286.5 c 132
 287.333333333 278.166666667 277 274 269 274 c 4
 258.333333333 274 240 285.333333333 214 308 c 132
 188 330.666666667 166.666666667 342 150 342 c 4
 116 342 76.3333333333 326.333333333 31 295 c 5
EndSplineSet
Validated: 9
EndChar

StartChar: exclamdown
Encoding: 161 161 96
Width: 133
VWidth: 1024
Flags: W
LayerCount: 2
Fore
SplineSet
31 1 m 5
 102 1 l 5
 102 459 l 5
 31 459 l 5
 31 1 l 5
31 513 m 5
 102 513 l 5
 102 584 l 5
 31 584 l 5
 31 513 l 5
EndSplineSet
Validated: 9
EndChar

StartChar: cent
Encoding: 162 162 97
Width: 409
VWidth: 1024
Flags: W
LayerCount: 2
Fore
SplineSet
171 60 m 5
 241 60 l 5
 241 -93 l 5
 171 -93 l 5
 171 60 l 5
171 520 m 1
 241 520 l 1
 241 367 l 1
 171 367 l 1
 171 520 l 1
325 303 m 1
 305.666666667 314.333333333 291.166666667 322.5 281.5 327.5 c 128
 271.833333333 332.5 260 337.166666667 246 341.5 c 128
 232 345.833333333 218.333333333 348 205 348 c 0
 171.666666667 348 145.833333333 335.166666667 127.5 309.5 c 128
 109.166666667 283.833333333 100 249.666666667 100 207 c 128
 100 164.333333333 109.166666667 130 127.5 104 c 128
 145.833333333 78 171.666666667 65 205 65 c 0
 226.333333333 65 249 69.6666666667 273 79 c 128
 297 88.3333333333 316 98.3333333333 330 109 c 1
 378 55 l 1
 327.333333333 13 269.666666667 -8 205 -8 c 0
 154.333333333 -8 112.166666667 12.8333333333 78.5 54.5 c 128
 44.8333333333 96.1666666667 28 146.666666667 28 206 c 128
 28 265.333333333 44.8333333333 315.833333333 78.5 357.5 c 128
 112.166666667 399.166666667 154.333333333 420 205 420 c 0
 230.333333333 420 260 413 294 399 c 128
 328 385 356.666666667 368 380 348 c 1
 325 303 l 1
EndSplineSet
EndChar

StartChar: yen
Encoding: 165 165 98
Width: 512
VWidth: 1024
Flags: W
LayerCount: 2
Fore
SplineSet
91 195 m 5
 429 195 l 5
 429 124 l 1
 91 124 l 1
 91 195 l 5
92 327 m 5
 430 327 l 5
 430 256 l 1
 92 256 l 1
 92 327 l 5
224 330 m 1
 296 330 l 1
 296 0 l 1
 224 0 l 1
 224 330 l 1
490 583 m 1
 297 330 l 1
 224 330 l 1
 436 614 l 1
 490 583 l 1
20 573 m 1
 78 614 l 1
 296 329 l 1
 224 330 l 1
 20 573 l 1
EndSplineSet
Validated: 5
EndChar

StartChar: brokenbar
Encoding: 166 166 99
Width: 133
VWidth: 1024
Flags: W
LayerCount: 2
Fore
SplineSet
31 366 m 5
 103 366 l 5
 103 0 l 5
 31 0 l 5
 31 366 l 5
31 820 m 1
 103 820 l 1
 103 454 l 1
 31 454 l 1
 31 820 l 1
EndSplineSet
Validated: 1
EndChar

StartChar: dieresis
Encoding: 168 168 100
Width: 409
VWidth: 1024
Flags: W
LayerCount: 2
Fore
SplineSet
254 538 m 5
 325 538 l 5
 325 467 l 5
 254 467 l 5
 254 538 l 5
85 538 m 5
 156 538 l 5
 156 467 l 5
 85 467 l 5
 85 538 l 5
85 538 m 5
 156 538 l 5
 156 467 l 5
 85 467 l 5
 85 538 l 5
EndSplineSet
Validated: 5
EndChar

StartChar: ordfeminine
Encoding: 170 170 101
Width: 409
VWidth: 1024
Flags: W
LayerCount: 2
Fore
SplineSet
120.919921875 593.870117188 m 132
 120.919921875 559.310221355 128.345052083 531.500325521 143.1953125 510.440429688 c 132
 158.044921875 489.379882813 178.969726562 478.849609375 205.969726562 478.849609375 c 132
 232.969726562 478.849609375 253.354817708 489.244791667 267.125 510.03515625 c 132
 280.895182292 530.824869791 287.780273438 558.769856771 287.780273438 593.870117188 c 132
 287.780273438 628.969726563 280.895182292 656.779622396 267.125 677.299804688 c 132
 253.354817708 697.819986979 232.969726562 708.080078125 205.969726562 708.080078125 c 132
 178.969726562 708.080078125 158.044921875 697.684895833 143.1953125 676.89453125 c 132
 128.345052083 656.104817709 120.919921875 628.430013021 120.919921875 593.870117188 c 132
62.599609375 593.059570312 m 132
 62.599609375 641.120117187 76.2347005207 682.025390625 103.504882812 715.775390625 c 132
 130.775065104 749.525390625 164.930013021 766.400390625 205.969726562 766.400390625 c 4
 237.381835937 766.400390625 264.652018229 756.330403646 287.780273438 736.190429688 c 5
 287.780273438 761.540039062 l 5
 346.099609375 761.540039062 l 5
 346.099609375 613.325195312 l 6
 346.639973958 606.722981771 346.91015625 599.967773437 346.91015625 593.059570312 c 132
 346.91015625 586.152018229 346.639973958 579.397135417 346.099609375 572.794921875 c 6
 346.099609375 426.200195312 l 5
 287.780273438 426.200195312 l 5
 287.780273438 449.9296875 l 5
 264.652018229 429.789713541 237.381835937 419.719726562 205.969726562 419.719726562 c 4
 164.930013021 419.719726562 130.775065104 436.594726562 103.504882812 470.344726562 c 132
 76.2347005207 504.094726562 62.599609375 544.999674479 62.599609375 593.059570312 c 132
EndSplineSet
EndChar

StartChar: guillemotleft
Encoding: 171 171 102
Width: 659
VWidth: 1024
Flags: W
LayerCount: 2
Fore
SplineSet
333 416 m 5
 374 354 l 5
 112 219 l 5
 374 29 l 5
 329 -27 l 5
 26 197 l 5
 26 248 l 5
 333 416 l 5
592 416 m 5
 633 354 l 5
 371 219 l 5
 633 29 l 5
 588 -27 l 5
 285 197 l 5
 285 248 l 5
 592 416 l 5
EndSplineSet
Validated: 1
EndChar

StartChar: uni00AD
Encoding: 173 173 103
Width: 409
VWidth: 1024
Flags: W
LayerCount: 2
Fore
SplineSet
37 241 m 1
 369 241 l 1
 369 169 l 1
 37 169 l 1
 37 241 l 1
EndSplineSet
Validated: 1
EndChar

StartChar: macron
Encoding: 175 175 104
Width: 409
VWidth: 1024
Flags: W
LayerCount: 2
Fore
SplineSet
30 609 m 1
 370 609 l 5
 370 539 l 5
 30 539 l 1
 30 609 l 1
EndSplineSet
Validated: 1
EndChar

StartChar: degree
Encoding: 176 176 105
Width: 409
VWidth: 1024
Flags: W
LayerCount: 2
Fore
SplineSet
158 596.5 m 128
 158 586.833333333 160.666666667 578.166666667 166 570.5 c 128
 171.333333333 562.833333333 180.333333333 559 193 559 c 0
 201.666666667 559 209.75 563.083333333 217.25 571.25 c 0
 222.416666667 577.083333333 225 584.666666667 225 594 c 4
 225 605.185185185 223.333333333 613.185185185 220 618 c 4
 214 626.666666667 203.333333333 631 188 631 c 0
 179.333333333 630.333333333 172.166666667 627 166.5 621 c 0
 160.833333333 614.333333333 158 606.166666667 158 596.5 c 128
104 597 m 128
 104 621 112.333333333 641.333333333 129 658 c 128
 145.666666667 674.666666667 166 683 190 683 c 128
 214 683 234.333333333 674.666666667 251 658 c 128
 267.666666667 641.333333333 276 621 276 597 c 128
 276 573 267.666666667 552.666666667 251 536 c 128
 234.333333333 519.333333333 214 511 190 511 c 128
 166 511 145.666666667 519.333333333 129 536 c 128
 112.333333333 552.666666667 104 573 104 597 c 128
EndSplineSet
Validated: 1
EndChar

StartChar: plusminus
Encoding: 177 177 106
Width: 409
VWidth: 1024
Flags: W
LayerCount: 2
Fore
SplineSet
37 99 m 5
 369 99 l 5
 369 27 l 5
 37 27 l 5
 37 99 l 5
243 30 m 1
 171 30 l 1
 171 361 l 1
 243 361 l 1
 243 30 l 1
37 241 m 1
 369 241 l 1
 369 169 l 1
 37 169 l 1
 37 241 l 1
EndSplineSet
Validated: 5
EndChar

StartChar: acute
Encoding: 180 180 107
Width: 409
VWidth: 1024
Flags: W
LayerCount: 2
Fore
SplineSet
63.232421875 471.681640625 m 5
 378.595703125 581.69140625 l 5
 352 647 l 5
 36.63671875 536.989257812 l 5
 63.232421875 471.681640625 l 5
EndSplineSet
Validated: 9
EndChar

StartChar: mu
Encoding: 181 181 108
Width: 409
VWidth: 1024
Flags: W
LayerCount: 2
Fore
SplineSet
31 414 m 25
 102 414 l 25
 101 -90 l 26
 101 -127.333333333 88 -156 62 -176 c 0
 31.3333333333 -200.666666667 2.33333333333 -213 -25 -213 c 25
 -42 -145 l 1
 -18.7618052515 -143.165405678 -1.42847191817 -137.832072345 10 -129 c 4
 24.6666666667 -117.666666667 32 -104.666666667 32 -90 c 2
 31 414 l 25
379 0 m 1
 307 0 l 1
 307 24.6121491324 l 1
 272.051721941 1.53738304413 238.051721941 -10 205 -10 c 0
 169 -10 134.166666667 -2.16666666667 100.5 13.5 c 128
 66.8333333333 29.1666666667 45.3333333333 53.6666666667 36 87 c 0
 32.6666666667 99.6666666667 31 208.666666667 31 414 c 1
 102 414 l 1
 102 113 l 2
 102.666666667 78.3333333333 136.333333333 61 203 61 c 0
 225.666666667 61 244 65.3333333333 258 74 c 128
 272 82.6666666667 288.333333333 97 307 117 c 1
 307 414 l 1
 379 414 l 1
 379 0 l 1
EndSplineSet
Validated: 5
EndChar

StartChar: periodcentered
Encoding: 183 183 109
Width: 133
VWidth: 1024
Flags: W
LayerCount: 2
Fore
SplineSet
31 443 m 5
 102 443 l 5
 102 372 l 5
 31 372 l 5
 31 443 l 5
EndSplineSet
Validated: 1
EndChar

StartChar: cedilla
Encoding: 184 184 110
Width: 409
VWidth: 1024
Flags: W
LayerCount: 2
Fore
SplineSet
41 -174 m 5
 69 -112 l 5
 69 -116 70 -119.666666667 72 -123 c 4
 76.6666666667 -129.666666667 86.0631510417 -135.426106771 100.189453125 -140.278320312 c 4
 118.063151042 -146.759440104 143 -150 175 -150 c 7
 240.333333333 -150 273 -140.666666667 273 -122 c 7
 273 -99.3333333333 223.666666667 -88 125 -88 c 29
 125 0 l 5
 195 0 l 29
 195 -36 l 21
 293.666666667 -36 343 -64.6666666667 343 -122 c 4
 343 -187.333333333 287 -220 175 -220 c 31
 125.666666667 -220 81 -204.666666667 41 -174 c 5
EndSplineSet
Validated: 1
EndChar

StartChar: ordmasculine
Encoding: 186 186 111
Width: 409
VWidth: 1024
Flags: W
LayerCount: 2
Fore
SplineSet
167 615.5 m 132
 167 605.833333333 169.666666667 597.166666667 175 589.5 c 132
 180.333333333 581.833333333 189.333333333 578 202 578 c 4
 210.666666667 578 218.75 582.083333333 226.25 590.25 c 4
 231.416666667 596.083333333 234 603.666666667 234 613 c 4
 234 624.184895833 232.333333333 632.184895833 229 637 c 4
 223 645.666666667 212.333333333 650 197 650 c 4
 188.333333333 649.333333333 181.166666667 646 175.5 640 c 4
 169.833333333 633.333333333 167 625.166666667 167 615.5 c 132
113 616 m 132
 113 640 121.333333333 660.333333333 138 677 c 132
 154.666666667 693.666666667 175 702 199 702 c 132
 223 702 243.333333333 693.666666667 260 677 c 132
 276.666666667 660.333333333 285 640 285 616 c 132
 285 592 276.666666667 571.666666667 260 555 c 132
 243.333333333 538.333333333 223 530 199 530 c 132
 175 530 154.666666667 538.333333333 138 555 c 132
 121.333333333 571.666666667 113 592 113 616 c 132
EndSplineSet
EndChar

StartChar: guillemotright
Encoding: 187 187 112
Width: 659
VWidth: 1024
Flags: W
LayerCount: 2
Fore
SplineSet
332 416 m 1
 291 354 l 1
 553 219 l 1
 291 29 l 1
 336 -27 l 1
 639 197 l 1
 639 248 l 1
 332 416 l 1
73 416 m 1
 32 354 l 1
 294 219 l 1
 32 29 l 1
 77 -27 l 1
 380 197 l 1
 380 248 l 1
 73 416 l 1
EndSplineSet
Validated: 9
EndChar

StartChar: questiondown
Encoding: 191 191 113
Width: 409
VWidth: 1024
Flags: W
LayerCount: 2
Fore
SplineSet
246 509 m 5
 175 509 l 5
 175 580 l 5
 246 580 l 5
 246 509 l 5
377 95 m 5
 343 141 l 5
 335 135 325.333333333 126.666666667 314 116 c 132
 302.666666667 105.333333333 294.166666667 97.8333333333 288.5 93.5 c 132
 282.833333333 89.1666666667 275.5 84.3333333333 266.5 79 c 132
 257.5 73.6666666667 248.5 70 239.5 68 c 132
 230.5 66 220 65 208 65 c 4
 183.333333333 65 158.666666667 78 134 104 c 132
 109.333333333 130 97 157.333333333 97 186 c 4
 97 197.333333333 99.3333333333 207.833333333 104 217.5 c 132
 108.666666667 227.166666667 113.666666667 235.333333333 119 242 c 132
 124.333333333 248.666666667 133.333333333 255.833333333 146 263.5 c 132
 158.666666667 271.166666667 168.5 276.666666667 175.5 280 c 132
 182.5 283.333333333 194.666666667 288.666666667 212 296 c 132
 229.333333333 303.333333333 240.666666667 308.333333333 246 311 c 5
 246 475 l 5
 176 475 l 5
 176 352 l 5
 75.3333333333 302.666666667 25 247.333333333 25 186 c 4
 25 139.333333333 44.3333333333 95.8333333333 83 55.5 c 132
 121.666666667 15.1666666667 162.333333333 -5 205 -5 c 4
 226.333333333 -5 248.5 0.833333333333 271.5 12.5 c 132
 294.5 24.1666666667 313 36 327 48 c 132
 341 60 357.666666667 75.6666666667 377 95 c 5
EndSplineSet
Validated: 9
EndChar

StartChar: AE
Encoding: 198 198 120
Width: 758
VWidth: 1024
Flags: W
LayerCount: 2
Fore
SplineSet
452 270 m 1
 256 270 l 1
 256 341 l 1
 452 341 l 1
 452 270 l 1
379.9140625 591.897460938 m 1
 447.08203125 551.122070312 l 1
 78.3203125 -17.8232421875 l 1
 11.1533203125 22.951171875 l 1
 379.9140625 591.897460938 l 1
452 521 m 1
 452 341 l 1
 731 341 l 1
 731 270 l 1
 452 270 l 1
 452 71 l 1
 731 71 l 1
 731 0 l 1
 452 0 l 1
 396 0 l 1
 380 0 l 1
 380 592 l 1
 396 592 l 1
 452 592 l 1
 731 592 l 1
 731 521 l 1
 452 521 l 1
EndSplineSet
Validated: 5
EndChar

StartChar: Eth
Encoding: 208 208 130
Width: 512
VWidth: 1024
Flags: W
LayerCount: 2
Fore
SplineSet
0 340 m 1
 0 270 l 1
 191 270 l 5
 191 340 l 5
 0 340 l 1
31 614 m 1
 31 543 l 1
 242 543 l 2
 302.666666667 541.666666667 345.833333333 523 371.5 487 c 128
 397.166666667 451 410 390 410 304 c 0
 410 234 395 178.333333333 365 137 c 128
 335 95.6666666667 296 74.3333333333 248 73 c 2
 31 72 l 1
 31 0 l 1
 248 0 l 2
 312 0 366.833333333 28.6666666667 412.5 86 c 128
 458.166666667 143.333333333 481 217 481 307 c 0
 481 406.333333333 461.166666667 482.333333333 421.5 535 c 128
 381.833333333 587.666666667 324.666666667 614 250 614 c 2
 31 614 l 1
31 614 m 1
 31 0 l 1
 102 0 l 1
 102 614 l 1
 31 614 l 1
EndSplineSet
Validated: 5
EndChar

StartChar: multiply
Encoding: 215 215 137
Width: 409
VWidth: 1024
Flags: W
LayerCount: 2
Fore
SplineSet
32 375 m 5
 82 422 l 5
 211 258 l 5
 331 422 l 5
 377 377 l 5
 254 203 l 5
 377 41 l 5
 325 -8 l 5
 206 150 l 5
 86 -8 l 5
 32 39 l 5
 163 206 l 5
 32 375 l 5
EndSplineSet
Validated: 1
EndChar

StartChar: Oslash
Encoding: 216 216 138
Width: 512
VWidth: 1024
Flags: W
LayerCount: 2
Fore
SplineSet
432.309570312 587.8203125 m 5
 488.663085938 546.296875 l 5
 91.47265625 17.966796875 l 5
 35.119140625 59.4912109375 l 5
 432.309570312 587.8203125 l 5
99 306 m 128
 99 234 113.333333333 176.5 142 133.5 c 128
 170.666666667 90.5 208.666666667 69 256 69 c 0
 304 69 342.166666667 89.5 370.5 130.5 c 128
 398.833333333 171.5 413 230 413 306 c 0
 413 375.333333333 398.5 432.166666667 369.5 476.5 c 128
 340.5 520.833333333 302.666666667 543 256 543 c 0
 208.666666667 543 170.666666667 521.5 142 478.5 c 128
 113.333333333 435.5 99 378 99 306 c 128
28 306 m 0
 28 362.666666667 35.8333333333 413.5 51.5 458.5 c 128
 67.1666666667 503.5 92.6666666667 540.666666667 128 570 c 128
 163.333333333 599.333333333 206 614 256 614 c 0
 331.333333333 614 388.166666667 585.5 426.5 528.5 c 128
 464.833333333 471.5 484 397.333333333 484 306 c 0
 484 208.666666667 465 132.666666667 427 78 c 128
 389 23.3333333333 332 -4 256 -4 c 0
 181.333333333 -4 124.666666667 25 86 83 c 128
 47.3333333333 141 28 215.333333333 28 306 c 0
EndSplineSet
EndChar

StartChar: Thorn
Encoding: 222 222 144
Width: 512
VWidth: 1024
Flags: W
LayerCount: 2
Fore
SplineSet
31 614 m 1
 31 0 l 1
 94 0 l 1
 94 614 l 1
 31 614 l 1
56 413 m 5
 263 412 l 6
 318.333333333 412 356.833333333 403.166666667 378.5 385.5 c 4
 399.5 368.5 410 342 410 306 c 4
 410 280.666666667 398.833333333 259.166666667 376.5 241.5 c 4
 354.401503 224.019099388 323.568169667 215.185766055 284 215 c 6
 71 214 l 5
 73 142 l 5
 286 141 l 6
 335.333333333 141 380.166666667 156.833333333 420.5 188.5 c 132
 460.833333333 220.166666667 481 259 481 305 c 4
 481 362.333333333 461 406.5 421 437.5 c 132
 381 468.5 329.666666667 484 267 484 c 6
 56 484 l 5
 56 413 l 5
EndSplineSet
EndChar

StartChar: germandbls
Encoding: 223 223 145
Width: 409
VWidth: 1024
InSpiro: 1
Flags: W
LayerCount: 2
Fore
SplineSet
157 95 m 1
 126 35 l 1
 156 10.3333333333 190.666666667 -1.33333333333 230 8.881784197e-16 c 0
 272.574718483 1.49823333048 308.400801796 17.7154797647 337.478249937 48.6517393028 c 128
 366.700089292 79.7416204382 380.540672646 116.524374004 379 159 c 0
 377.572172457 198.364539158 363.05259931 232.051418915 335.441280559 260.060639271 c 128
 307.79965686 288.100601294 274.319230007 303.080388204 235 305 c 1
 278.333333333 336.333333333 301.333333333 379 304 433 c 0
 306.037272929 475.092842705 294.064894721 512.505636814 268.082865377 545.238382329 c 128
 240.920091221 579.458656741 206.892469429 598.712529298 166 603 c 0
 145.2875258 605.171649879 125.67604296 602.646630894 107.165551481 595.424943045 c 128
 88.0740945187 587.976597175 72.1514287334 576.317893094 59.397554125 560.448830802 c 128
 47.2869399233 545.380147985 38.9803007682 527.428427272 34.4776366596 506.593668663 c 128
 31.4925455532 492.781034382 30 472.916478161 30 447 c 2
 30 0 l 1
 100 0 l 1
 100 451 l 2
 100 463.759383881 100.604008215 473.513990454 101.812024645 480.263819719 c 128
 103.665675754 490.621152779 107.168893249 499.686241294 112.32167713 507.459085265 c 128
 117.901410725 515.875972067 125.05258232 522.410138814 133.775191914 527.061585505 c 128
 142.499081336 531.713714682 151.907350698 534.026519513 162 534 c 0
 173.548357321 533.969655458 184.519575325 530.918444549 194.913654012 524.846367274 c 128
 204.770753441 519.087985868 213.027879779 511.198077347 219.685033028 501.17664171 c 0
 232.204620345 482.330111697 236.976276003 460.271231127 234 435 c 0
 230.987778962 409.423563545 220.575917403 385.886371206 202.764415324 364.388422983 c 128
 185.861065069 343.986586743 164.939593294 328.857112415 140 319 c 1
 136 249 l 1
 158.666666667 253.666666667 181.333333333 254.333333333 204 251 c 0
 232.412343389 246.87410331 255.928335588 237.096465077 274.547976596 221.667085302 c 0
 284.933720001 213.060819521 293.0863647 203.178251545 299.005910695 192.019381372 c 128
 305.264774196 180.220867549 308.596137298 167.881073759 309 155 c 0
 309.738551449 131.444134004 301.582482781 111.356511391 284.531793995 94.7371321606 c 128
 268.11218881 78.7328728129 247.934924145 70.4871620927 224 70 c 0
 198.666666667 69.3333333333 176.333333333 77.6666666667 157 95 c 1
EndSplineSet
EndChar

StartChar: ae
Encoding: 230 230 152
Width: 609
VWidth: 1024
InSpiro: 1
Flags: W
LayerCount: 2
Fore
SplineSet
314.553710938 170 m 1
 591 170 l 1
 594 170 l 1
 593 205 l 1
 593 206 l 2
 593 217.807942708 592.333333333 229.265950521 591 240.374023438 c 2
 591 242 l 1
 590.799804688 242 l 1
 585.239257813 286.030598959 569.139322917 324.530598959 542.5 357.5 c 0
 508.833333333 399.166666667 466.666666667 420 416 420 c 128
 365.333333333 420 323.333333333 399.333333333 290 358 c 128
 256.666666667 316.666666667 240 266 240 206 c 128
 240 146 256.666666667 95.3333333333 290 54 c 128
 323.333333333 12.6666666667 365.333333333 -8 416 -8 c 0
 464 -8 503.666666667 8.66666666667 535 42 c 1
 488 96 l 1
 470.666666667 75.3333333333 446.666666667 65 416 65 c 0
 382.666666667 65 357 78 339 104 c 0
 326.535807292 122.00390625 318.387044271 144.00390625 314.553710938 170 c 1
518.68359375 242 m 1
 314.274414062 242 l 1
 317.982096354 268.782552083 326.223958333 291.282552083 339 309.5 c 0
 357 335.166666667 382.666666667 348 416 348 c 128
 449.333333333 348 475.166666667 335.166666667 493.5 309.5 c 0
 506.512369792 291.282552083 514.906901042 268.782552083 518.68359375 242 c 1
234 150 m 1
 234 138.666666667 232 128 228 118 c 0
 221.343835473 99.7394513299 210.591252267 85.3641791394 195.742250383 74.8741834285 c 0
 179.401973568 63.3306847444 162.154556773 59.0392902682 144 62 c 0
 129.525434113 64.3605637207 117.825209139 70.9325743764 108.899325078 81.7160319672 c 0
 99.6530901391 92.8865089368 95.6866484465 105.647831614 97 120 c 0
 98.4431983504 135.771120598 105.78872716 148.909148889 119.036586429 159.414084872 c 0
 130.878088268 168.803844851 145.199226125 173.999149893 162 175 c 0
 188.666666667 176.333333333 212.666666667 168 234 150 c 1
15 355 m 1
 49 306 l 1
 77.06357132 325.379798453 107.151675709 335.06969768 139.264313167 335.06969768 c 0
 147.337072712 335.06969768 155.248968323 334.379798453 163 333 c 0
 181.753831429 329.661540209 197.735363206 322.606632647 210.944595331 311.835277315 c 0
 225.405970829 300.04287238 234.757772385 285.431113275 239 268 c 0
 241 260 241.666666667 249.666666667 241 237 c 2
 240 217 l 1
 217.333333333 235 191.333333333 244.333333333 162 245 c 0
 161.322563175 245.01109556 160.645181722 245.01663785 159.967855639 245.01662687 c 0
 125.653232328 245.01662687 95.7213486172 233.205035716 70.1722045077 209.581853407 c 0
 44.1740214948 185.543481931 29.7832866589 156.016197462 27 121 c 0
 26.7372185996 117.693978547 26.6058278994 114.372877759 26.6058278994 111.036697638 c 0
 26.6058278994 78.9613177572 36.7804884832 51.6210358018 57.1298096509 29.0158517718 c 0
 79.4093830292 4.26643373576 107.416866501 -8.10827528226 141.152260066 -8.10827528226 c 0
 142.772595048 -8.10827528226 144.388508359 -8.07218352151 146 -8 c 0
 171.775967217 -6.84541747701 196.361487063 2.23989795793 219.756559538 19.2559463048 c 0
 240.092667436 34.0471035256 257.840480923 53.6284547573 273 78 c 0
 275.666666667 82 278 86 280 90 c 2
 309 170 l 1
 311 233 l 2
 311.262013047 241.253410984 311.393019571 248.058168115 311.393019571 253.414271393 c 0
 311.393019571 270.608725474 310.064591314 285.340121263 307.4077348 297.608458762 c 0
 302.582455906 319.88973353 293.2124884 339.133749068 279.297832283 355.340505377 c 128
 265.334708798 371.603712869 247.758812749 383.828246611 226.570144136 392.014106603 c 0
 207.609768896 399.339105636 186.692239975 403.001605152 163.817557373 403.001605152 c 0
 163.545018873 403.001605152 163.272499749 403.001070101 163 403 c 0
 111.666666667 403 62.3333333333 387 15 355 c 1
EndSplineSet
EndChar

StartChar: eth
Encoding: 240 240 162
Width: 409
VWidth: 1024
Flags: W
LayerCount: 2
Fore
SplineSet
51.0634765625 497.641601562 m 1
 77.4638671875 432.810546875 l 1
 331.229492188 536.1484375 l 1
 304.830078125 600.979492188 l 1
 51.0634765625 497.641601562 l 1
99 210 m 128
 99 252.666666667 108 287 126 313 c 128
 144 339 169.666666667 352 203 352 c 128
 236.333333333 352 262.166666667 339 280.5 313 c 128
 298.833333333 287 308 252.666666667 308 210 c 128
 308 167.333333333 298.833333333 133.166666667 280.5 107.5 c 128
 262.166666667 81.8333333333 236.333333333 69 203 69 c 128
 169.666666667 69 144 81.8333333333 126 107.5 c 128
 108 133.166666667 99 167.333333333 99 210 c 128
26 211 m 128
 26 151.666666667 42.8333333333 101.166666667 76.5 59.5 c 128
 110.166666667 17.8333333333 152.333333333 -3 203 -3 c 128
 253.666666667 -3 295.833333333 17.8333333333 329.5 59.5 c 128
 363.166666667 101.166666667 380 151.666666667 380 211 c 0
 380 226.333333333 379.833333333 246.833333333 379.5 272.5 c 128
 379.166666667 298.166666667 378.833333333 316.166666667 378.5 326.5 c 128
 378.166666667 336.833333333 377.166666667 350.833333333 375.5 368.5 c 128
 373.833333333 386.166666667 371.333333333 400.333333333 368 411 c 128
 364.666666667 421.666666667 360 434.333333333 354 449 c 128
 348 463.666666667 340.333333333 478.666666667 331 494 c 0
 313.666666667 522.666666667 286.5 549.333333333 249.5 574 c 128
 212.5 598.666666667 181.333333333 614.333333333 156 621 c 5
 138 551 l 1
 156 545 178.166666667 533.833333333 204.5 517.5 c 128
 230.833333333 501.166666667 252.333333333 481 269 457 c 0
 281.868489583 438.686848959 291.338216146 417.434244792 297.409179688 393.2421875 c 1
 270.155924479 413.747395833 238.686197917 424 203 424 c 0
 152.333333333 424 110.166666667 403.333333333 76.5 362 c 128
 42.8333333333 320.666666667 26 270.333333333 26 211 c 128
EndSplineSet
Validated: 5
EndChar

StartChar: divide
Encoding: 247 247 169
Width: 409
VWidth: 1024
Flags: W
LayerCount: 2
Fore
SplineSet
42 256 m 5
 374 256 l 5
 374 184 l 5
 42 184 l 5
 42 256 l 5
166 410 m 5
 237 410 l 5
 237 338 l 5
 166 338 l 5
 166 410 l 5
166 102 m 5
 237 102 l 5
 237 31 l 5
 166 31 l 5
 166 102 l 5
EndSplineSet
Validated: 1
EndChar

StartChar: oslash
Encoding: 248 248 170
Width: 409
VWidth: 1024
Flags: W
LayerCount: 2
Fore
SplineSet
311.038085938 423.84375 m 5
 369.141601562 384.805664062 l 5
 100.892578125 -14.4482421875 l 5
 42.7890625 24.58984375 l 5
 311.038085938 423.84375 l 5
28 206 m 128
 28 265.333333333 44.8333333333 315.833333333 78.5 357.5 c 128
 112.166666667 399.166666667 154.333333333 420 205 420 c 128
 255.666666667 420 297.833333333 399.166666667 331.5 357.5 c 128
 365.166666667 315.833333333 382 265.333333333 382 206 c 128
 382 146.666666667 365.166666667 96.1666666667 331.5 54.5 c 128
 297.833333333 12.8333333333 255.666666667 -8 205 -8 c 128
 154.333333333 -8 112.166666667 12.8333333333 78.5 54.5 c 128
 44.8333333333 96.1666666667 28 146.666666667 28 206 c 128
100 207 m 128
 100 164.333333333 109.166666667 130 127.5 104 c 128
 145.833333333 78 171.666666667 65 205 65 c 128
 238.333333333 65 264 78 282 104 c 128
 300 130 309 164.333333333 309 207 c 128
 309 249.666666667 300 283.833333333 282 309.5 c 128
 264 335.166666667 238.333333333 348 205 348 c 128
 171.666666667 348 145.833333333 335.166666667 127.5 309.5 c 128
 109.166666667 283.833333333 100 249.666666667 100 207 c 128
EndSplineSet
EndChar

StartChar: thorn
Encoding: 254 254 176
Width: 409
VWidth: 1024
Flags: W
LayerCount: 2
Fore
SplineSet
102 819 m 1
 31 819 l 1
 31 240.88 l 2
 29.6666666667 229.626666667 29 218 29 206 c 128
 29 194 29.6666666667 182.373333333 31 171.12 c 2
 31 -204 l 5
 102 -204 l 5
 102 29.9455233615 l 1
 131.333333333 4.64850778717 165.666666667 -8 205 -8 c 0
 255.666666667 -8 297.833333333 12.8333333333 331.5 54.5 c 128
 365.166666667 96.1666666667 382 146.666666667 382 206 c 128
 382 265.333333333 365.166666667 315.833333333 331.5 357.5 c 128
 297.833333333 399.166666667 255.666666667 420 205 420 c 0
 165.666666667 420 131.333333333 407.351492213 102 382.054476639 c 1
 102 819 l 1
309 207 m 128
 309 164.333333333 300 130 282 104 c 128
 264 78 238.333333333 65 205 65 c 128
 171.666666667 65 145.833333333 78 127.5 104 c 0
 114.110798991 122.988321431 105.610798991 146.421371051 102 174.29914886 c 1
 102 239.664487504 l 1
 105.610798991 267.476614423 114.110798991 290.755118588 127.5 309.5 c 0
 145.833333333 335.166666667 171.666666667 348 205 348 c 128
 238.333333333 348 264 335.166666667 282 309.5 c 128
 300 283.833333333 309 249.666666667 309 207 c 128
EndSplineSet
Validated: 9
EndChar

StartChar: uniE000
Encoding: 57344 57344 178
Width: 791
Flags: W
HStem: 0 75<162.248 301.69> 328 72<165.843 298.104 488.187 624.821>
VStem: 30 77<130.571 269.587> 357 76<200 404> 685 76<0 268.684>
LayerCount: 2
Fore
SplineSet
357 200 m 1
 357 278 447 400 559 400 c 3
 671 400 761 311 761 200 c 0
 761 89 761 0 761 0 c 1
 685 0 l 1
 685 0 685 127 685 200 c 0
 685 270 627 328 557 328 c 3
 487 328 433 272 433 200 c 1
 357 200 l 1
357 404 m 1
 433 404 l 1
 433 0 l 1
 357 0 l 1
 357 404 l 1
107 200 m 4
 107 131 163 75 232 75 c 4
 301 75 357 131 357 200 c 4
 357 269 301 326 232 326 c 4
 163 326 107 269 107 200 c 4
30 200 m 4
 30 311 120 400 232 400 c 4
 344 400 433 311 433 200 c 4
 433 89 344 0 232 0 c 4
 120 0 30 89 30 200 c 4
EndSplineSet
EndChar

StartChar: uniE001
Encoding: 57345 57345 179
Width: 463
Flags: W
HStem: 0 76<240.017 327.64> 326 74<168.819 297.345> 580 20G<30 106>
VStem: 30 76<0 262.618 357 600> 152 78<85.7195 176.474> 357 76<105.742 264.866>
LayerCount: 2
Fore
SplineSet
262 170 m 5
 246 162 230 148 230 128 c 4
 230 97 253 76 286 76 c 4
 335 76 357 136 357 200 c 4
 357 265 297 326 232 326 c 4
 177 326 107 268 106 202 c 5
 106 0 l 5
 30 0 l 5
 30 600 l 5
 106 600 l 5
 106 357 l 5
 138 380 175 400 232 400 c 4
 333 400 433 311 433 199 c 4
 433 83 361 0 296 0 c 4
 219 0 152 49 152 126 c 4
 152 175 183 207 224 228 c 5
 262 170 l 5
EndSplineSet
EndChar

StartChar: uniE002
Encoding: 57346 57346 180
Width: 463
Flags: W
HStem: -158 106<189.609 274.391> 0 21G<193 269> 324 76<30 433>
VStem: 179 106<-147.391 -62.6089> 193 76<0 400>
LayerCount: 2
Fore
SplineSet
179 -105 m 4xf0
 179 -76 203 -52 232 -52 c 4
 261 -52 285 -76 285 -105 c 4
 285 -134 261 -158 232 -158 c 4
 203 -158 179 -134 179 -105 c 4xf0
30 400 m 1
 433 400 l 1
 433 324 l 1
 30 324 l 1
 30 400 l 1
193 400 m 1xe8
 269 400 l 1
 269 0 l 1
 193 0 l 1
 193 400 l 1xe8
EndSplineSet
EndChar

StartChar: uniE003
Encoding: 57347 57347 181
Width: 482
Flags: W
HStem: 0 76<119.275 207.003> 172 76<114.424 248.794> 325 76<30 348>
VStem: 31 76<89.2244 162.796>
LayerCount: 2
Fore
SplineSet
348 325 m 5
 30 325 l 29
 30 401 l 29
 434 400 l 29
 434 320 l 5
 319 116 l 21
 288 62 229 0 162 0 c 4
 80 0 31 59 31 117 c 4
 31 189 94 248 167 248 c 4
 299.9609375 248 381 133 452 50 c 13
 395 0 l 5
 338 72 244.086914062 172 167 172 c 4
 129 172 107 157 107 123 c 4
 107 105 134 76 157 76 c 4
 197 76 231 116 264 172 c 13
 348 325 l 5
EndSplineSet
EndChar

StartChar: uniE004
Encoding: 57348 57348 182
Width: 469
Flags: W
HStem: 0 76<153.404 281.21> 181 76<280.939 334.555> 319 81<167.187 300.309>
VStem: 30 85<115.209 259.083> 204 76<124.514 180.327> 339 64<103.749 176.908>
LayerCount: 2
Fore
SplineSet
213 76 m 0
 158 76 115 119 115 189 c 0
 115 243 164 319 217 319 c 0
 262 319 307 299 344 270 c 1
 392 340 l 1
 330 375 284 400 204 400 c 0
 100 400 30 291 30 186 c 0
 30 104 102 0 231 0 c 0
 279 0 403 56 403 143 c 0
 403 211 354 257 305 257 c 0
 262 257 204 224 204 160 c 0
 204 78 311 38 391 0 c 1
 439 63 l 1
 366 89 280 116 280 159 c 0
 280 168 291 181 305 181 c 0
 318 181 339 168 339 138 c 0
 339 118 265 76 213 76 c 0
EndSplineSet
EndChar

StartChar: uniE005
Encoding: 57349 57349 183
Width: 293
Flags: W
HStem: 0 21G<109 185> 380 20G<109 185>
VStem: 109 76<0 400>
LayerCount: 2
Fore
SplineSet
84 328 m 5
 263 148 l 5
 210 94 l 5
 30 274 l 5
 84 328 l 5
109 400 m 1
 185 400 l 1
 185 0 l 1
 109 0 l 1
 109 400 l 1
EndSplineSet
EndChar

StartChar: uniE006
Encoding: 57350 57350 184
Width: 463
Flags: W
HStem: 0 76<30 433> 380 20G<193 269>
VStem: 193 76<0 400>
LayerCount: 2
Fore
SplineSet
30 76 m 5
 433 76 l 5
 433 0 l 5
 30 0 l 5
 30 76 l 5
193 400 m 5
 269 400 l 5
 269 0 l 5
 193 0 l 5
 193 400 l 5
EndSplineSet
EndChar

StartChar: uniE007
Encoding: 57351 57351 185
Width: 463
Flags: W
HStem: 0 21G<30 106 357 433> 324 76<30 433>
VStem: 30 76<0 324> 357 76<0 400>
LayerCount: 2
Fore
SplineSet
357 400 m 1
 433 400 l 1
 433 0 l 1
 357 0 l 1
 357 400 l 1
30 400 m 1
 433 400 l 1
 433 324 l 1
 30 324 l 1
 30 400 l 1
30 400 m 1
 106 400 l 1
 106 0 l 1
 30 0 l 1
 30 400 l 1
EndSplineSet
EndChar

StartChar: uniE008
Encoding: 57352 57352 186
Width: 497
Flags: HW
LayerCount: 2
Fore
SplineSet
30 0 m 1
 122 0 l 1
 254 298 l 1
 375 0 l 1
 467 0 l 1
 298 400 l 1
 216 400 l 1
 30 0 l 1
EndSplineSet
EndChar

StartChar: uniE009
Encoding: 57353 57353 187
Width: 463
Flags: W
HStem: 0 73<160.712 312.444> 328 72<150.728 297.62>
VStem: 30 73<130.035 279.103> 357 76<118.883 270.123>
LayerCount: 2
Fore
SplineSet
87 397 m 1
 426 57 l 1
 373 3 l 1
 33 343 l 1
 87 397 l 1
103 200 m 0
 103 130 160 73 230 73 c 0
 300 73 357 130 357 200 c 0
 357 270 300 328 230 328 c 0
 160 328 103 270 103 200 c 0
30 200 m 0
 30 311 120 400 232 400 c 0
 344 400 433 311 433 200 c 0
 433 89 344 0 232 0 c 0
 120 0 30 89 30 200 c 0
EndSplineSet
EndChar

StartChar: uniE00A
Encoding: 57354 57354 188
Width: 463
Flags: W
HStem: -200 53<197.966 266.034> -71 55<197.966 266.034> 0 76<30 433> 380 20G<193 269>
VStem: 140 54<-142.534 -75.5181> 270 54<-142.534 -75.5181>
LayerCount: 2
Fore
SplineSet
30 76 m 5
 433 76 l 5
 433 0 l 5
 30 0 l 5
 30 76 l 5
193 400 m 5
 269 400 l 5
 269 0 l 5
 193 0 l 5
 193 400 l 5
140 -108 m 0
 140 -159 181 -200 232 -200 c 0
 283 -200 324 -159 324 -108 c 0
 324 -57 283 -16 232 -16 c 0
 181 -16 140 -57 140 -108 c 0
194 -109 m 0
 194 -88 211 -71 232 -71 c 0
 253 -71 270 -88 270 -109 c 0
 270 -130 253 -147 232 -147 c 0
 211 -147 194 -130 194 -109 c 0
EndSplineSet
EndChar

StartChar: uniE00D
Encoding: 57357 57357 191
Width: 465
Flags: W
HStem: 322 78<240.485 357>
LayerCount: 2
Fore
SplineSet
30 252 m 5
 89 200 l 5
 115 234 163 271 210 291 c 0
 278 320 333 322 357 322 c 1
 357 0 l 1
 433 0 l 1
 435 400 l 1
 356 400 282 397 183 361 c 0
 119 338 72 304 30 252 c 5
EndSplineSet
EndChar

StartChar: uniE00E
Encoding: 57358 57358 192
Width: 538
Flags: W
HStem: 328 72<191.524 331.62>
VStem: 64 73<131.972 273.083> 391 76<123.209 267.842>
LayerCount: 2
Fore
SplineSet
30 76 m 5
 31 0 l 5
 209 0 l 5
 208 76 l 5
 177 105 137 144 137 200 c 4
 137 274 190 328 264 328 c 4
 334 328 391 266 391 200 c 4
 391 138 362 107 326 76 c 5
 326 0 l 29
 508 0 l 29
 508 76 l 5
 426 76 l 5
 437 87 467 129 467 200 c 4
 467 304 378 400 266 400 c 4
 154 400 64 310 64 200 c 4
 64 112 95 88 108 76 c 5
 30 76 l 5
EndSplineSet
EndChar

StartChar: uniE00F
Encoding: 57359 57359 193
Width: 463
Flags: W
HStem: -200 53<197.966 266.034> -71 55<197.966 266.034> 0 76<240.017 327.64> 326 74<168.819 297.345> 580 20G<30 106>
VStem: 30 76<0 262.618 357 600> 140 54<-142.534 -75.5181> 152 78<85.7195 176.474> 270 54<-142.534 -75.5181> 357 76<105.742 264.866>
LayerCount: 2
Fore
SplineSet
262 170 m 5xfdc0
 246 162 230 148 230 128 c 4
 230 97 253 76 286 76 c 4
 335 76 357 136 357 200 c 4
 357 265 297 326 232 326 c 4
 177 326 107 268 106 202 c 5
 106 0 l 5
 30 0 l 5
 30 600 l 5
 106 600 l 5
 106 357 l 5
 138 380 175 400 232 400 c 4
 333 400 433 311 433 199 c 4
 433 83 361 0 296 0 c 4
 219 0 152 49 152 126 c 4
 152 175 183 207 224 228 c 5
 262 170 l 5xfdc0
140 -108 m 0xfec0
 140 -159 181 -200 232 -200 c 0
 283 -200 324 -159 324 -108 c 0
 324 -57 283 -16 232 -16 c 0
 181 -16 140 -57 140 -108 c 0xfec0
194 -109 m 0
 194 -88 211 -71 232 -71 c 0
 253 -71 270 -88 270 -109 c 0
 270 -130 253 -147 232 -147 c 0
 211 -147 194 -130 194 -109 c 0
EndSplineSet
EndChar

StartChar: uniE011
Encoding: 57361 57361 195
Width: 767
Flags: W
HStem: 0 76<240.017 327.64> 178 76<629.465 720> 326 73<168.819 297.345> 580 20G<30 106>
VStem: 30 76<0 262.618 356 600> 152 78<85.7195 162.341> 357 76<107.109 288> 481 76<0 125.045>
LayerCount: 2
Fore
SplineSet
30 600 m 1
 106 600 l 1
 106 356 l 1
 138 380 175 399 232 399 c 0
 333 399 433 311 433 197 c 0
 433 81 361 0 296 0 c 0
 219 0 152 49 152 126 c 0
 152 217 264 256 346 256 c 0
 432 256 467 230 525 187 c 9
 547 206 589 230 616 240 c 0
 653 254 680 254 720 254 c 1
 737 178 l 1
 703 178 665 172 633 158 c 0
 608 147 580 127 557 112 c 1
 557 0 l 1
 481 0 l 1
 481 114 l 17
 438 148 411 180 346 180 c 0
 307 180 230 178 230 128 c 0
 230 97 253 76 286 76 c 0
 335 76 357 136 357 200 c 0
 357 265 297 326 232 326 c 0
 177 326 107 268 106 202 c 1
 106 0 l 1
 30 0 l 1
 30 600 l 1
EndSplineSet
EndChar

StartChar: uniE012
Encoding: 57362 57362 196
Width: 512
Flags: W
HStem: 0 257<116 308> 0 76<119.34 293.492> 317 83<137.138 277.638>
VStem: 30 75<92.6796 160.906> 35 93<241.825 304.42> 297 76<82.4287 137.088> 406 76<0 159.425>
LayerCount: 2
Fore
SplineSet
365 324 m 9x6e
 312 268 l 17
 283 294 255 317 214 317 c 0
 170 317 128 310 128 266 c 0x6e
 128 248 170 237 220 226 c 0
 290 211 373 175 373 115 c 0
 373 22 308 0 216 0 c 0
 116 0 30 41 30 122 c 4
 30 209 99 257 217 257 c 1
 319 257 l 1xb6
 372 256 412 236 432 224 c 0
 467 202 482 164 482 126 c 1
 482 0 l 25
 406 0 l 1
 406 97 l 1
 406 121 399 151 382 162 c 0
 368 171 352 175 325 180 c 1
 222 185 l 1
 139 185 105 156 105 123 c 4x76
 105 88 159 76 215 76 c 0
 266 76 297 78 297 114 c 0
 297 135 255 149 204 159 c 0
 127 174 35 207 35 266 c 0
 35 353 125 400 215 400 c 0
 278 400 327 360 365 324 c 9x6e
EndSplineSet
EndChar

StartChar: uniE013
Encoding: 57363 57363 197
Width: 482
Flags: W
HStem: -200 53<198.966 267.034> -71 55<198.966 267.034> 0 76<119.275 207.003> 172 76<114.424 248.794> 325 76<30 348>
VStem: 31 76<89.2244 162.796> 141 54<-142.534 -75.5181> 271 54<-142.534 -75.5181>
LayerCount: 2
Fore
SplineSet
348 325 m 1
 30 325 l 25
 30 401 l 25
 434 400 l 25
 434 320 l 1
 319 116 l 17
 288 62 229 0 162 0 c 0
 80 0 31 59 31 117 c 0
 31 189 94 248 167 248 c 0
 299.9609375 248 381 133 452 50 c 9
 395 0 l 1
 338 72 244.086914062 172 167 172 c 0
 129 172 107 157 107 123 c 0
 107 105 134 76 157 76 c 0
 197 76 231 116 264 172 c 9
 348 325 l 1
141 -108 m 0
 141 -159 182 -200 233 -200 c 0
 284 -200 325 -159 325 -108 c 0
 325 -57 284 -16 233 -16 c 0
 182 -16 141 -57 141 -108 c 0
195 -109 m 0
 195 -88 212 -71 233 -71 c 0
 254 -71 271 -88 271 -109 c 0
 271 -130 254 -147 233 -147 c 0
 212 -147 195 -130 195 -109 c 0
EndSplineSet
EndChar

StartChar: uniE014
Encoding: 57364 57364 198
Width: 659
Flags: W
HStem: 0 72<364.554 505.451> 326 74<369.037 507.755>
VStem: 553 76<120.958 282.73>
LayerCount: 2
Fore
SplineSet
74 133 m 1
 30 71 l 1
 150 -1 l 1
 196 68 231 129 276 197 c 0
 313 253 363 326 428 326 c 0
 511 326 553 285 553 200 c 0
 553 128 510 72 438 72 c 0
 389 72 351 96 320 134 c 9
 268 82 l 17
 306 44 376 0 438 0 c 0
 558 0 629 77 629 200 c 0
 629 335 563 400 428 400 c 0
 313 400 259 312 196 217 c 0
 173 182 152 138 128 102 c 1
 74 133 l 1
EndSplineSet
EndChar

StartChar: uniE016
Encoding: 57366 57366 200
Width: 563
Flags: W
HStem: 0 21G<129.75 227.277 404.336 533> 380 20G<30 126.312 257.755 345.945 454 530.1>
VStem: 454 79<108 600>
LayerCount: 2
Fore
SplineSet
30 400 m 1
 122 400 l 1
 180 131 l 1
 264 400 l 1
 338 400 l 1
 454 108 l 1
 454 600 l 1
 530 600 l 1
 533 0 l 1
 412 0 l 1
 307 274 l 1
 221 0 l 1
 135 0 l 1
 30 400 l 1
EndSplineSet
EndChar

StartChar: uniE019
Encoding: 57369 57369 203
Width: 497
Flags: W
HStem: 324 76<194.716 320.261>
VStem: 30 79<148 227.155> 391 76<74.1893 241.105>
LayerCount: 2
Fore
SplineSet
30 0 m 9
 109 0 l 25
 109 148 l 17
 112 243 189 324 261 324 c 0
 326 324 391 243 391 158 c 0
 391 40 263 -56 187 -135 c 13
 237 -198 l 1
 345 -87 467 -6 467 160 c 0
 467 289 376 400 257 400 c 0
 132 400 30 290 30 156 c 0
 30 96 30 61 30 0 c 9
EndSplineSet
EndChar

StartChar: uniE01A
Encoding: 57370 57370 204
Width: 688
Flags: HW
LayerCount: 2
Fore
SplineSet
320 336 m 29
 310 268 l 25
 234 266 l 25
 320 336 l 29
30 20 m 25
 148 16 l 25
 200 188 l 25
 314 196 l 25
 318 0 l 25
 400 0 l 25
 392 342 l 25
 582 0 l 25
 658 0 l 25
 642 476 l 25
 552 466 l 25
 564 266 l 25
 396 474 l 25
 310 468 l 25
 30 20 l 25
EndSplineSet
EndChar

StartChar: .notdef
Encoding: 65536 -1 205
Width: 374
VWidth: 1024
Flags: W
LayerCount: 2
Fore
SplineSet
34 0 m 1
 34 682 l 1
 306 682 l 1
 306 0 l 1
 34 0 l 1
68 34 m 1
 272 34 l 1
 272 648 l 1
 68 648 l 1
 68 34 l 1
EndSplineSet
Validated: 1
EndChar

StartChar: uniFB00
Encoding: 64256 64256 208
Width: 614
VWidth: 1024
GlyphClass: 3
LigCaretCntFixed: 1
Flags: W
LayerCount: 2
Fore
SplineSet
324 0 m 1
 395 0 l 1
 395 392 l 1
 600 392 l 1
 600 464 l 1
 395 464 l 1
 395 621 l 2
 395 640.333333333 399.666666667 662.333333333 409 687 c 1
 410 687 l 1
 410 687 410 687 409 688 c 0
 424.333333333 726.666666667 441.666666667 746 461 746 c 0
 482.333333333 746 502.166666667 736.5 520.5 717.5 c 128
 538.833333333 698.5 552.666666667 675 562 647 c 1
 633 687 l 1
 570.333333333 773.666666667 513 817.333333333 461 818 c 0
 443 818.666666667 424.666666667 813 406 801 c 128
 387.333333333 789 371 772 357 750 c 1
 313.666666667 794.666666667 274 817.333333333 238 818 c 0
 204 818.666666667 172.166666667 800.333333333 142.5 763 c 128
 112.833333333 725.666666667 98 679 98 623 c 2
 99 464 l 1
 30 464 l 1
 30 392 l 1
 99 392 l 1
 100 0 l 1
 172 0 l 1
 172 392 l 1
 253 392 l 1
 322 392 l 1
 324 0 l 1
327 676 m 1
 323.666666667 657.333333333 322 639.666666667 322 623 c 2
 322 464 l 1
 253 464 l 1
 172 464 l 1
 172 621 l 2
 172.666666667 649 180 676.833333333 194 704.5 c 128
 208 732.166666667 222.666666667 746 238 746 c 0
 272.666666667 746 302.333333333 722.666666667 327 676 c 1
EndSplineSet
Validated: 41
Ligature2: "YbluiFont-Ligature Substitution lookup 0 subtable" f f
LCarets2: 1 309
EndChar

StartChar: uniFB01
Encoding: 64257 64257 209
Width: 440
VWidth: 1024
GlyphClass: 3
LigCaretCntFixed: 1
Flags: W
LayerCount: 2
Fore
SplineSet
100 0 m 1
 172 0 l 1
 172 392 l 1
 348 392 l 1
 348 0 l 1
 420 0 l 1
 420 464 l 1
 377 464 l 1
 348 464 l 1
 172 464 l 1
 172 621 l 2
 172.666666667 649 180 676.833333333 194 704.5 c 128
 208 732.166666667 222.666666667 746 238 746 c 0
 259.333333333 746 279.166666667 736.5 297.5 717.5 c 128
 315.833333333 698.5 329.666666667 675 339 647 c 1
 410 687 l 1
 347.333333333 773.666666667 290 817.333333333 238 818 c 0
 204 818.666666667 172.166666667 800.333333333 142.5 763 c 128
 112.833333333 725.666666667 98 679 98 623 c 2
 99 464 l 1
 30 464 l 1
 30 392 l 1
 99 392 l 1
 100 0 l 1
EndSplineSet
Validated: 41
Ligature2: "YbluiFont-Ligature Substitution lookup 0 subtable" f i
LCarets2: 1 330
EndChar

StartChar: uniFB02
Encoding: 64258 64258 210
Width: 512
VWidth: 1024
GlyphClass: 3
LigCaretCntFixed: 1
Flags: W
LayerCount: 2
Fore
SplineSet
100 0 m 1
 172 0 l 1
 172 392 l 1
 337 392 l 1
 336 188 l 2
 336 133.333333333 354.166666667 87.1666666667 390.5 49.5 c 128
 426.833333333 11.8333333333 463 -7 499 -7 c 0
 519 -7 534.666666667 -5.16666666667 546 -1.5 c 128
 557.333333333 2.16666666667 576 10.6666666667 602 24 c 1
 580 87 l 1
 561.333333333 72.3333333333 534.333333333 65 499 65 c 0
 483 65 464.333333333 79.1666666667 443 107.5 c 128
 421.666666667 135.833333333 410.666666667 163.333333333 410 190 c 2
 410 688 l 1
 409 688 l 1
 346.333333333 774 289.333333333 817.333333333 238 818 c 0
 204 818.666666667 172.166666667 800.333333333 142.5 763 c 128
 112.833333333 725.666666667 98 679 98 623 c 2
 99 464 l 1
 30 464 l 1
 30 392 l 1
 99 392 l 1
 100 0 l 1
338 649 m 1
 338 464 l 1
 172 464 l 1
 172 621 l 2
 172.666666667 649 180 676.833333333 194 704.5 c 128
 208 732.166666667 222.666666667 746 238 746 c 0
 259.333333333 746 278.833333333 736.833333333 296.5 718.5 c 128
 314.166666667 700.166666667 328 677 338 649 c 1
EndSplineSet
Validated: 41
Ligature2: "YbluiFont-Ligature Substitution lookup 0 subtable" f l
LCarets2: 1 324
EndChar

StartChar: gravecomb
Encoding: 768 768 211
Width: 409
VWidth: 1024
Flags: W
LayerCount: 2
Fore
SplineSet
63.232421875 670.318359375 m 5
 378.595703125 560.30859375 l 5
 352 495 l 1
 36.63671875 605.010742188 l 1
 63.232421875 670.318359375 l 5
EndSplineSet
Validated: 1
EndChar

StartChar: acutecomb
Encoding: 769 769 212
Width: 409
VWidth: 1024
Flags: W
LayerCount: 2
Fore
SplineSet
63.232421875 471.681640625 m 5
 378.595703125 581.69140625 l 5
 352 647 l 5
 36.63671875 536.989257812 l 5
 63.232421875 471.681640625 l 5
EndSplineSet
Validated: 9
EndChar

StartChar: uni0302
Encoding: 770 770 213
Width: 409
VWidth: 1024
Flags: W
LayerCount: 2
Fore
SplineSet
43 535 m 5
 105 507 l 5
 198 698 l 5
 311 508 l 5
 371 545 l 5
 223 784 l 5
 166 784 l 5
 43 535 l 5
EndSplineSet
Validated: 9
EndChar

StartChar: uni0304
Encoding: 772 772 214
Width: 409
VWidth: 1024
Flags: W
LayerCount: 2
Fore
SplineSet
30 609 m 1
 370 609 l 5
 370 539 l 5
 30 539 l 1
 30 609 l 1
EndSplineSet
Validated: 1
EndChar

StartChar: uni0305
Encoding: 773 773 215
Width: 409
VWidth: 1024
Flags: W
LayerCount: 2
Fore
SplineSet
0 609 m 1
 409 609 l 5
 409 539 l 5
 0 539 l 1
 0 609 l 1
EndSplineSet
Validated: 1
EndChar

StartChar: uni030C
Encoding: 780 780 216
Width: 409
VWidth: 1024
Flags: W
LayerCount: 2
Fore
SplineSet
43 733 m 5
 105 761 l 5
 198 570 l 5
 311 760 l 5
 371 723 l 5
 223 484 l 5
 166 484 l 5
 43 733 l 5
EndSplineSet
Validated: 1
EndChar

StartChar: dotlessi
Encoding: 305 305 217
Width: 133
VWidth: 1024
Flags: W
LayerCount: 2
Fore
SplineSet
31 414 m 1
 102 414 l 1
 102 0 l 1
 31 0 l 1
 31 414 l 1
EndSplineSet
Validated: 1
EndChar

StartChar: uni0237
Encoding: 567 567 238
Width: 133
VWidth: 1024
Flags: W
LayerCount: 2
Fore
SplineSet
102 410 m 1
 31 410 l 1
 31 -11 l 2
 30.3333333333 -37.6666666667 19.3333333333 -65.3333333333 -2 -94 c 128
 -23.3333333333 -122.666666667 -42 -137 -58 -137 c 0
 -128 -137 -170 -116 -184 -74 c 1
 -244 -125 l 1
 -225.333333333 -151 -198.333333333 -171.333333333 -163 -186 c 128
 -127.666666667 -200.666666667 -92.6666666667 -208.333333333 -58 -209 c 0
 -22.6666666667 -209.666666667 13.1666666667 -191 49.5 -153 c 128
 85.8333333333 -115 104 -68.3333333333 104 -13 c 2
 102 410 l 1
EndSplineSet
Validated: 41
EndChar

StartChar: uni0308
Encoding: 776 776 295
Width: 409
VWidth: 1024
Flags: W
LayerCount: 2
Fore
SplineSet
254 538 m 5
 325 538 l 5
 325 467 l 5
 254 467 l 5
 254 538 l 5
85 538 m 5
 156 538 l 5
 156 467 l 5
 85 467 l 5
 85 538 l 5
85 538 m 5
 156 538 l 5
 156 467 l 5
 85 467 l 5
 85 538 l 5
EndSplineSet
Validated: 5
EndChar

StartChar: tildecomb
Encoding: 771 771 304
Width: 409
VWidth: 1024
Flags: W
LayerCount: 2
Fore
SplineSet
31 564 m 5
 57 497 l 5
 62.3333333333 500.333333333 70 505.166666667 80 511.5 c 132
 90 517.833333333 97.6666666667 522.666666667 103 526 c 132
 108.333333333 529.333333333 115.333333333 532.333333333 124 535 c 132
 132.666666667 537.666666667 141.333333333 539 150 539 c 4
 162 539 181.333333333 527.833333333 208 505.5 c 132
 234.666666667 483.166666667 255.666666667 472 271 472 c 4
 295.666666667 472 334 495 386 541 c 5
 371 612 l 5
 368.333333333 610 359 602.166666667 343 588.5 c 132
 327 574.833333333 312.666666667 563.833333333 300 555.5 c 132
 287.333333333 547.166666667 277 543 269 543 c 4
 258.333333333 543 240 554.333333333 214 577 c 132
 188 599.666666667 166.666666667 611 150 611 c 4
 116 611 76.3333333333 595.333333333 31 564 c 5
EndSplineSet
Validated: 9
EndChar

StartChar: uni0307
Encoding: 775 775 320
Width: 409
VWidth: 1024
Flags: W
LayerCount: 2
Fore
SplineSet
162 538 m 5
 233 538 l 5
 233 467 l 5
 162 467 l 5
 162 538 l 5
162 538 m 5
 233 538 l 5
 233 467 l 5
 162 467 l 5
 162 538 l 5
EndSplineSet
Validated: 5
EndChar

StartChar: dotbelowcomb
Encoding: 803 803 330
Width: 409
VWidth: 1024
Flags: W
LayerCount: 2
Fore
SplineSet
162 -61 m 5
 233 -61 l 5
 233 -132 l 5
 162 -132 l 5
 162 -61 l 5
162 -61 m 5
 233 -61 l 5
 233 -132 l 5
 162 -132 l 5
 162 -61 l 5
EndSplineSet
Validated: 5
EndChar

StartChar: uni0261
Encoding: 609 609 338
Width: 409
VWidth: 1024
Flags: W
LayerCount: 2
Fore
SplineSet
100 207 m 128
 100 164.333333333 109.166666667 130 127.5 104 c 128
 145.833333333 78 171.666666667 65 205 65 c 128
 238.333333333 65 263.5 77.8333333333 280.5 103.5 c 128
 297.5 129.166666667 306 163.666666667 306 207 c 128
 306 250.333333333 297.5 284.666666667 280.5 310 c 128
 263.5 335.333333333 238.333333333 348 205 348 c 128
 171.666666667 348 145.833333333 335.166666667 127.5 309.5 c 128
 109.166666667 283.833333333 100 249.666666667 100 207 c 128
28 206 m 128
 28 265.333333333 44.8333333333 315.833333333 78.5 357.5 c 128
 112.166666667 399.166666667 154.333333333 420 205 420 c 0
 243.779846837 420 277.446513504 407.567954095 306 382.703862286 c 1
 306 410 l 1
 378 410 l 1
 378.93352983 212.558441029 l 2
 378.977843277 210.384827116 379 208.198680106 379 206 c 0
 379 204.827986787 378.993704265 203.659534799 378.981112794 202.494644035 c 2
 380 -13 l 2
 380 -68.3333333333 361.666666667 -115 325 -153 c 128
 288.333333333 -191 252.333333333 -209.666666667 217 -209 c 0
 182.333333333 -208.333333333 147.5 -200.666666667 112.5 -186 c 128
 77.5 -171.333333333 50.6666666667 -151 32 -125 c 1
 91 -74 l 1
 105 -116 147 -137 217 -137 c 0
 233 -137 251.666666667 -122.666666667 273 -94 c 128
 294.333333333 -65.3333333333 305.333333333 -37.6666666667 306 -11 c 2
 306 29.2961377135 l 1
 277.446513504 4.4320459045 243.779846837 -8 205 -8 c 0
 154.333333333 -8 112.166666667 12.8333333333 78.5 54.5 c 128
 44.8333333333 96.1666666667 28 146.666666667 28 206 c 128
EndSplineSet
Validated: 33
EndChar

StartChar: uni030F
Encoding: 783 783 339
Width: 409
VWidth: 1024
Flags: W
LayerCount: 2
Fore
SplineSet
220.232421875 681.318359375 m 1
 397.595703125 555.30859375 l 1
 352 497 l 5
 178.63671875 623.010742188 l 5
 220.232421875 681.318359375 l 1
59.232421875 681.318359375 m 1
 236.595703125 555.30859375 l 1
 191 497 l 1
 17.63671875 623.010742188 l 1
 59.232421875 681.318359375 l 1
EndSplineSet
Validated: 1
EndChar

StartChar: uni030B
Encoding: 779 779 350
Width: 409
VWidth: 1024
Flags: W
LayerCount: 2
Fore
SplineSet
217.232421875 478.681640625 m 5
 394.595703125 604.69140625 l 5
 351 661 l 1
 177.63671875 534.989257812 l 1
 217.232421875 478.681640625 l 5
56.232421875 477.681640625 m 1
 233.595703125 603.69140625 l 1
 190 661 l 1
 16.63671875 534.989257812 l 1
 56.232421875 477.681640625 l 1
EndSplineSet
Validated: 9
EndChar

StartChar: uni026F
Encoding: 623 623 355
Width: 614
VWidth: 1024
Flags: W
LayerCount: 2
Fore
SplineSet
584 1 m 5
 513 1 l 5
 513 21.95703125 l 5
 512.436197917 21.568359375 511.936197917 21.2493489583 511.5 21 c 4
 509.166666667 19.6666666667 505.333333333 17 500 13 c 132
 494.666666667 9 490.333333333 6.33333333333 487 5 c 132
 483.666666667 3.66666666667 479.333333333 1.83333333333 474 -0.5 c 132
 468.666666667 -2.83333333333 463.666666667 -4.5 459 -5.5 c 132
 454.333333333 -6.5 449.166666667 -7.33333333333 443.5 -8 c 132
 437.833333333 -8.66666666667 432 -9 426 -9 c 4
 391.333333333 -9 359.333333333 -1.16666666667 330 14.5 c 4
 317.348307292 21.2571614583 306.556640625 29.6575520833 297.625 39.701171875 c 5
 295.552734375 37.7623697917 292.344401041 34.8619791667 288 31 c 4
 282 25.6666666667 277.833333333 22.3333333333 275.5 21 c 132
 273.166666667 19.6666666667 269.333333333 17 264 13 c 132
 258.666666667 9 254.333333333 6.33333333333 251 5 c 132
 247.666666667 3.66666666667 243.333333333 1.83333333333 238 -0.5 c 132
 232.666666667 -2.83333333333 227.666666667 -4.5 223 -5.5 c 132
 218.333333333 -6.5 213.166666667 -7.33333333333 207.5 -8 c 132
 201.833333333 -8.66666666667 196 -9 190 -9 c 4
 155.333333333 -9 123.333333333 -1.16666666667 94 14.5 c 132
 64.6666666667 30.1666666667 45.3333333333 54.6666666667 36 88 c 4
 32.6666666667 100.666666667 31 209.666666667 31 415 c 5
 103 415 l 5
 103 114 l 6
 103 99.3333333333 107.666666667 88 117 80 c 132
 126.333333333 72 136.166666667 67.1666666667 146.5 65.5 c 132
 156.833333333 63.8333333333 170.666666667 63 188 63 c 4
 197.333333333 63 205.333333333 63.5 212 64.5 c 132
 218.666666667 65.5 225.333333333 68.3333333333 232 73 c 132
 238.666666667 77.6666666667 243.166666667 81 245.5 83 c 132
 247.833333333 85 253 90.5 261 99.5 c 4
 264.546875 103.490234375 267.569661458 106.923502604 270.068359375 109.799804688 c 4
 268.022786458 152.421549479 267 254.154947917 267 415 c 5
 339 415 l 5
 339 114 l 6
 339 99.3333333333 343.666666667 88 353 80 c 132
 362.333333333 72 372.166666667 67.1666666667 382.5 65.5 c 132
 392.833333333 63.8333333333 406.666666667 63 424 63 c 4
 433.333333333 63 441.333333333 63.5 448 64.5 c 132
 454.666666667 65.5 461.333333333 68.3333333333 468 73 c 132
 474.666666667 77.6666666667 479.166666667 81 481.5 83 c 132
 483.833333333 85 489 90.5 497 99.5 c 132
 505 108.5 510.333333333 114.666666667 513 118 c 5
 513 415 l 5
 584 415 l 5
 584 1 l 5
EndSplineSet
Validated: 1
EndChar

StartChar: uni028C
Encoding: 652 652 356
Width: 409
VWidth: 1024
Flags: W
LayerCount: 2
Fore
SplineSet
29 9 m 5
 99 -16 l 5
 194 284 l 5
 311 -13 l 5
 379 16 l 5
 224 407 l 5
 158 407 l 5
 29 9 l 5
EndSplineSet
Validated: 9
EndChar

StartChar: uni030A
Encoding: 778 778 359
Width: 409
VWidth: 1024
Flags: W
LayerCount: 2
Fore
SplineSet
158 596.5 m 128
 158 586.833333333 160.666666667 578.166666667 166 570.5 c 128
 171.333333333 562.833333333 180.333333333 559 193 559 c 0
 201.666666667 559 209.75 563.083333333 217.25 571.25 c 0
 222.416666667 577.083333333 225 584.666666667 225 594 c 4
 225 605.185185185 223.333333333 613.185185185 220 618 c 4
 214 626.666666667 203.333333333 631 188 631 c 0
 179.333333333 630.333333333 172.166666667 627 166.5 621 c 0
 160.833333333 614.333333333 158 606.166666667 158 596.5 c 128
104 597 m 128
 104 621 112.333333333 641.333333333 129 658 c 128
 145.666666667 674.666666667 166 683 190 683 c 128
 214 683 234.333333333 674.666666667 251 658 c 128
 267.666666667 641.333333333 276 621 276 597 c 128
 276 573 267.666666667 552.666666667 251 536 c 128
 234.333333333 519.333333333 214 511 190 511 c 128
 166 511 145.666666667 519.333333333 129 536 c 128
 112.333333333 552.666666667 104 573 104 597 c 128
EndSplineSet
Validated: 1
EndChar

StartChar: uni0306
Encoding: 774 774 364
Width: 409
VWidth: 1024
Flags: W
LayerCount: 2
Fore
SplineSet
94 634 m 5
 58 573 l 5
 73.3333333333 548.333333333 94 528.5 120 513.5 c 4
 148 497.166666667 175.333333333 489 202 489 c 4
 204 489 206.169921875 488.959309896 208.509765625 488.877929688 c 4
 236.169921875 488.959309896 262.574869792 495.183919271 287.724609375 507.551757812 c 4
 314.574869792 521.183919271 336.666666667 540.333333333 354 565 c 5
 310 620 l 5
 303.108723959 609.214192708 286.518880209 595.126302083 260.23046875 577.736328125 c 4
 248.735677083 570.1328125 234.9921875 564.554036459 219 561 c 4
 210.954427083 559.212239583 203.287760417 558.87890625 196 560 c 4
 174.666666667 562 154.729817708 570.928059896 136.189453125 586.784179688 c 4
 115.842447916 603.221679688 101.779296875 618.960286459 94 634 c 5
EndSplineSet
Validated: 9
EndChar

StartChar: uni01DD
Encoding: 477 477 365
Width: 399
VWidth: 1024
Flags: W
LayerCount: 2
Fore
SplineSet
92 211 m 1028
297.446289062 247 m 5
 293.612955729 272.99609375 285.464192708 294.99609375 273 313 c 4
 255 339 229.333333333 352 196 352 c 4
 165.333333333 352 141.333333333 341.666666667 124 321 c 5
 77 375 l 5
 108.333333333 408.333333333 148 425 196 425 c 4
 246.666666667 425 288.666666667 404.333333333 322 363 c 132
 355.333333333 321.666666667 372 271 372 211 c 132
 372 151 355.333333333 100.333333333 322 59 c 132
 288.666666667 17.6666666667 246.666666667 -3 196 -3 c 132
 145.333333333 -3 103.166666667 17.8333333333 69.5 59.5 c 4
 42.8606770833 92.4694010413 26.7607421875 130.969401041 21.2001953125 175 c 5
 21 175 l 5
 21 176.625976562 l 6
 19.6666666667 187.734049479 19 199.192057292 19 211 c 6
 19 212 l 5
 18 247 l 5
 21 247 l 5
 297.446289062 247 l 5
93.31640625 175 m 5
 97.0930989583 148.217447917 105.487630208 125.717447917 118.5 107.5 c 4
 136.833333333 81.8333333333 162.666666667 69 196 69 c 132
 229.333333333 69 255 81.8333333333 273 107.5 c 4
 285.776041667 125.717447917 294.017903646 148.217447917 297.725585938 175 c 5
 93.31640625 175 l 5
EndSplineSet
Validated: 1
EndChar

StartChar: uni01B7
Encoding: 439 439 366
Width: 409
VWidth: 1024
Flags: W
LayerCount: 2
Fore
SplineSet
317 530 m 1
 53 227 l 5
 88 172 l 5
 125.333333333 178.666666667 163 182 201 182 c 4
 233.666666667 182 260 171 280 149 c 132
 300 127 310 91.6666666667 310 43 c 128
 310 -5.66666666667 300.166666667 -47.1666666667 280.5 -81.5 c 128
 260.833333333 -115.833333333 230.666666667 -133 190 -133 c 0
 162 -133 139.666666667 -128.666666667 123 -120 c 128
 106.333333333 -111.333333333 88.6666666667 -97.3333333333 70 -78 c 1
 25 -135 l 1
 57.6666666667 -161.666666667 85.5 -180.666666667 108.5 -192 c 128
 131.5 -203.333333333 159.666666667 -209 193 -209 c 0
 249.666666667 -209 295.333333333 -183.333333333 330 -132 c 128
 364.666666667 -80.6666666667 382 -21.3333333333 382 46 c 128
 382 113.333333333 364.5 164.333333333 329.5 199 c 132
 294.5 233.666666667 253 251 205 251 c 4
 196.333333333 251 190 250.666666667 186 250 c 132
 182 249.333333333 177.666666667 247.5 173 244.5 c 132
 168.333333333 241.5 163.666666667 236.333333333 159 229 c 5
 379 507 l 1
 379 600 l 1
 31 600 l 1
 31 528 l 1
 317 530 l 1
EndSplineSet
Validated: 5
EndChar

StartChar: uni0292
Encoding: 658 658 367
Width: 409
VWidth: 1024
Flags: W
LayerCount: 2
Fore
SplineSet
317 340 m 1
 53 132 l 1
 88 77 l 1
 125.333333333 83.6666666667 163 87 201 87 c 0
 233.666666667 87 260 78.5 280 61.5 c 128
 300 44.5 310 24 310 0 c 0
 310 -46.6666666667 300.166666667 -80.5 280.5 -101.5 c 128
 260.833333333 -122.5 230.666666667 -133 190 -133 c 0
 162 -133 139.666666667 -128.666666667 123 -120 c 128
 106.333333333 -111.333333333 88.6666666667 -97.3333333333 70 -78 c 1
 25 -135 l 1
 57.6666666667 -161.666666667 85.5 -180.666666667 108.5 -192 c 128
 131.5 -203.333333333 159.666666667 -209 193 -209 c 0
 249.666666667 -209 295.333333333 -190 330 -152 c 128
 364.666666667 -114 382 -63.3333333333 382 0 c 0
 382 44.6666666667 364.5 81.8333333333 329.5 111.5 c 128
 294.5 141.166666667 253 156 205 156 c 0
 196.333333333 156 190 155.666666667 186 155 c 128
 182 154.333333333 177.666666667 152.5 173 149.5 c 128
 168.333333333 146.5 163.666666667 141.333333333 159 134 c 1
 379 317 l 1
 379 410 l 1
 31 410 l 1
 31 338 l 1
 317 340 l 1
EndSplineSet
Validated: 5
EndChar

StartChar: uni0324
Encoding: 804 804 368
Width: 409
VWidth: 1024
Flags: W
LayerCount: 2
Fore
SplineSet
243 -61 m 5
 314 -61 l 5
 314 -132 l 5
 243 -132 l 5
 243 -61 l 5
243 -61 m 5
 314 -61 l 5
 314 -132 l 5
 243 -132 l 5
 243 -61 l 5
99 -61 m 5
 170 -61 l 5
 170 -132 l 5
 99 -132 l 5
 99 -61 l 5
99 -61 m 5
 170 -61 l 5
 170 -132 l 5
 99 -132 l 5
 99 -61 l 5
EndSplineSet
Validated: 5
EndChar

StartChar: uni028D
Encoding: 653 653 369
Width: 614
VWidth: 1024
Flags: W
LayerCount: 2
Fore
SplineSet
29 23 m 5
 99 -2 l 5
 178 298 l 5
 275 1 l 5
 347 1 l 5
 450 298 l 5
 521 -2 l 5
 583 23 l 5
 485 421 l 5
 419 421 l 5
 311.765625 108.234375 l 5
 209 421 l 5
 142 421 l 5
 29 23 l 5
EndSplineSet
Validated: 9
EndChar

StartChar: uni028E
Encoding: 654 654 370
Width: 409
VWidth: 1024
Flags: W
LayerCount: 2
Fore
SplineSet
378 -1 m 5
 317 1 l 5
 307 290 l 6
 304.333333333 311.333333333 293.833333333 327 275.5 337 c 132
 257.166666667 347 235 352 209 352 c 4
 183.666666667 352 163.5 346.166666667 148.5 334.5 c 132
 133.5 322.833333333 118 305.333333333 102 282 c 5
 102 -1 l 5
 30 -1 l 5
 30 460 l 6
 30 508.666666667 45.5 546.833333333 76.5 574.5 c 132
 107.5 602.166666667 146.666666667 616 194 616 c 4
 207.333333333 616 220.5 614.5 233.5 611.5 c 132
 246.5 608.5 257.333333333 605.5 266 602.5 c 132
 274.666666667 599.5 285.666666667 593.833333333 299 585.5 c 132
 312.333333333 577.166666667 321.333333333 571.333333333 326 568 c 132
 330.666666667 564.666666667 340.833333333 557 356.5 545 c 132
 372.166666667 533 381.333333333 526 384 524 c 5
 341 467 l 5
 323.666666667 485.666666667 310 499.333333333 300 508 c 132
 290 516.666666667 276.666666667 524.5 260 531.5 c 132
 243.333333333 538.5 225.333333333 542 206 542 c 4
 171.333333333 542 145.833333333 537.833333333 129.5 529.5 c 132
 113.166666667 521.166666667 104 503 102 475 c 6
 102 365 l 5
 128 387 146.333333333 400.5 157 405.5 c 132
 167.666666667 410.5 186 413 212 413 c 4
 250 413 287 401 323 377 c 132
 359 353 377.333333333 324.333333333 378 291 c 6
 378 -1 l 5
EndSplineSet
Validated: 1
EndChar

StartChar: uni01C0
Encoding: 448 448 371
Width: 133
VWidth: 1024
Flags: W
LayerCount: 2
Fore
SplineSet
31 820 m 1
 103 820 l 1
 103 0 l 1
 31 0 l 1
 31 820 l 1
EndSplineSet
Validated: 1
EndChar

StartChar: hookabovecomb
Encoding: 777 777 372
Width: 409
VWidth: 1024
Flags: W
LayerCount: 2
Fore
SplineSet
42 719 m 1
 70 657 l 1
 70 661 71 664.666666667 73 668 c 0
 77.6666666667 674.666666667 87.0631510417 680.426106771 101.189453125 685.278320312 c 0
 119.063151042 691.759440104 144 695 176 695 c 3
 241.333333333 695 274 676.333333333 274 639 c 3
 274 593.666666667 224.666666667 571 126 571 c 25
 126 483 l 1
 196 483 l 25
 196 519 l 21
 294.666666667 542.333333333 344 582.333333333 344 639 c 0
 344 723 288 765 176 765 c 27
 126.666666667 765 82 749.666666667 42 719 c 1
EndSplineSet
Validated: 9
EndChar

StartChar: uni0258
Encoding: 600 600 373
Width: 399
VWidth: 1024
Flags: W
LayerCount: 2
Fore
SplineSet
98 206 m 1028
303.446289062 170 m 5
 299.612955729 144.00390625 291.464192708 122.00390625 279 104 c 4
 261 78 235.333333333 65 202 65 c 4
 171.333333333 65 147.333333333 75.3333333333 130 96 c 5
 83 42 l 5
 114.333333333 8.66666666667 154 -8 202 -8 c 4
 252.666666667 -8 294.666666667 12.6666666667 328 54 c 132
 361.333333333 95.3333333333 378 146 378 206 c 132
 378 266 361.333333333 316.666666667 328 358 c 132
 294.666666667 399.333333333 252.666666667 420 202 420 c 132
 151.333333333 420 109.166666667 399.166666667 75.5 357.5 c 4
 48.8606770833 324.530598959 32.7607421875 286.030598959 27.2001953125 242 c 5
 27 242 l 5
 27 240.374023438 l 6
 25.6666666667 229.265950521 25 217.807942708 25 206 c 6
 25 205 l 5
 24 170 l 5
 27 170 l 5
 303.446289062 170 l 5
99.31640625 242 m 5
 103.093098958 268.782552083 111.487630208 291.282552083 124.5 309.5 c 4
 142.833333333 335.166666667 168.666666667 348 202 348 c 132
 235.333333333 348 261 335.166666667 279 309.5 c 4
 291.776041667 291.282552083 300.017903646 268.782552083 303.725585938 242 c 5
 99.31640625 242 l 5
EndSplineSet
Validated: 9
EndChar

StartChar: uni037E
Encoding: 894 894 374
Width: 133
VWidth: 1024
Flags: W
LayerCount: 2
Fore
SplineSet
31 410 m 1
 102 410 l 1
 102 338 l 1
 31 338 l 1
 31 410 l 1
102 31 m 1
 102 10.3333333333 97.6666666667 -6.66666666667 89 -20 c 0
 81.6666666667 -31.3333333333 68.3333333333 -42 49 -52 c 1
 38 -34 l 1
 55.3333333333 -24 66 -15.3333333333 70 -8 c 0
 74.6666666667 0 77 13 77 31 c 1
 102 31 l 1
31 102 m 1
 102 102 l 1
 102 31 l 1
 77 31 l 1
 31 31 l 1
 31 102 l 1
EndSplineSet
Validated: 5
EndChar

StartChar: uni01B9
Encoding: 441 441 375
Width: 409
VWidth: 1024
Flags: W
LayerCount: 2
Fore
SplineSet
92 340 m 5
 356 132 l 5
 321 77 l 5
 283.666666667 83.6666666667 246 87 208 87 c 4
 175.333333333 87 149 78.5 129 61.5 c 132
 109 44.5 99 24 99 0 c 4
 99 -46.6666666667 108.833333333 -80.5 128.5 -101.5 c 132
 148.166666667 -122.5 178.333333333 -133 219 -133 c 4
 247 -133 269.333333333 -128.666666667 286 -120 c 132
 302.666666667 -111.333333333 320.333333333 -97.3333333333 339 -78 c 5
 384 -135 l 5
 351.333333333 -161.666666667 323.5 -180.666666667 300.5 -192 c 132
 277.5 -203.333333333 249.333333333 -209 216 -209 c 4
 159.333333333 -209 113.666666667 -190 79 -152 c 132
 44.3333333333 -114 27 -63.3333333333 27 0 c 4
 27 44.6666666667 44.5 81.8333333333 79.5 111.5 c 132
 114.5 141.166666667 156 156 204 156 c 4
 212.666666667 156 219 155.666666667 223 155 c 132
 227 154.333333333 231.333333333 152.5 236 149.5 c 132
 240.666666667 146.5 245.333333333 141.333333333 250 134 c 5
 30 317 l 5
 30 410 l 5
 378 410 l 5
 378 338 l 5
 92 340 l 5
EndSplineSet
Validated: 5
EndChar

StartChar: uni0311
Encoding: 785 785 387
Width: 409
VWidth: 1024
Flags: W
LayerCount: 2
Fore
SplineSet
94 534 m 5
 58 595 l 5
 73.3333333333 619.666666667 94 639.5 120 654.5 c 4
 148 670.833333333 175.333333333 679 202 679 c 4
 204 679 206.169921875 679.040690104 208.509765625 679.122070312 c 4
 236.169921875 679.040690104 262.574869792 672.816080729 287.724609375 660.448242188 c 4
 314.574869792 646.816080729 336.666666667 627.666666667 354 603 c 5
 310 548 l 5
 303.108723959 558.785807292 286.518880209 572.873697917 260.23046875 590.263671875 c 4
 248.735677083 597.8671875 234.9921875 603.445963541 219 607 c 4
 210.954427083 608.787760417 203.287760417 609.12109375 196 608 c 4
 174.666666667 606 154.729817708 597.071940104 136.189453125 581.215820312 c 4
 115.842447916 564.778320312 101.779296875 549.039713541 94 534 c 5
EndSplineSet
Validated: 1
EndChar

StartChar: uni0336
Encoding: 822 822 402
Width: 409
VWidth: 1024
Flags: W
LayerCount: 2
Fore
SplineSet
0 242 m 5
 409 242 l 1
 409 172 l 1
 0 172 l 5
 0 242 l 5
EndSplineSet
Validated: 1
EndChar

StartChar: uni0335
Encoding: 821 821 403
Width: 409
VWidth: 1024
Flags: W
LayerCount: 2
Fore
SplineSet
30 242 m 5
 378 242 l 5
 378 172 l 5
 30 172 l 5
 30 242 l 5
EndSplineSet
Validated: 1
EndChar

StartChar: uni032E
Encoding: 814 814 404
Width: 409
VWidth: 1024
Flags: W
LayerCount: 2
Fore
SplineSet
94 -29 m 5
 58 -90 l 5
 73.3333333333 -114.666666667 94 -134.5 120 -149.5 c 4
 148 -165.833333333 175.333333333 -174 202 -174 c 4
 204 -174 206.169921875 -174.040690104 208.509765625 -174.122070312 c 4
 236.169921875 -174.040690104 262.574869792 -167.816080729 287.724609375 -155.448242188 c 4
 314.574869792 -141.816080729 336.666666667 -122.666666667 354 -98 c 5
 310 -43 l 5
 303.108723959 -53.7858072917 286.518880209 -67.8736979167 260.23046875 -85.263671875 c 4
 248.735677083 -92.8671875 234.9921875 -98.4459635417 219 -102 c 4
 210.954427083 -103.787760417 203.287760417 -104.12109375 196 -103 c 4
 174.666666667 -101 154.729817708 -92.0719401042 136.189453125 -76.2158203125 c 4
 115.842447916 -59.7783203125 101.779296875 -44.0397135417 94 -29 c 5
EndSplineSet
Validated: 9
EndChar

StartChar: uni032F
Encoding: 815 815 405
Width: 409
VWidth: 1024
Flags: W
LayerCount: 2
Fore
SplineSet
94 -185 m 5
 58 -124 l 5
 73.3333333333 -99.3333333333 94 -79.5 120 -64.5 c 4
 148 -48.1666666667 175.333333333 -40 202 -40 c 4
 204 -40 206.169921875 -39.9593098958 208.509765625 -39.8779296875 c 4
 236.169921875 -39.9593098958 262.574869792 -46.1839192708 287.724609375 -58.5517578125 c 4
 314.574869792 -72.1839192708 336.666666667 -91.3333333333 354 -116 c 5
 310 -171 l 5
 303.108723959 -160.214192708 286.518880209 -146.126302083 260.23046875 -128.736328125 c 4
 248.735677083 -121.1328125 234.9921875 -115.554036459 219 -112 c 4
 210.954427083 -110.212239583 203.287760417 -109.87890625 196 -111 c 4
 174.666666667 -113 154.729817708 -121.928059896 136.189453125 -137.784179688 c 4
 115.842447916 -154.221679688 101.779296875 -169.960286459 94 -185 c 5
EndSplineSet
Validated: 1
EndChar

StartChar: uni018E
Encoding: 398 398 410
Width: 512
VWidth: 1024
Flags: W
LayerCount: 2
Fore
SplineSet
466 71 m 5
 31 71 l 5
 31 0 l 5
 466 0 l 5
 466 71 l 5
466 341 m 5
 31 341 l 5
 31 270 l 5
 466 270 l 5
 466 341 l 5
466 592 m 5
 31 592 l 5
 31 521 l 5
 466 521 l 5
 466 592 l 5
482 592 m 5
 410 592 l 5
 410 0 l 5
 482 0 l 5
 482 592 l 5
EndSplineSet
Validated: 5
EndChar

StartChar: uni029E
Encoding: 670 670 411
Width: 409
VWidth: 1024
Flags: W
LayerCount: 2
Fore
SplineSet
377 409 m 1
 306 409 l 1
 306 243.252929688 l 1
 78 409 l 1
 32 347 l 1
 266.208007812 178.788085938 l 1
 22 55 l 1
 62 -9 l 1
 306 113.418945312 l 1
 306 -204 l 5
 377 -204 l 5
 377 409 l 1
EndSplineSet
Validated: 9
EndChar

StartChar: uni01C3
Encoding: 451 451 412
Width: 133
VWidth: 1024
Flags: W
LayerCount: 2
Fore
SplineSet
31 614 m 1
 102 614 l 1
 102 156 l 1
 31 156 l 1
 31 614 l 1
31 102 m 1
 102 102 l 1
 102 31 l 1
 31 31 l 1
 31 102 l 1
EndSplineSet
Validated: 1
EndChar

StartChar: uni032C
Encoding: 812 812 413
Width: 409
VWidth: 1024
Flags: W
LayerCount: 2
Fore
SplineSet
43 -13 m 1
 105 15 l 1
 198 -126 l 5
 311 14 l 1
 371 -23 l 1
 223 -212 l 5
 166 -212 l 5
 43 -13 l 1
EndSplineSet
Validated: 1
EndChar

StartChar: uni032D
Encoding: 813 813 414
Width: 409
VWidth: 1024
Flags: W
LayerCount: 2
Fore
SplineSet
43 -191 m 5
 105 -219 l 5
 198 -78 l 5
 311 -218 l 5
 371 -181 l 5
 223 8 l 5
 166 8 l 5
 43 -191 l 5
EndSplineSet
Validated: 9
EndChar

StartChar: uni0330
Encoding: 816 816 415
Width: 409
VWidth: 1024
Flags: W
LayerCount: 2
Fore
SplineSet
31 -83 m 5
 57 -150 l 5
 62.3333333333 -146.666666667 70 -141.833333333 80 -135.5 c 132
 90 -129.166666667 97.6666666667 -124.333333333 103 -121 c 132
 108.333333333 -117.666666667 115.333333333 -114.666666667 124 -112 c 132
 132.666666667 -109.333333333 141.333333333 -108 150 -108 c 4
 162 -108 181.333333333 -119.166666667 208 -141.5 c 132
 234.666666667 -163.833333333 255.666666667 -175 271 -175 c 4
 295.666666667 -175 334 -152 386 -106 c 5
 371 -35 l 5
 368.333333333 -37 359 -44.8333333333 343 -58.5 c 132
 327 -72.1666666667 312.666666667 -83.1666666667 300 -91.5 c 132
 287.333333333 -99.8333333333 277 -104 269 -104 c 4
 258.333333333 -104 240 -92.6666666667 214 -70 c 132
 188 -47.3333333333 166.666666667 -36 150 -36 c 4
 116 -36 76.3333333333 -51.6666666667 31 -83 c 5
EndSplineSet
Validated: 9
EndChar

StartChar: uni0331
Encoding: 817 817 416
Width: 409
VWidth: 1024
Flags: W
LayerCount: 2
Fore
SplineSet
39 -69 m 5
 379 -69 l 5
 379 -139 l 5
 39 -139 l 5
 39 -69 l 5
EndSplineSet
Validated: 1
EndChar

StartChar: uni0325
Encoding: 805 805 417
Width: 409
VWidth: 1024
Flags: W
LayerCount: 2
Fore
SplineSet
167 -104.5 m 132
 167 -114.166666667 169.666666667 -122.833333333 175 -130.5 c 132
 180.333333333 -138.166666667 189.333333333 -142 202 -142 c 4
 210.666666667 -142 218.75 -137.916666667 226.25 -129.75 c 4
 231.416666667 -123.916666667 234 -116.333333333 234 -107 c 4
 234 -95.8151041667 232.333333333 -87.8151041667 229 -83 c 4
 223 -74.3333333333 212.333333333 -70 197 -70 c 4
 188.333333333 -70.6666666667 181.166666667 -74 175.5 -80 c 4
 169.833333333 -86.6666666667 167 -94.8333333333 167 -104.5 c 132
113 -104 m 132
 113 -80 121.333333333 -59.6666666667 138 -43 c 132
 154.666666667 -26.3333333333 175 -18 199 -18 c 132
 223 -18 243.333333333 -26.3333333333 260 -43 c 132
 276.666666667 -59.6666666667 285 -80 285 -104 c 132
 285 -128 276.666666667 -148.333333333 260 -165 c 132
 243.333333333 -181.666666667 223 -190 199 -190 c 132
 175 -190 154.666666667 -181.666666667 138 -165 c 132
 121.333333333 -148.333333333 113 -128 113 -104 c 132
EndSplineSet
Validated: 1
EndChar

StartChar: uni02C0
Encoding: 704 704 418
Width: 409
VWidth: 1024
Flags: W
LayerCount: 2
Fore
SplineSet
42 719 m 1
 70 657 l 1
 70 661 71 664.666666667 73 668 c 0
 77.6666666667 674.666666667 87.0631510417 680.426106771 101.189453125 685.278320312 c 0
 119.063151042 691.759440104 144 695 176 695 c 3
 241.333333333 695 274 676.333333333 274 639 c 3
 274 593.666666667 224.666666667 571 126 571 c 25
 126 483 l 1
 196 483 l 25
 196 519 l 21
 294.666666667 542.333333333 344 582.333333333 344 639 c 0
 344 723 288 765 176 765 c 27
 126.666666667 765 82 749.666666667 42 719 c 1
EndSplineSet
Validated: 9
EndChar

StartChar: uni02C1
Encoding: 705 705 419
Width: 409
VWidth: 1024
Flags: W
LayerCount: 2
Fore
SplineSet
361 719 m 5
 333 657 l 5
 333 661 332 664.666666667 330 668 c 4
 325.333333333 674.666666667 315.936848958 680.426106771 301.810546875 685.278320312 c 4
 283.936848958 691.759440104 259 695 227 695 c 7
 161.666666667 695 129 676.333333333 129 639 c 7
 129 593.666666667 178.333333333 571 277 571 c 29
 277 483 l 5
 207 483 l 29
 207 519 l 21
 108.333333333 542.333333333 59 582.333333333 59 639 c 4
 59 723 115 765 227 765 c 31
 276.333333333 765 321 749.666666667 361 719 c 5
EndSplineSet
Validated: 1
EndChar

StartChar: uni0327
Encoding: 807 807 420
Width: 409
VWidth: 1024
Flags: W
LayerCount: 2
Fore
SplineSet
41 -174 m 5
 69 -112 l 5
 69 -116 70 -119.666666667 72 -123 c 4
 76.6666666667 -129.666666667 86.0631510417 -135.426106771 100.189453125 -140.278320312 c 4
 118.063151042 -146.759440104 143 -150 175 -150 c 7
 240.333333333 -150 273 -140.666666667 273 -122 c 7
 273 -99.3333333333 223.666666667 -88 125 -88 c 29
 125 0 l 5
 195 0 l 29
 195 -36 l 21
 293.666666667 -36 343 -64.6666666667 343 -122 c 4
 343 -187.333333333 287 -220 175 -220 c 31
 125.666666667 -220 81 -204.666666667 41 -174 c 5
EndSplineSet
Validated: 1
EndChar

StartChar: uni01B8
Encoding: 440 440 429
Width: 409
VWidth: 1024
Flags: W
LayerCount: 2
Fore
SplineSet
92 530 m 5
 356 227 l 5
 321 172 l 5
 283.666666667 178.666666667 246 182 208 182 c 4
 175.333333333 182 149 171 129 149 c 132
 109 127 99 91.6666666667 99 43 c 132
 99 -5.66666666667 108.833333333 -47.1666666667 128.5 -81.5 c 132
 148.166666667 -115.833333333 178.333333333 -133 219 -133 c 4
 247 -133 269.333333333 -128.666666667 286 -120 c 132
 302.666666667 -111.333333333 320.333333333 -97.3333333333 339 -78 c 5
 384 -135 l 5
 351.333333333 -161.666666667 323.5 -180.666666667 300.5 -192 c 132
 277.5 -203.333333333 249.333333333 -209 216 -209 c 4
 159.333333333 -209 113.666666667 -183.333333333 79 -132 c 132
 44.3333333333 -80.6666666667 27 -21.3333333333 27 46 c 132
 27 113.333333333 44.5 164.333333333 79.5 199 c 132
 114.5 233.666666667 156 251 204 251 c 4
 212.666666667 251 219 250.666666667 223 250 c 132
 227 249.333333333 231.333333333 247.5 236 244.5 c 132
 240.666666667 241.5 245.333333333 236.333333333 250 229 c 5
 30 507 l 5
 30 600 l 5
 378 600 l 5
 378 528 l 5
 92 530 l 5
EndSplineSet
Validated: 5
EndChar

StartChar: uni0186
Encoding: 390 390 431
Width: 512
VWidth: 1024
Flags: W
LayerCount: 2
Fore
SplineSet
77 490 m 5
 85 493.333333333 97.6666666667 499.166666667 115 507.5 c 132
 132.333333333 515.833333333 144.666666667 521.333333333 152 524 c 132
 159.333333333 526.666666667 169.333333333 530.333333333 182 535 c 132
 194.666666667 539.666666667 206.833333333 542.666666667 218.5 544 c 132
 230.166666667 545.333333333 243 546 257 546 c 4
 303.666666667 546 341.333333333 521.5 370 472.5 c 132
 398.666666667 423.5 413 369 413 309 c 4
 413 227 399 165.833333333 371 125.5 c 132
 343 85.1666666667 305 65 257 65 c 4
 207.666666667 65 150 89.3333333333 84 138 c 5
 84 138 84 138 31 90 c 5
 31.6666666667 89.3333333333 35.5 86 42.5 80 c 132
 49.5 74 54.3333333333 70 57 68 c 132
 61 65 61 65 73 56 c 132
 81 50 87.3333333333 45.5 92 42.5 c 132
 96.6666666667 39.5 103.5 35.3333333333 112.5 30 c 132
 121.5 24.6666666667 129.5 20.5 136.5 17.5 c 132
 143.5 14.5 152.166666667 11.1666666667 162.5 7.5 c 132
 172.833333333 3.83333333333 182.5 1 191.5 -1 c 132
 200.5 -3 210.833333333 -4.66666666667 222.5 -6 c 132
 234.166666667 -7.33333333333 245.666666667 -8 257 -8 c 4
 409 -8 485 97.3333333333 485 308 c 4
 485 405.333333333 465.666666667 481.166666667 427 535.5 c 132
 388.333333333 589.833333333 331.666666667 617 257 617 c 4
 179.666666667 617 104.666666667 593.333333333 32 546 c 5
 77 490 77 490 77 490 c 5
EndSplineSet
Validated: 9
EndChar

StartChar: uni030E
Encoding: 782 782 432
Width: 409
VWidth: 1024
Flags: W
LayerCount: 2
Fore
SplineSet
231 741 m 1
 303 743 l 1
 293 549 l 1
 242 549 l 1
 231 741 l 1
90 741 m 1
 162 743 l 1
 152 549 l 1
 100 549 l 1
 90 741 l 1
EndSplineSet
Validated: 1
EndChar

StartChar: uni0279
Encoding: 633 633 435
Width: 409
VWidth: 1024
Flags: W
LayerCount: 2
Fore
SplineSet
372 1 m 5
 301 1 l 5
 301 26.435546875 l 5
 265.549479167 2.81184895833 231.216145833 -9 198 -9 c 4
 169.333333333 -9 139 -0.666666666667 107 16 c 132
 75 32.6666666667 48 53.6666666667 26 79 c 5
 80 117 l 5
 116 81 154.666666667 63 196 63 c 4
 218.666666667 63 237.333333333 67.3333333333 252 76 c 132
 266.666666667 84.6666666667 283 98.6666666667 301 118 c 5
 301 415 l 5
 372 415 l 5
 372 1 l 5
EndSplineSet
Validated: 1
EndChar

StartChar: uni030D
Encoding: 781 781 436
Width: 133
VWidth: 1024
Flags: W
LayerCount: 2
Fore
SplineSet
31 741 m 1
 102 743 l 1
 92 549 l 1
 41 549 l 1
 31 741 l 1
EndSplineSet
Validated: 1
EndChar

StartChar: uni0310
Encoding: 784 784 437
Width: 409
VWidth: 1024
Flags: W
LayerCount: 2
Fore
SplineSet
166 668 m 5
 237 668 l 5
 237 597 l 5
 166 597 l 5
 166 668 l 5
166 668 m 5
 237 668 l 5
 237 597 l 5
 166 597 l 5
 166 668 l 5
94 634 m 1
 58 573 l 1
 73.3333333333 548.333333333 94 528.5 120 513.5 c 0
 148 497.166666667 175.333333333 489 202 489 c 0
 204 489 206.169921875 488.959309896 208.509765625 488.877929688 c 0
 236.169921875 488.959309896 262.574869792 495.183919271 287.724609375 507.551757812 c 0
 314.574869792 521.183919271 336.666666667 540.333333333 354 565 c 1
 310 620 l 1
 303.108723959 609.214192708 286.518880209 595.126302083 260.23046875 577.736328125 c 0
 248.735677083 570.1328125 234.9921875 564.554036459 219 561 c 0
 210.954427083 559.212239583 203.287760417 558.87890625 196 560 c 0
 174.666666667 562 154.729817708 570.928059896 136.189453125 586.784179688 c 0
 115.842447916 603.221679688 101.779296875 618.960286459 94 634 c 1
EndSplineSet
Validated: 5
EndChar

StartChar: uni0245
Encoding: 581 581 438
Width: 512
VWidth: 1024
Flags: W
LayerCount: 2
Fore
SplineSet
481 23 m 5
 302 624 l 5
 219 624 l 5
 407 -12 l 5
 481 23 l 5
29 19 m 5
 98 -13 l 5
 302 624 l 5
 219 624 l 5
 29 19 l 5
EndSplineSet
Validated: 5
EndChar

StartChar: uni0313
Encoding: 787 787 439
Width: 133
VWidth: 1024
Flags: W
LayerCount: 2
Fore
SplineSet
102 540 m 5
 102 519.333333333 97.6666666667 502.333333333 89 489 c 4
 81.6666666667 477.666666667 68.3333333333 467 49 457 c 5
 38 475 l 5
 55.3333333333 485 66 493.666666667 70 501 c 4
 74.6666666667 509 77 522 77 540 c 5
 102 540 l 5
31 611 m 5
 102 611 l 5
 102 540 l 5
 77 540 l 5
 31 540 l 5
 31 611 l 5
EndSplineSet
Validated: 5
EndChar

StartChar: uni0312
Encoding: 786 786 440
Width: 133
VWidth: 1024
Flags: W
LayerCount: 2
Fore
SplineSet
29 588 m 5
 29 608.666666667 33.3333333333 625.666666667 42 639 c 4
 49.3333333333 650.333333333 62.6666666667 661 82 671 c 5
 93 653 l 5
 75.6666666667 643 65 634.333333333 61 627 c 4
 56.3333333333 619 54 606 54 588 c 5
 29 588 l 5
100 517 m 5
 29 517 l 5
 29 588 l 5
 54 588 l 5
 100 588 l 5
 100 517 l 5
EndSplineSet
Validated: 5
EndChar

StartChar: uni0250
Encoding: 592 592 441
Width: 409
VWidth: 1024
Flags: W
LayerCount: 2
Fore
SplineSet
313 207 m 132
 313 164.333333333 303.833333333 130 285.5 104 c 132
 267.166666667 78 241.333333333 65 208 65 c 132
 174.666666667 65 149.5 77.8333333333 132.5 103.5 c 132
 115.5 129.166666667 107 163.666666667 107 207 c 132
 107 250.333333333 115.5 284.666666667 132.5 310 c 132
 149.5 335.333333333 174.666666667 348 208 348 c 132
 241.333333333 348 267.166666667 335.166666667 285.5 309.5 c 132
 303.833333333 283.833333333 313 249.666666667 313 207 c 132
385 206 m 132
 385 265.333333333 368.166666667 315.833333333 334.5 357.5 c 132
 300.833333333 399.166666667 258.666666667 420 208 420 c 4
 169.220052083 420 135.553385417 407.568033854 107 382.704101562 c 5
 107 414 l 5
 35 414 l 5
 35 231.018554688 l 6
 34.3333333333 222.867513021 34 214.527994792 34 206 c 132
 34 197.472005208 34.3333333333 189.132486979 35 180.981445312 c 6
 35 0 l 5
 107 0 l 5
 107 29.2958984375 l 5
 135.553385417 4.43196614583 169.220052083 -8 208 -8 c 4
 258.666666667 -8 300.833333333 12.8333333333 334.5 54.5 c 132
 368.166666667 96.1666666667 385 146.666666667 385 206 c 132
EndSplineSet
Validated: 9
EndChar

StartChar: uni0338
Encoding: 824 824 442
Width: 409
VWidth: 1024
Flags: W
LayerCount: 2
Fore
SplineSet
304 605 m 1
 378 575 l 1
 116 -7 l 1
 42 23 l 1
 304 605 l 1
EndSplineSet
Validated: 1
EndChar

StartChar: uni0265
Encoding: 613 613 443
Width: 382
VWidth: 1024
Flags: W
LayerCount: 2
Fore
SplineSet
359 -204 m 5
 287 -204 l 5
 287 23.3720703125 l 1
 251.666666667 -0.209309895833 217.666666667 -12 185 -12 c 0
 163 -12 139.666666667 -7.66666666667 115 1 c 128
 90.3333333333 9.66666666667 67.8333333333 24.1666666667 47.5 44.5 c 128
 27.1666666667 64.8333333333 16.6666666667 88.6666666667 16 116 c 0
 16 118 15.5 134.833333333 14.5 166.5 c 128
 13.5 198.166666667 12.5 237.166666667 11.5 283.5 c 128
 10.5 329.833333333 10 372.666666667 10 412 c 1
 82 412 l 1
 81 128 l 2
 81 104.666666667 91.6666666667 87.5 113 76.5 c 128
 134.333333333 65.5 157.666666667 60 183 60 c 0
 205.666666667 60 224.166666667 64.1666666667 238.5 72.5 c 128
 252.833333333 80.8333333333 269 95 287 115 c 1
 287 412 l 1
 359 412 l 1
 359 -204 l 5
EndSplineSet
Validated: 1
EndChar

StartChar: uni0270
Encoding: 624 624 444
Width: 614
VWidth: 1024
Flags: W
LayerCount: 2
Fore
SplineSet
584 -205 m 5
 513 -205 l 5
 513 21.95703125 l 1
 512.333333333 21.3190104167 511.833333333 21 511.5 21 c 0
 509.166666667 19.6666666667 505.333333333 17 500 13 c 128
 494.666666667 9 490.333333333 6.33333333333 487 5 c 128
 483.666666667 3.66666666667 479.333333333 1.83333333333 474 -0.5 c 128
 468.666666667 -2.83333333333 463.666666667 -4.5 459 -5.5 c 128
 454.333333333 -6.5 449.166666667 -7.33333333333 443.5 -8 c 128
 437.833333333 -8.66666666667 432 -9 426 -9 c 0
 391.333333333 -9 359.333333333 -1.16666666667 330 14.5 c 0
 317.333333333 21.5 306.541666667 29.900390625 297.625 39.701171875 c 1
 295.875 37.900390625 292.666666667 35 288 31 c 0
 282 25.6666666667 277.833333333 22.3333333333 275.5 21 c 128
 273.166666667 19.6666666667 269.333333333 17 264 13 c 128
 258.666666667 9 254.333333333 6.33333333333 251 5 c 128
 247.666666667 3.66666666667 243.333333333 1.83333333333 238 -0.5 c 128
 232.666666667 -2.83333333333 227.666666667 -4.5 223 -5.5 c 128
 218.333333333 -6.5 213.166666667 -7.33333333333 207.5 -8 c 128
 201.833333333 -8.66666666667 196 -9 190 -9 c 0
 155.333333333 -9 123.333333333 -1.16666666667 94 14.5 c 128
 64.6666666667 30.1666666667 45.3333333333 54.6666666667 36 88 c 0
 32.6666666667 100.666666667 31 209.666666667 31 415 c 1
 103 415 l 1
 103 114 l 2
 103 99.3333333333 107.666666667 88 117 80 c 128
 126.333333333 72 136.166666667 67.1666666667 146.5 65.5 c 128
 156.833333333 63.8333333333 170.666666667 63 188 63 c 0
 197.333333333 63 205.333333333 63.5 212 64.5 c 128
 218.666666667 65.5 225.333333333 68.3333333333 232 73 c 128
 238.666666667 77.6666666667 243.166666667 81 245.5 83 c 128
 247.833333333 85 253 90.5 261 99.5 c 0
 267 105.833333333 270.022786458 109.266601563 270.068359375 109.799804688 c 0
 270.689453125 152.599934896 269.666666667 254.333333333 267 415 c 1
 339 415 l 1
 339 114 l 2
 339 99.3333333333 343.666666667 88 353 80 c 128
 362.333333333 72 372.166666667 67.1666666667 382.5 65.5 c 128
 392.833333333 63.8333333333 406.666666667 63 424 63 c 0
 433.333333333 63 441.333333333 63.5 448 64.5 c 128
 454.666666667 65.5 461.333333333 68.3333333333 468 73 c 128
 474.666666667 77.6666666667 479.166666667 81 481.5 83 c 128
 483.833333333 85 489 90.5 497 99.5 c 128
 505 108.5 510.333333333 114.666666667 513 118 c 1
 513 415 l 1
 584 415 l 1
 584 -205 l 5
EndSplineSet
Validated: 33
EndChar

StartChar: uni0287
Encoding: 647 647 445
Width: 409
VWidth: 1024
Flags: W
LayerCount: 2
Fore
SplineSet
310 -197 m 5
 238 -197 l 5
 238 -25 l 5
 33 -25 l 5
 33 46 l 5
 238 46 l 5
 238 221 l 6
 237.333333333 249 230 277 216 305 c 132
 202 333 187.333333333 347 172 347 c 4
 150.666666667 347 134 342.166666667 122 332.5 c 132
 110 322.833333333 95.6666666667 305.666666667 79 281 c 5
 30 335 l 5
 50.6666666667 356.333333333 65.6666666667 371.333333333 75 380 c 132
 84.3333333333 388.666666667 97.8333333333 397.333333333 115.5 406 c 132
 133.166666667 414.666666667 152 419 172 419 c 4
 206 419.666666667 237.833333333 401.166666667 267.5 363.5 c 132
 297.166666667 325.833333333 312 279 312 223 c 6
 311.157226562 46 l 5
 383 46 l 5
 383 -25 l 5
 310.819335938 -25 l 5
 310 -197 l 5
EndSplineSet
Validated: 33
EndChar

StartChar: uni01C1
Encoding: 449 449 446
Width: 235
VWidth: 1024
Flags: W
LayerCount: 2
Fore
SplineSet
131 820 m 1
 203 820 l 1
 203 0 l 1
 131 0 l 1
 131 820 l 1
31 820 m 1
 103 820 l 1
 103 0 l 1
 31 0 l 1
 31 820 l 1
EndSplineSet
Validated: 1
EndChar

StartChar: uni0334
Encoding: 820 820 447
Width: 409
VWidth: 1024
Flags: W
LayerCount: 2
Fore
SplineSet
31 264 m 5
 57 197 l 5
 62.3333333333 200.333333333 70 205.166666667 80 211.5 c 132
 90 217.833333333 97.6666666667 222.666666667 103 226 c 132
 108.333333333 229.333333333 115.333333333 232.333333333 124 235 c 132
 132.666666667 237.666666667 141.333333333 239 150 239 c 4
 162 239 181.333333333 227.833333333 208 205.5 c 132
 234.666666667 183.166666667 255.666666667 172 271 172 c 4
 295.666666667 172 334 195 386 241 c 5
 371 312 l 5
 368.333333333 310 359 302.166666667 343 288.5 c 132
 327 274.833333333 312.666666667 263.833333333 300 255.5 c 132
 287.333333333 247.166666667 277 243 269 243 c 4
 258.333333333 243 240 254.333333333 214 277 c 132
 188 299.666666667 166.666666667 311 150 311 c 4
 116 311 76.3333333333 295.333333333 31 264 c 5
EndSplineSet
Validated: 9
EndChar

StartChar: uni0316
Encoding: 790 790 448
Width: 409
VWidth: 1024
Flags: W
LayerCount: 2
Fore
SplineSet
63.232421875 -17.681640625 m 5
 378.595703125 -127.69140625 l 5
 352 -193 l 5
 36.63671875 -82.9892578125 l 5
 63.232421875 -17.681640625 l 5
EndSplineSet
Validated: 1
EndChar

StartChar: uni0317
Encoding: 791 791 449
Width: 409
VWidth: 1024
Flags: W
LayerCount: 2
Fore
SplineSet
63.232421875 -178.318359375 m 5
 378.595703125 -68.30859375 l 5
 352 -3 l 5
 36.63671875 -113.010742188 l 5
 63.232421875 -178.318359375 l 5
EndSplineSet
Validated: 9
EndChar

StartChar: rho
Encoding: 961 961 691
Width: 409
VWidth: 1024
Flags: W
LayerCount: 2
Fore
SplineSet
28 206 m 1
 98 206 l 1
 98 -205 l 5
 28 -205 l 5
 28 206 l 1
28 206 m 128
 28 265.333333333 44.8333333333 315.833333333 78.5 357.5 c 128
 112.166666667 399.166666667 154.333333333 420 205 420 c 128
 255.666666667 420 297.833333333 399.166666667 331.5 357.5 c 128
 365.166666667 315.833333333 382 265.333333333 382 206 c 128
 382 146.666666667 365.166666667 96.1666666667 331.5 54.5 c 128
 297.833333333 12.8333333333 255.666666667 -8 205 -8 c 128
 154.333333333 -8 112.166666667 12.8333333333 78.5 54.5 c 128
 44.8333333333 96.1666666667 28 146.666666667 28 206 c 128
100 207 m 128
 100 164.333333333 109.166666667 130 127.5 104 c 128
 145.833333333 78 171.666666667 65 205 65 c 128
 238.333333333 65 264 78 282 104 c 128
 300 130 309 164.333333333 309 207 c 128
 309 249.666666667 300 283.833333333 282 309.5 c 128
 264 335.166666667 238.333333333 348 205 348 c 128
 171.666666667 348 145.833333333 335.166666667 127.5 309.5 c 128
 109.166666667 283.833333333 100 249.666666667 100 207 c 128
EndSplineSet
EndChar

StartChar: uni0314
Encoding: 788 788 848
Width: 133
VWidth: 1024
Flags: W
LayerCount: 2
Fore
SplineSet
29 540 m 5
 29 519.333333333 33.3333333333 502.333333333 42 489 c 4
 49.3333333333 477.666666667 62.6666666667 467 82 457 c 5
 93 475 l 5
 75.6666666667 485 65 493.666666667 61 501 c 4
 56.3333333333 509 54 522 54 540 c 5
 29 540 l 5
100 611 m 5
 29 611 l 5
 29 540 l 5
 54 540 l 5
 100 540 l 5
 100 611 l 5
EndSplineSet
Validated: 5
EndChar

StartChar: uni0315
Encoding: 789 789 849
Width: 133
VWidth: 1024
Flags: W
LayerCount: 2
Fore
SplineSet
102 540 m 5
 102 519.333333333 97.6666666667 502.333333333 89 489 c 4
 81.6666666667 477.666666667 68.3333333333 467 49 457 c 5
 38 475 l 5
 55.3333333333 485 66 493.666666667 70 501 c 4
 74.6666666667 509 77 522 77 540 c 5
 102 540 l 5
31 611 m 5
 102 611 l 5
 102 540 l 5
 77 540 l 5
 31 540 l 5
 31 611 l 5
EndSplineSet
Validated: 5
EndChar

StartChar: uni0318
Encoding: 792 792 850
Width: 409
VWidth: 1024
Flags: W
LayerCount: 2
Fore
SplineSet
107 -70 m 5
 254 -70 l 5
 254 -140 l 5
 107 -140 l 5
 107 -70 l 5
242 0 m 5
 312 0 l 5
 312 -199 l 5
 242 -199 l 5
 242 0 l 5
EndSplineSet
Validated: 5
EndChar

StartChar: uni0319
Encoding: 793 793 851
Width: 409
VWidth: 1024
Flags: W
LayerCount: 2
Fore
SplineSet
310 -70 m 5
 163 -70 l 5
 163 -140 l 5
 310 -140 l 5
 310 -70 l 5
175 0 m 5
 105 0 l 5
 105 -199 l 5
 175 -199 l 5
 175 0 l 5
EndSplineSet
Validated: 5
EndChar

StartChar: uni031E
Encoding: 798 798 1041
Width: 409
VWidth: 1024
Flags: W
LayerCount: 2
Fore
SplineSet
167 -205 m 5
 167 -58 l 5
 237 -58 l 5
 237 -205 l 5
 167 -205 l 5
97 -70 m 5
 97 0 l 5
 296 0 l 5
 296 -70 l 5
 97 -70 l 5
EndSplineSet
Validated: 5
EndChar

StartChar: uni0326
Encoding: 806 806 1042
Width: 133
VWidth: 1024
Flags: W
LayerCount: 2
Fore
SplineSet
102 -85 m 5
 102 -105.666666667 97.6666666667 -122.666666667 89 -136 c 4
 81.6666666667 -147.333333333 68.3333333333 -158 49 -168 c 5
 38 -150 l 5
 55.3333333333 -140 66 -131.333333333 70 -124 c 4
 74.6666666667 -116 77 -103 77 -85 c 5
 102 -85 l 5
31 -14 m 5
 102 -14 l 5
 102 -85 l 5
 77 -85 l 5
 31 -85 l 5
 31 -14 l 5
EndSplineSet
Validated: 5
EndChar

StartChar: uni031F
Encoding: 799 799 1050
Width: 409
VWidth: 1024
Flags: W
LayerCount: 2
Fore
SplineSet
243 -204 m 5
 171 -204 l 5
 171 0 l 1
 243 0 l 1
 243 -204 l 5
73 -60 m 1
 339 -60 l 1
 339 -132 l 1
 73 -132 l 1
 73 -60 l 1
EndSplineSet
Validated: 5
EndChar

StartChar: uni031A
Encoding: 794 794 1059
Width: 409
VWidth: 1024
Flags: W
LayerCount: 2
Fore
SplineSet
373 739 m 1
 373 590 l 1
 303 590 l 1
 303 739 l 1
 373 739 l 1
30 739 m 1
 373 739 l 1
 373 669 l 5
 30 669 l 5
 30 739 l 1
EndSplineSet
Validated: 5
EndChar

StartChar: Lambda
Encoding: 923 923 1060
Width: 512
VWidth: 1024
Flags: W
LayerCount: 2
Fore
SplineSet
481 23 m 5
 302 624 l 5
 219 624 l 5
 407 -12 l 5
 481 23 l 5
29 19 m 5
 98 -13 l 5
 302 624 l 5
 219 624 l 5
 29 19 l 5
EndSplineSet
Validated: 5
EndChar

StartChar: uni031B
Encoding: 795 795 1061
Width: 409
VWidth: 1024
Flags: W
LayerCount: 2
Fore
SplineSet
202 715 m 5
 272 715 l 1
 272 659.666666667 259 616.666666667 233 586 c 24
 208.333333333 557.333333333 162.666666667 541 96 537 c 1
 96 607 l 1
 133.770491803 608.770491803 162.103825137 619.103825137 181 638 c 4
 193.666666667 650.666666667 200.666666667 676.333333333 202 715 c 5
EndSplineSet
Validated: 1
EndChar

StartChar: uni0352
Encoding: 850 850 1062
Width: 409
VWidth: 1024
Flags: W
LayerCount: 2
Fore
SplineSet
166 509 m 5
 237 509 l 5
 237 580 l 5
 166 580 l 5
 166 509 l 5
166 509 m 5
 237 509 l 5
 237 580 l 5
 166 580 l 5
 166 509 l 5
94 543 m 5
 58 604 l 5
 73.3333333333 628.666666667 94 648.5 120 663.5 c 4
 148 679.833333333 175.333333333 688 202 688 c 4
 204 688 206.169921875 688.040690104 208.509765625 688.122070312 c 4
 236.169921875 688.040690104 262.574869792 681.816080729 287.724609375 669.448242188 c 4
 314.574869792 655.816080729 336.666666667 636.666666667 354 612 c 5
 310 557 l 5
 303.108723959 567.785807292 286.518880209 581.873697917 260.23046875 599.263671875 c 4
 248.735677083 606.8671875 234.9921875 612.445963541 219 616 c 4
 210.954427083 617.787760417 203.287760417 618.12109375 196 617 c 4
 174.666666667 615 154.729817708 606.071940104 136.189453125 590.215820312 c 4
 115.842447916 573.778320312 101.779296875 558.039713541 94 543 c 5
EndSplineSet
Validated: 5
EndChar

StartChar: uni031C
Encoding: 796 796 1087
Width: 409
VWidth: 1024
Flags: W
LayerCount: 2
Fore
SplineSet
188 2 m 5
 127 38 l 5
 102.333333333 22.6666666667 82.5 2 67.5 -24 c 4
 51.1666666667 -52 43 -79.3333333333 43 -106 c 4
 43 -108 42.9593098958 -110.169921875 42.8779296875 -112.509765625 c 4
 42.9593098958 -140.169921875 49.1839192708 -166.574869792 61.5517578125 -191.724609375 c 4
 75.1839192708 -218.574869792 94.3333333333 -240.666666667 119 -258 c 5
 174 -214 l 5
 163.214192708 -207.108723959 149.126302083 -190.518880209 131.736328125 -164.23046875 c 4
 124.1328125 -152.735677083 118.554036459 -138.9921875 115 -123 c 4
 113.212239583 -114.954427083 112.87890625 -107.287760417 114 -100 c 4
 116 -78.6666666667 124.928059896 -58.7298177083 140.784179688 -40.189453125 c 4
 157.221679688 -19.8424479167 172.960286459 -5.779296875 188 2 c 5
EndSplineSet
Validated: 9
EndChar

StartChar: uni031D
Encoding: 797 797 1088
Width: 409
VWidth: 1024
Flags: W
LayerCount: 2
Fore
SplineSet
167 0 m 5
 167 -147 l 5
 237 -147 l 5
 237 0 l 5
 167 0 l 5
97 -135 m 5
 97 -205 l 5
 296 -205 l 5
 296 -135 l 5
 97 -135 l 5
EndSplineSet
Validated: 5
EndChar

StartChar: uni0320
Encoding: 800 800 1089
Width: 409
VWidth: 1024
Flags: W
LayerCount: 2
Fore
SplineSet
39 -69 m 5
 379 -69 l 5
 379 -139 l 5
 39 -139 l 5
 39 -69 l 5
EndSplineSet
Validated: 1
EndChar

StartChar: uni0339
Encoding: 825 825 1090
Width: 409
VWidth: 1024
Flags: W
LayerCount: 2
Fore
SplineSet
180 2 m 5
 241 38 l 5
 265.666666667 22.6666666667 285.5 2 300.5 -24 c 4
 316.833333333 -52 325 -79.3333333333 325 -106 c 4
 325 -108 325.040690104 -110.169921875 325.122070312 -112.509765625 c 4
 325.040690104 -140.169921875 318.816080729 -166.574869792 306.448242188 -191.724609375 c 4
 292.816080729 -218.574869792 273.666666667 -240.666666667 249 -258 c 5
 194 -214 l 5
 204.785807292 -207.108723959 218.873697917 -190.518880209 236.263671875 -164.23046875 c 4
 243.8671875 -152.735677083 249.445963541 -138.9921875 253 -123 c 4
 254.787760417 -114.954427083 255.12109375 -107.287760417 254 -100 c 4
 252 -78.6666666667 243.071940104 -58.7298177083 227.215820312 -40.189453125 c 4
 210.778320312 -19.8424479167 195.039713541 -5.779296875 180 2 c 5
EndSplineSet
Validated: 1
EndChar

StartChar: uni0337
Encoding: 823 823 1091
Width: 409
VWidth: 1024
Flags: W
LayerCount: 2
Fore
SplineSet
304 406 m 1
 365 374 l 5
 105 -10 l 5
 42 23 l 1
 304 406 l 1
EndSplineSet
Validated: 1
EndChar

StartChar: uni0345
Encoding: 837 837 1092
Width: 409
VWidth: 1024
Flags: W
LayerCount: 2
Fore
SplineSet
196 1 m 5
 126 1 l 5
 126 -54.3333333333 139 -97.3333333333 165 -128 c 28
 189.666666667 -156.666666667 235.333333333 -173 302 -177 c 5
 302 -107 l 5
 264.229817708 -105.229817708 235.896484375 -94.8964843747 217 -76 c 4
 204.333333333 -63.3333333333 197.333333333 -37.6666666667 196 1 c 5
EndSplineSet
Validated: 9
EndChar

StartChar: Dcroat
Encoding: 272 272 1097
Width: 512
VWidth: 1024
Flags: W
LayerCount: 2
Fore
SplineSet
0 340 m 1
 0 270 l 1
 191 270 l 5
 191 340 l 5
 0 340 l 1
31 614 m 1
 31 543 l 1
 242 543 l 2
 302.666666667 541.666666667 345.833333333 523 371.5 487 c 128
 397.166666667 451 410 390 410 304 c 0
 410 234 395 178.333333333 365 137 c 128
 335 95.6666666667 296 74.3333333333 248 73 c 2
 31 72 l 1
 31 0 l 1
 248 0 l 2
 312 0 366.833333333 28.6666666667 412.5 86 c 128
 458.166666667 143.333333333 481 217 481 307 c 0
 481 406.333333333 461.166666667 482.333333333 421.5 535 c 128
 381.833333333 587.666666667 324.666666667 614 250 614 c 2
 31 614 l 1
31 614 m 1
 31 0 l 1
 102 0 l 1
 102 614 l 1
 31 614 l 1
EndSplineSet
Validated: 5
EndChar

StartChar: uni0189
Encoding: 393 393 1098
Width: 512
VWidth: 1024
Flags: W
LayerCount: 2
Fore
SplineSet
0 340 m 1
 0 270 l 1
 191 270 l 5
 191 340 l 5
 0 340 l 1
31 614 m 1
 31 543 l 1
 242 543 l 2
 302.666666667 541.666666667 345.833333333 523 371.5 487 c 128
 397.166666667 451 410 390 410 304 c 0
 410 234 395 178.333333333 365 137 c 128
 335 95.6666666667 296 74.3333333333 248 73 c 2
 31 72 l 1
 31 0 l 1
 248 0 l 2
 312 0 366.833333333 28.6666666667 412.5 86 c 128
 458.166666667 143.333333333 481 217 481 307 c 0
 481 406.333333333 461.166666667 482.333333333 421.5 535 c 128
 381.833333333 587.666666667 324.666666667 614 250 614 c 2
 31 614 l 1
31 614 m 1
 31 0 l 1
 102 0 l 1
 102 614 l 1
 31 614 l 1
EndSplineSet
Validated: 5
EndChar

StartChar: uni0328
Encoding: 808 808 1099
Width: 409
VWidth: 1024
Flags: W
LayerCount: 2
Fore
SplineSet
273.634765625 -161.0703125 m 5
 240.716796875 -222.84765625 l 5
 191.883463542 -196.826822917 160.047851563 -165.1328125 145.209960938 -127.765625 c 28
 131.510742187 -92.5162760417 138.571289062 -44.533203125 166.391601562 16.18359375 c 5
 228.16796875 -16.734375 l 5
 211.96875 -50.9010416667 207.764322917 -80.765625 215.5546875 -106.328125 c 4
 220.77734375 -123.462890625 240.137369792 -141.710286459 273.634765625 -161.0703125 c 5
EndSplineSet
Validated: 33
EndChar

StartChar: uni0329
Encoding: 809 809 1112
Width: 133
VWidth: 1024
Flags: W
LayerCount: 2
Fore
SplineSet
31 -9 m 5
 102 -9 l 5
 103 -201 l 5
 30 -201 l 5
 31 -9 l 5
EndSplineSet
Validated: 1
EndChar

StartChar: uni0196
Encoding: 406 406 1113
Width: 133
VWidth: 1024
Flags: W
LayerCount: 2
Fore
SplineSet
31 614 m 1
 102 614 l 1
 102 0 l 1
 31 0 l 1
 31 614 l 1
EndSplineSet
Validated: 1
EndChar

StartChar: uni0321
Encoding: 801 801 1116
Width: 409
VWidth: 1024
Flags: W
LayerCount: 2
Fore
SplineSet
202 1 m 5
 272 1 l 5
 272 -54.3333333333 259 -97.3333333333 233 -128 c 28
 208.333333333 -156.666666667 162.666666667 -173 96 -177 c 5
 96 -107 l 5
 133.770182292 -105.229817708 162.103515625 -94.8964843747 181 -76 c 4
 193.666666667 -63.3333333333 200.666666667 -37.6666666667 202 1 c 5
EndSplineSet
EndChar

StartChar: uni035E
Encoding: 862 862 1117
Width: 679
VWidth: 1024
Flags: W
LayerCount: 2
Fore
SplineSet
339 609 m 1
 679 609 l 1
 679 539 l 1
 339 539 l 1
 339 609 l 1
0 609 m 1
 340 609 l 1
 340 539 l 1
 0 539 l 1
 0 609 l 1
EndSplineSet
EndChar

StartChar: uni035F
Encoding: 863 863 1118
Width: 679
VWidth: 1024
Flags: W
LayerCount: 2
Fore
SplineSet
339 -61 m 5
 679 -61 l 5
 679 -131 l 5
 339 -131 l 5
 339 -61 l 5
0 -61 m 5
 340 -61 l 5
 340 -131 l 5
 0 -131 l 5
 0 -61 l 5
EndSplineSet
EndChar

StartChar: uni02C2
Encoding: 706 706 1119
Width: 409
VWidth: 1024
Flags: W
LayerCount: 2
Fore
SplineSet
338 416 m 1
 379 354 l 1
 117 219 l 1
 379 29 l 1
 334 -27 l 1
 31 197 l 1
 31 248 l 1
 338 416 l 1
EndSplineSet
EndChar

StartChar: uni02C3
Encoding: 707 707 1120
Width: 409
VWidth: 1024
Flags: W
LayerCount: 2
Fore
SplineSet
73 416 m 1
 32 354 l 1
 294 219 l 1
 32 29 l 1
 77 -27 l 1
 380 197 l 1
 380 248 l 1
 73 416 l 1
EndSplineSet
EndChar

StartChar: dcroat
Encoding: 273 273 1134
Width: 409
VWidth: 1024
Flags: W
LayerCount: 2
Fore
SplineSet
207 663 m 5
 407 663 l 5
 407 593 l 5
 207 593 l 5
 207 663 l 5
307 819 m 1
 379 819 l 1
 379 240.88 l 2
 380.333333333 229.626666667 381 218 381 206 c 128
 381 194 380.333333333 182.373333333 379 171.12 c 2
 379 0 l 1
 307 0 l 1
 307 29.080890627 l 1
 278.183350303 4.36029687567 244.183350303 -8 205 -8 c 0
 154.333333333 -8 112.166666667 12.8333333333 78.5 54.5 c 128
 44.8333333333 96.1666666667 28 146.666666667 28 206 c 128
 28 265.333333333 44.8333333333 315.833333333 78.5 357.5 c 128
 112.166666667 399.166666667 154.333333333 420 205 420 c 0
 244.183350303 420 278.183350303 407.639703124 307 382.919109373 c 1
 307 819 l 1
100 207 m 128
 100 164.333333333 109.166666667 130 127.5 104 c 128
 145.833333333 78 171.666666667 65 205 65 c 128
 238.333333333 65 264 78 282 104 c 0
 295.101020515 122.923696299 303.434353848 146.261917765 307 174.014664399 c 1
 307 239.948298564 l 1
 303.434353848 267.635014714 295.101020515 290.818915193 282 309.5 c 0
 264 335.166666667 238.333333333 348 205 348 c 128
 171.666666667 348 145.833333333 335.166666667 127.5 309.5 c 128
 109.166666667 283.833333333 100 249.666666667 100 207 c 128
EndSplineSet
EndChar

StartChar: Hbar
Encoding: 294 294 1135
Width: 512
VWidth: 1024
Flags: W
LayerCount: 2
Fore
SplineSet
0 500 m 5
 512 500 l 5
 512 430 l 5
 0 430 l 5
 0 500 l 5
31 614 m 1
 102 614 l 1
 102 343 l 1
 410 343 l 1
 410 614 l 1
 481 614 l 1
 481 2 l 1
 410 0 l 1
 410 257 l 1
 102 257 l 1
 102 0 l 1
 31 0 l 1
 31 614 l 1
EndSplineSet
EndChar

StartChar: hbar
Encoding: 295 295 1136
Width: 382
VWidth: 1024
Flags: W
LayerCount: 2
Fore
SplineSet
0 649 m 5
 200 649 l 5
 200 579 l 5
 0 579 l 5
 0 649 l 5
31 820 m 1
 103 820 l 1
 103 388.62754045 l 1
 138.274683227 412.20918015 172.274683227 424 205 424 c 0
 227 424 250.333333333 419.666666667 275 411 c 128
 299.666666667 402.333333333 322.166666667 387.833333333 342.5 367.5 c 128
 362.833333333 347.166666667 373.333333333 323.333333333 374 296 c 0
 374 294 374.5 277.166666667 375.5 245.5 c 128
 376.5 213.833333333 377.5 174.833333333 378.5 128.5 c 128
 379.5 82.1666666667 380 39.3333333333 380 0 c 1
 308 0 l 1
 309 284 l 2
 309 307.333333333 298.333333333 324.5 277 335.5 c 128
 255.666666667 346.5 232.333333333 352 207 352 c 0
 184.333333333 352 165.833333333 347.833333333 151.5 339.5 c 128
 137.166666667 331.166666667 121 317 103 297 c 1
 103 0 l 1
 31 0 l 1
 31 820 l 1
EndSplineSet
EndChar

StartChar: kgreenlandic
Encoding: 312 312 1137
Width: 409
VWidth: 1024
Flags: W
LayerCount: 2
Fore
SplineSet
31 0 m 1
 102 0 l 1
 102 165.747440273 l 1
 330 0 l 1
 376 62 l 1
 141.791540523 230.211573989 l 1
 386 354 l 1
 346 418 l 1
 102 295.580756014 l 1
 102 400 l 5
 31 400 l 5
 31 0 l 1
EndSplineSet
EndChar

StartChar: eng
Encoding: 331 331 1138
Width: 409
VWidth: 1024
Flags: W
LayerCount: 2
Fore
SplineSet
30 414 m 1
 101 414 l 1
 101 388.564453125 l 1
 136.450520833 412.188151042 170.783854167 424 204 424 c 0
 240 424 274.833333333 416.166666667 308.5 400.5 c 128
 342.166666667 384.833333333 363.666666667 360.333333333 373 327 c 0
 376.333333333 314.333333333 378 205.333333333 378 0 c 1
 306 0 l 1
 306 301 l 2
 305.333333333 335 272 352 206 352 c 0
 183.333333333 352 164.666666667 347.666666667 150 339 c 128
 135.333333333 330.333333333 119 316.333333333 101 297 c 1
 101 0 l 1
 30 0 l 1
 30 414 l 1
377 184 m 5
 379 -13 l 6
 379.549479167 -67.1243489583 361.3828125 -113.791015625 324.5 -153 c 4
 288.166666667 -191 252.333333333 -209.666666667 217 -209 c 4
 182.333333333 -208.333333333 147.333333333 -200.666666667 112 -186 c 132
 76.6666666667 -171.333333333 49.6666666667 -151 31 -125 c 5
 91 -74 l 5
 105 -116 147 -137 217 -137 c 4
 233 -137 251.666666667 -122.666666667 273 -94 c 4
 295 -64.6666666667 306 -37 306 -11 c 6
 306 184 l 5
 377 184 l 5
EndSplineSet
EndChar

StartChar: Lslash
Encoding: 321 321 1139
Width: 512
VWidth: 1024
Flags: W
LayerCount: 2
Fore
SplineSet
-15.1513671875 382.770507812 m 5
 167.646484375 450.666015625 l 5
 192.01953125 385.046875 l 5
 9.2216796875 317.150390625 l 5
 -15.1513671875 382.770507812 l 5
47 66 m 1
 481 66 l 1
 481 0 l 1
 47 0 l 1
 47 66 l 1
31 614 m 1
 102 614 l 1
 102 0 l 1
 31 0 l 1
 31 614 l 1
EndSplineSet
EndChar

StartChar: lslash
Encoding: 322 322 1140
Width: 204
VWidth: 1024
Flags: W
LayerCount: 2
Fore
SplineSet
-15.1513671875 434.770507812 m 5
 167.646484375 502.666015625 l 5
 192.01953125 437.046875 l 5
 9.2216796875 369.150390625 l 5
 -15.1513671875 434.770507812 l 5
31 819 m 1
 103 819 l 1
 103 194 l 2
 103.666666667 167.333333333 114.666666667 139.666666667 136 111 c 128
 157.333333333 82.3333333333 176 68 192 68 c 0
 226.666666667 68 253.333333333 75.3333333333 272 90 c 1
 295 27 l 1
 269 13.6666666667 250.333333333 5.16666666667 239 1.5 c 128
 227.666666667 -2.16666666667 212 -4 192 -4 c 0
 156 -4 119.833333333 14.8333333333 83.5 52.5 c 128
 47.1666666667 90.1666666667 29 136.333333333 29 191 c 2
 31 819 l 1
EndSplineSet
EndChar

StartChar: Tbar
Encoding: 358 358 1141
Width: 512
VWidth: 1024
Flags: W
LayerCount: 2
Fore
SplineSet
167 374 m 5
 353 374 l 5
 353 304 l 5
 167 304 l 5
 167 374 l 5
224 594 m 1
 296 594 l 1
 296 0 l 1
 224 0 l 1
 224 594 l 1
31 614 m 1
 481 614 l 1
 481 541 l 1
 31 541 l 1
 31 614 l 1
EndSplineSet
EndChar

StartChar: tbar
Encoding: 359 359 1142
Width: 409
VWidth: 1024
Flags: W
LayerCount: 2
Fore
SplineSet
27 300 m 1
 213 300 l 1
 213 230 l 1
 27 230 l 1
 27 300 l 1
100 614 m 1
 172 614 l 1
 172 442 l 1
 377 442 l 1
 377 371 l 1
 172 371 l 1
 172 196 l 2
 172.666666667 168 180 140 194 112 c 128
 208 84 222.666666667 70 238 70 c 0
 259.333333333 70 276 74.8333333333 288 84.5 c 128
 300 94.1666666667 314.333333333 111.333333333 331 136 c 1
 380 82 l 1
 359.333333333 60.6666666667 344.333333333 45.6666666667 335 37 c 128
 325.666666667 28.3333333333 312.166666667 19.6666666667 294.5 11 c 128
 276.833333333 2.33333333333 258 -2 238 -2 c 0
 204 -2.66666666667 172.166666667 15.8333333333 142.5 53.5 c 128
 112.833333333 91.1666666667 98 138 98 194 c 2
 98.8428571429 371 l 1
 27 371 l 1
 27 442 l 1
 99.180952381 442 l 1
 100 614 l 1
EndSplineSet
EndChar

StartChar: uni01B5
Encoding: 437 437 1143
Width: 512
VWidth: 1024
Flags: W
LayerCount: 2
Fore
SplineSet
161 364 m 5
 161 294 l 5
 370 294 l 5
 370 364 l 5
 161 364 l 5
31 614 m 1
 31 543 l 1
 412 543 l 1
 31 111 l 1
 31 0 l 1
 481 0 l 1
 481 72 l 1
 96 72 l 1
 481 515 l 1
 481 614 l 1
 31 614 l 1
EndSplineSet
EndChar

StartChar: uni0197
Encoding: 407 407 1144
Width: 133
VWidth: 1024
Flags: W
LayerCount: 2
Fore
SplineSet
-15 372 m 5
 145 372 l 5
 145 302 l 5
 -15 302 l 5
 -15 372 l 5
31 614 m 1
 102 614 l 1
 102 0 l 1
 31 0 l 1
 31 614 l 1
EndSplineSet
EndChar

StartChar: uni019A
Encoding: 410 410 1145
Width: 204
VWidth: 1024
Flags: W
LayerCount: 2
Fore
SplineSet
0 451 m 5
 160 451 l 5
 160 381 l 5
 0 381 l 5
 0 451 l 5
31 819 m 1
 103 819 l 1
 103 194 l 2
 103.666666667 167.333333333 114.666666667 139.666666667 136 111 c 128
 157.333333333 82.3333333333 176 68 192 68 c 0
 226.666666667 68 253.333333333 75.3333333333 272 90 c 1
 295 27 l 1
 269 13.6666666667 250.333333333 5.16666666667 239 1.5 c 128
 227.666666667 -2.16666666667 212 -4 192 -4 c 0
 156 -4 119.833333333 14.8333333333 83.5 52.5 c 128
 47.1666666667 90.1666666667 29 136.333333333 29 191 c 2
 31 819 l 1
EndSplineSet
EndChar

StartChar: uni01E4
Encoding: 484 484 1146
Width: 512
VWidth: 1024
Flags: W
LayerCount: 2
Fore
SplineSet
352 229 m 5
 512 229 l 5
 512 159 l 5
 352 159 l 5
 352 229 l 5
436 490 m 1
 428 493.333333333 415.333333333 499.166666667 398 507.5 c 128
 380.666666667 515.833333333 368.333333333 521.333333333 361 524 c 128
 353.666666667 526.666666667 343.666666667 530.333333333 331 535 c 128
 318.333333333 539.666666667 306.166666667 542.666666667 294.5 544 c 128
 282.833333333 545.333333333 270 546 256 546 c 0
 209.333333333 546 171.666666667 521.5 143 472.5 c 128
 114.333333333 423.5 100 369 100 309 c 0
 100 227 114 165.833333333 142 125.5 c 128
 170 85.1666666667 208 65 256 65 c 0
 300.540535361 65 351.873868695 84.8349700773 410 124.504910232 c 1
 410 253 l 1
 314 253 l 1
 314 325 l 1
 531 325 l 1
 531 253 l 1
 481 253 l 1
 481 90.9056603774 l 1
 482 90 l 1
 481.842781028 89.8427810281 481.509447695 89.5372552256 481 89.0834225923 c 2
 481 -40 l 1
 410 -40 l 1
 410 35.6826303574 l 1
 407.159706236 33.9641594935 403.993039569 32.0699493743 400.5 30 c 0
 391.5 24.6666666667 383.5 20.5 376.5 17.5 c 128
 369.5 14.5 360.833333333 11.1666666667 350.5 7.5 c 128
 340.166666667 3.83333333333 330.5 1 321.5 -1 c 128
 312.5 -3 302.166666667 -4.66666666667 290.5 -6 c 128
 278.833333333 -7.33333333333 267.333333333 -8 256 -8 c 0
 104 -8 28 97.3333333333 28 308 c 0
 28 405.333333333 47.3333333333 481.166666667 86 535.5 c 128
 124.666666667 589.833333333 181.333333333 617 256 617 c 0
 333.333333333 617 408.333333333 593.333333333 481 546 c 1
 436 490 l 1
EndSplineSet
EndChar

StartChar: OE
Encoding: 338 338 1147
Width: 669
VWidth: 1024
Flags: W
LayerCount: 2
Fore
SplineSet
401 592 m 1
 401 521 l 1
 252 521 l 2
 182 521 138.833333333 509.5 122.5 486.5 c 0
 96.8333333333 450.833333333 84 390 84 304 c 0
 84 234 99 178.333333333 129 137 c 0
 159.445963541 94.6399739583 198.445963541 73.306640625 246 73 c 2
 401 72 l 1
 401 0 l 1
 246 0 l 2
 182 0 127.166666667 28.6666666667 81.5 86 c 128
 35.8333333333 143.333333333 13 217 13 307 c 0
 13 406.333333333 32.8333333333 478.666666667 72.5 524 c 128
 112.166666667 569.333333333 169.333333333 592 244 592 c 2
 401 592 l 1
402 521 m 1
 402 341 l 1
 661 341 l 1
 661 270 l 1
 402 270 l 1
 402 71 l 1
 661 71 l 1
 661 0 l 1
 402 0 l 1
 346 0 l 1
 330 0 l 1
 330 592 l 1
 346 592 l 1
 402 592 l 1
 661 592 l 1
 661 521 l 1
 402 521 l 1
EndSplineSet
EndChar

StartChar: uni01B6
Encoding: 438 438 1148
Width: 409
VWidth: 1024
Flags: W
LayerCount: 2
Fore
SplineSet
90 244 m 5
 90 174 l 5
 299 174 l 5
 299 244 l 5
 90 244 l 5
31 410 m 1
 31 338 l 1
 293 338 l 1
 27 90 l 1
 31 0 l 1
 379 0 l 1
 379 72 l 1
 90 65 l 1
 379 338 l 1
 379 411 l 1
 31 410 l 1
EndSplineSet
EndChar

StartChar: uni01E5
Encoding: 485 485 1149
Width: 409
VWidth: 1024
Flags: W
LayerCount: 2
Fore
SplineSet
249 -31 m 5
 409 -31 l 5
 409 -101 l 5
 249 -101 l 5
 249 -31 l 5
100 207 m 128
 100 164.333333333 109.166666667 130 127.5 104 c 128
 145.833333333 78 171.666666667 65 205 65 c 128
 238.333333333 65 263.5 77.8333333333 280.5 103.5 c 128
 297.5 129.166666667 306 163.666666667 306 207 c 128
 306 250.333333333 297.5 284.666666667 280.5 310 c 128
 263.5 335.333333333 238.333333333 348 205 348 c 128
 171.666666667 348 145.833333333 335.166666667 127.5 309.5 c 128
 109.166666667 283.833333333 100 249.666666667 100 207 c 128
28 206 m 128
 28 265.333333333 44.8333333333 315.833333333 78.5 357.5 c 128
 112.166666667 399.166666667 154.333333333 420 205 420 c 0
 243.779846837 420 277.446513504 407.567954095 306 382.703862286 c 1
 306 410 l 1
 378 410 l 1
 378.93352983 212.558441029 l 2
 378.977843277 210.384827116 379 208.198680106 379 206 c 0
 379 204.827986787 378.993704265 203.659534799 378.981112794 202.494644035 c 2
 380 -13 l 2
 380 -68.3333333333 361.666666667 -115 325 -153 c 128
 288.333333333 -191 252.333333333 -209.666666667 217 -209 c 0
 182.333333333 -208.333333333 147.5 -200.666666667 112.5 -186 c 128
 77.5 -171.333333333 50.6666666667 -151 32 -125 c 1
 91 -74 l 1
 105 -116 147 -137 217 -137 c 0
 233 -137 251.666666667 -122.666666667 273 -94 c 128
 294.333333333 -65.3333333333 305.333333333 -37.6666666667 306 -11 c 2
 306 29.2961377135 l 1
 277.446513504 4.4320459045 243.779846837 -8 205 -8 c 0
 154.333333333 -8 112.166666667 12.8333333333 78.5 54.5 c 128
 44.8333333333 96.1666666667 28 146.666666667 28 206 c 128
EndSplineSet
EndChar

StartChar: oe
Encoding: 339 339 1150
Width: 661
VWidth: 1024
Flags: W
LayerCount: 2
Fore
SplineSet
578 206 m 1024
381.553710938 170 m 1
 385.851236979 140 393 118 403 104 c 0
 421 78 445.666666667 65 477 65 c 0
 507.666666667 65 531.666666667 75.3333333333 549 96 c 1
 596 42 l 1
 564.666666667 8.66666666667 525 -8 477 -8 c 0
 426.333333333 -8 385.333333333 12.6666666667 354 54 c 128
 322.666666667 95.3333333333 307 146 307 206 c 128
 307 266 322.666666667 316.666666667 354 358 c 128
 385.333333333 399.333333333 425.833333333 420 475.5 420 c 128
 525.166666667 420 566.833333333 399.166666667 600.5 357.5 c 0
 626.833333333 324.5 642.933268229 286 648.799804688 242 c 1
 649 242 l 1
 649 240.374023438 l 2
 650.333333333 229.458007813 651 218 651 206 c 2
 651 205 l 1
 652 170 l 1
 649 170 l 1
 381.553710938 170 l 1
576.68359375 242 m 1
 572.89453125 268.666666667 564.5 291.166666667 551.5 309.5 c 0
 533.166666667 335.166666667 508.333333333 348 477 348 c 0
 447 348 422.333333333 335.166666667 403 309.5 c 0
 392.333333333 295.166666667 385.091471354 272.666666667 381.274414062 242 c 1
 576.68359375 242 l 1
28 206 m 128
 28 265.333333333 44.3333333333 315.833333333 77 357.5 c 128
 109.666666667 399.166666667 150.833333333 420 200.5 420 c 128
 250.166666667 420 292.333333333 399.166666667 327 357.5 c 128
 361.666666667 315.833333333 379 265.333333333 379 206 c 128
 379 146.666666667 361.666666667 96.1666666667 327 54.5 c 128
 292.333333333 12.8333333333 250.166666667 -8 200.5 -8 c 128
 150.833333333 -8 109.666666667 12.8333333333 77 54.5 c 128
 44.3333333333 96.1666666667 28 146.666666667 28 206 c 128
100 207 m 128
 100 164.333333333 108.666666667 130 126 104 c 128
 143.333333333 78 168.666666667 65 202 65 c 128
 235.333333333 65 261 78 279 104 c 128
 297 130 306 164.333333333 306 207 c 128
 306 249.666666667 297 283.833333333 279 309.5 c 128
 261 335.166666667 235.333333333 348 202 348 c 128
 168.666666667 348 143.333333333 335.166666667 126 309.5 c 128
 108.666666667 283.833333333 100 249.666666667 100 207 c 128
EndSplineSet
EndChar

StartChar: Eng
Encoding: 330 330 1151
Width: 409
VWidth: 1024
Flags: W
LayerCount: 2
Fore
SplineSet
30 600 m 1
 101 600 l 1
 101 574.564453125 l 1
 136.333333333 598.188151042 170.666666667 610 204 610 c 0
 240 610 274.833333333 602.166666667 308.5 586.5 c 128
 342.166666667 570.833333333 363.666666667 546.333333333 373 513 c 0
 376.333333333 500.333333333 378 393.333333333 378 192 c 1
 306 192 l 1
 306 487 l 2
 306 521 272.666666667 538 206 538 c 0
 183.333333333 538 164.666666667 533.666666667 150 525 c 128
 135.333333333 516.333333333 119 502.333333333 101 483 c 1
 101 0 l 1
 30 0 l 1
 30 600 l 1
377 370 m 1
 379 179 l 2
 379.666666667 103.666666667 371.5 57 354.5 39 c 0
 318.166666667 1.66666666667 282.333333333 -17 247 -17 c 0
 212.333333333 -16.3333333333 185.666666667 -8.66666666667 167 6 c 128
 148.333333333 20.6666666667 129.666666667 41 111 67 c 1
 171 118 l 1
 185 76 210.333333333 55 247 55 c 0
 265.666666667 55 280 61 290 73 c 0
 300.666666667 85.6666666667 306 121.666666667 306 181 c 2
 306 370 l 1
 377 370 l 1
EndSplineSet
EndChar

StartChar: uni0259
Encoding: 601 601 1152
Width: 399
VWidth: 1024
Flags: W
LayerCount: 2
Fore
SplineSet
98 206 m 1028
303.446289062 242 m 5
 299.612955729 267.99609375 291.464192708 289.99609375 279 308 c 4
 261 334 235.333333333 347 202 347 c 4
 171.333333333 347 147.333333333 336.666666667 130 316 c 5
 83 370 l 5
 114.333333333 403.333333333 154 420 202 420 c 4
 252.666666667 420 294.666666667 399.333333333 328 358 c 132
 361.333333333 316.666666667 378 266 378 206 c 132
 378 146 361.333333333 95.3333333333 328 54 c 132
 294.666666667 12.6666666667 252.666666667 -8 202 -8 c 132
 151.333333333 -8 109.166666667 12.8333333333 75.5 54.5 c 4
 48.8606770833 87.4694010413 32.7607421875 125.969401041 27.2001953125 170 c 5
 27 170 l 5
 27 171.625976562 l 6
 25.6666666667 182.734049479 25 194.192057292 25 206 c 6
 25 207 l 5
 24 242 l 5
 27 242 l 5
 303.446289062 242 l 5
99.31640625 170 m 5
 103.093098958 143.217447917 111.487630208 120.717447917 124.5 102.5 c 4
 142.833333333 76.8333333333 168.666666667 64 202 64 c 132
 235.333333333 64 261 76.8333333333 279 102.5 c 4
 291.776041667 120.717447917 300.017903646 143.217447917 303.725585938 170 c 5
 99.31640625 170 l 5
EndSplineSet
EndChar

StartChar: uni025F
Encoding: 607 607 1153
Width: 409
VWidth: 1024
Flags: W
LayerCount: 2
Fore
SplineSet
322 434 m 1
 250 434 l 1
 250 72 l 5
 45 72 l 5
 45 0 l 5
 250 0 l 5
 250 -17 l 6
 250 -63.6666666667 242.666666667 -101.5 228 -130.5 c 0
 214 -158.166666667 199.333333333 -172 184 -172 c 0
 162.666666667 -172 142.833333333 -162.5 124.5 -143.5 c 128
 106.166666667 -124.5 92.3333333333 -101 83 -73 c 1
 12 -113 l 1
 74.6666666667 -199.666666667 132 -243.333333333 184 -244 c 0
 228.124129196 -244.700383003 259.957462529 -226.36704967 279.5 -189 c 4
 310.5 -131.666666667 325.333333333 -75 324 -19 c 6
 323.489257812 0 l 5
 392 0 l 5
 392 72 l 5
 323.258789062 72 l 5
 322 434 l 1
EndSplineSet
EndChar

StartChar: uni027A
Encoding: 634 634 1154
Width: 409
VWidth: 1024
Flags: W
LayerCount: 2
Fore
SplineSet
372 1 m 1
 301 1 l 1
 301 26.435546875 l 1
 265.666666667 2.81184895833 231.333333333 -9 198 -9 c 0
 169.333333333 -9 139 -0.666666666667 107 16 c 128
 75 32.6666666667 48 53.6666666667 26 79 c 1
 80 117 l 1
 116 81 154.666666667 63 196 63 c 0
 218.666666667 63 237.333333333 67.3333333333 252 76 c 128
 266.666666667 84.6666666667 283 98.6666666667 301 118 c 1
 301 822 l 5
 372 822 l 5
 372 1 l 1
EndSplineSet
EndChar

StartChar: uni0251
Encoding: 593 593 1155
Width: 409
VWidth: 1024
InSpiro: 1
Flags: W
LayerCount: 2
Fore
SplineSet
100 207 m 128
 100 164.333333333 109.166666667 130 127.5 104 c 128
 145.833333333 78 171.666666667 65 205 65 c 128
 238.333333333 65 263.5 77.8333333333 280.5 103.5 c 128
 297.5 129.166666667 306 163.666666667 306 207 c 128
 306 250.333333333 297.5 284.666666667 280.5 310 c 128
 263.5 335.333333333 238.333333333 348 205 348 c 128
 171.666666667 348 145.833333333 335.166666667 127.5 309.5 c 128
 109.166666667 283.833333333 100 249.666666667 100 207 c 128
28 206 m 128
 28 265.333333333 44.8333333333 315.833333333 78.5 357.5 c 128
 112.166666667 399.166666667 154.333333333 420 205 420 c 0
 243.779846837 420 277.446513504 407.567954095 306 382.703862286 c 1
 306 414 l 1
 378 414 l 1
 378 231.018429397 l 2
 378.666666667 222.86750512 379 214.528028654 379 206 c 128
 379 197.471971346 378.666666667 189.13249488 378 180.981570603 c 2
 378 0 l 1
 306 0 l 1
 306 29.2961377135 l 1
 277.446513504 4.4320459045 243.779846837 -8 205 -8 c 0
 154.333333333 -8 112.166666667 12.8333333333 78.5 54.5 c 128
 44.8333333333 96.1666666667 28 146.666666667 28 206 c 128
EndSplineSet
EndChar

StartChar: uni0252
Encoding: 594 594 1156
Width: 409
VWidth: 1024
Flags: W
LayerCount: 2
Fore
SplineSet
313 207 m 132
 313 164.333333333 303.833333333 130 285.5 104 c 132
 267.166666667 78 241.333333333 65 208 65 c 132
 174.666666667 65 149.5 77.8333333333 132.5 103.5 c 132
 115.5 129.166666667 107 163.666666667 107 207 c 132
 107 250.333333333 115.5 284.666666667 132.5 310 c 132
 149.5 335.333333333 174.666666667 348 208 348 c 132
 241.333333333 348 267.166666667 335.166666667 285.5 309.5 c 132
 303.833333333 283.833333333 313 249.666666667 313 207 c 132
385 206 m 132
 385 265.333333333 368.166666667 315.833333333 334.5 357.5 c 132
 300.833333333 399.166666667 258.666666667 420 208 420 c 4
 169.220052083 420 135.553385417 407.568033854 107 382.704101562 c 5
 107 414 l 5
 35 414 l 5
 35 231.018554688 l 6
 34.3333333333 222.867513021 34 214.527994792 34 206 c 132
 34 197.472005208 34.3333333333 189.132486979 35 180.981445312 c 6
 35 0 l 5
 107 0 l 5
 107 29.2958984375 l 5
 135.553385417 4.43196614583 169.220052083 -8 208 -8 c 4
 258.666666667 -8 300.833333333 12.8333333333 334.5 54.5 c 132
 368.166666667 96.1666666667 385 146.666666667 385 206 c 132
EndSplineSet
EndChar

StartChar: uni024D
Encoding: 589 589 1157
Width: 409
VWidth: 1024
Flags: W
LayerCount: 2
Fore
SplineSet
0 237 m 5
 171 237 l 5
 171 167 l 5
 0 167 l 5
 0 237 l 5
31 414 m 1
 102 414 l 1
 102 388.564095987 l 1
 137.450681658 412.188031996 171.784014991 424 205 424 c 0
 233.666666667 424 264 415.666666667 296 399 c 128
 328 382.333333333 355 361.333333333 377 336 c 1
 323 298 l 1
 287 334 248.333333333 352 207 352 c 0
 184.333333333 352 165.666666667 347.666666667 151 339 c 128
 136.333333333 330.333333333 120 316.333333333 102 297 c 1
 102 0 l 1
 31 0 l 1
 31 414 l 1
EndSplineSet
EndChar

StartChar: uni0271
Encoding: 625 625 1160
Width: 601
VWidth: 1024
Flags: W
LayerCount: 2
Fore
SplineSet
31 414 m 1
 102 414 l 1
 102 393.043102525 l 1
 102.564009213 393.431896582 103.064009213 393.750862407 103.5 394 c 0
 105.833333333 395.333333333 109.666666667 398 115 402 c 128
 120.333333333 406 124.666666667 408.666666667 128 410 c 128
 131.333333333 411.333333333 135.666666667 413.166666667 141 415.5 c 128
 146.333333333 417.833333333 151.333333333 419.5 156 420.5 c 128
 160.666666667 421.5 165.833333333 422.333333333 171.5 423 c 128
 177.166666667 423.666666667 183 424 189 424 c 0
 223.666666667 424 255.666666667 416.166666667 285 400.5 c 0
 297.651846919 393.742763577 308.443385117 385.34225445 317.374614592 375.298472618 c 1
 319.44716831 377.237828751 322.655630113 380.138337878 327 384 c 0
 333 389.333333333 337.166666667 392.666666667 339.5 394 c 128
 341.833333333 395.333333333 345.666666667 398 351 402 c 128
 356.333333333 406 360.666666667 408.666666667 364 410 c 128
 367.333333333 411.333333333 371.666666667 413.166666667 377 415.5 c 128
 382.333333333 417.833333333 387.333333333 419.5 392 420.5 c 128
 396.666666667 421.5 401.833333333 422.333333333 407.5 423 c 128
 413.166666667 423.666666667 419 424 425 424 c 0
 459.666666667 424 491.666666667 416.166666667 521 400.5 c 128
 550.333333333 384.833333333 569.666666667 360.333333333 579 327 c 0
 582.333333333 314.333333333 584 205.333333333 584 0 c 1
 512 0 l 1
 512 301 l 2
 512 315.666666667 507.333333333 327 498 335 c 128
 488.666666667 343 478.833333333 347.833333333 468.5 349.5 c 128
 458.166666667 351.166666667 444.333333333 352 427 352 c 0
 417.666666667 352 409.666666667 351.5 403 350.5 c 128
 396.333333333 349.5 389.666666667 346.666666667 383 342 c 128
 376.333333333 337.333333333 371.833333333 334 369.5 332 c 128
 367.166666667 330 362 324.5 354 315.5 c 0
 350.453129497 311.509770683 347.430437759 308.076481305 344.931924786 305.200131865 c 0
 346.977308262 262.57833703 348 160.844959742 348 0 c 1
 276 0 l 1
 276 301 l 2
 276 315.666666667 271.333333333 327 262 335 c 128
 252.666666667 343 242.833333333 347.833333333 232.5 349.5 c 128
 222.166666667 351.166666667 208.333333333 352 191 352 c 0
 181.666666667 352 173.666666667 351.5 167 350.5 c 128
 160.333333333 349.5 153.666666667 346.666666667 147 342 c 128
 140.333333333 337.333333333 135.833333333 334 133.5 332 c 128
 131.166666667 330 126 324.5 118 315.5 c 128
 110 306.5 104.666666667 300.333333333 102 297 c 1
 102 0 l 1
 31 0 l 1
 31 414 l 1
583 184 m 1
 584 -13 l 6
 584 -68.3333333333 566.166666667 -115 530.5 -153 c 0
 494.166666667 -191 458.333333333 -209.666666667 423 -209 c 0
 388.333333333 -208.333333333 353.333333333 -200.666666667 318 -186 c 128
 282.666666667 -171.333333333 255.666666667 -151 237 -125 c 1
 297 -74 l 1
 311 -116 353 -137 423 -137 c 0
 439 -137 457.666666667 -122.666666667 479 -94 c 0
 501 -64.6666666667 512 -37 512 -11 c 2
 512 184 l 1
 583 184 l 1
EndSplineSet
EndChar

StartChar: uni023A
Encoding: 570 570 1161
Width: 512
VWidth: 1024
Flags: W
LayerCount: 2
Fore
SplineSet
159 302 m 1
 159 230 l 1
 343 230 l 1
 343 302 l 1
 159 302 l 1
481 13 m 1
 302 614 l 1
 219 614 l 1
 407 -21 l 1
 481 13 l 1
29 9 m 1
 98 -22 l 1
 302 615 l 1
 219 614 l 1
 29 9 l 1
399.309570312 587.8203125 m 5
 2.119140625 59.4912109375 l 5
 58.47265625 17.966796875 l 5
 455.663085938 546.296875 l 5
 399.309570312 587.8203125 l 5
EndSplineSet
EndChar

StartChar: uni023B
Encoding: 571 571 1162
Width: 512
VWidth: 1024
Flags: W
LayerCount: 2
Fore
SplineSet
436 490 m 5
 428 493.333333333 415.333333333 499.166666667 398 507.5 c 132
 380.666666667 515.833333333 368.333333333 521.333333333 361 524 c 132
 353.666666667 526.666666667 343.666666667 530.333333333 331 535 c 132
 318.333333333 539.666666667 306.166666667 542.666666667 294.5 544 c 132
 282.833333333 545.333333333 270 546 256 546 c 4
 209.333333333 546 171.666666667 521.5 143 472.5 c 132
 114.333333333 423.5 100 369 100 309 c 4
 100 227 114 165.833333333 142 125.5 c 132
 170 85.1666666667 208 65 256 65 c 4
 305.333333333 65 363 89.3333333333 429 138 c 5
 429 138 429 138 482 90 c 5
 481.333333333 89.3333333333 477.5 86 470.5 80 c 132
 463.5 74 458.666666667 70 456 68 c 132
 452 65 452 65 440 56 c 132
 432 50 425.666666667 45.5 421 42.5 c 132
 416.333333333 39.5 409.5 35.3333333333 400.5 30 c 132
 391.5 24.6666666667 383.5 20.5 376.5 17.5 c 132
 369.5 14.5 360.833333333 11.1666666667 350.5 7.5 c 132
 340.166666667 3.83333333333 330.5 1 321.5 -1 c 132
 312.5 -3 302.166666667 -4.66666666667 290.5 -6 c 132
 278.833333333 -7.33333333333 267.333333333 -8 256 -8 c 4
 104 -8 28 97.3333333333 28 308 c 4
 28 405.333333333 47.3333333333 481.166666667 86 535.5 c 132
 124.666666667 589.833333333 181.333333333 617 256 617 c 4
 333.333333333 617 408.333333333 593.333333333 481 546 c 5
 436 490 436 490 436 490 c 5
432.309570312 587.8203125 m 1
 488.663085938 546.296875 l 1
 91.47265625 17.966796875 l 1
 35.119140625 59.4912109375 l 1
 432.309570312 587.8203125 l 1
EndSplineSet
EndChar

StartChar: uni023E
Encoding: 574 574 1163
Width: 512
VWidth: 1024
Flags: W
LayerCount: 2
Fore
SplineSet
224 594 m 5
 296 594 l 5
 296 0 l 5
 224 0 l 5
 224 594 l 5
31 614 m 5
 481 614 l 5
 481 541 l 5
 31 541 l 5
 31 614 l 5
432.309570312 587.8203125 m 1
 488.663085938 546.296875 l 1
 91.47265625 17.966796875 l 1
 35.119140625 59.4912109375 l 1
 432.309570312 587.8203125 l 1
EndSplineSet
EndChar

StartChar: uni0246
Encoding: 582 582 1164
Width: 512
VWidth: 1024
Flags: W
LayerCount: 2
Fore
SplineSet
102 521 m 5
 102 341 l 5
 481 341 l 5
 481 270 l 5
 102 270 l 5
 102 71 l 5
 481 71 l 5
 481 0 l 5
 102 0 l 5
 46 0 l 5
 30 0 l 5
 30 592 l 5
 46 592 l 5
 102 592 l 5
 481 592 l 5
 481 521 l 5
 102 521 l 5
432.309570312 587.8203125 m 1
 488.663085938 546.296875 l 1
 91.47265625 17.966796875 l 1
 35.119140625 59.4912109375 l 1
 432.309570312 587.8203125 l 1
EndSplineSet
EndChar

StartChar: uni01A9
Encoding: 425 425 1166
Width: 500
VWidth: 1024
Flags: W
LayerCount: 2
Fore
SplineSet
470 600 m 25
 470 530 l 25
 102 529 l 25
 283 361 l 29
 284 269 l 25
 100 71 l 25
 470 70 l 25
 470 0 l 25
 30 0 l 25
 30 96 l 25
 215 311 l 25
 30 501 l 25
 30 600 l 25
 470 600 l 25
EndSplineSet
EndChar

StartChar: Sigma
Encoding: 931 931 1167
Width: 500
VWidth: 1024
Flags: W
LayerCount: 2
Fore
SplineSet
470 600 m 25
 470 530 l 25
 102 529 l 25
 283 361 l 29
 284 269 l 25
 100 71 l 25
 470 70 l 25
 470 0 l 25
 30 0 l 25
 30 96 l 25
 215 311 l 25
 30 501 l 25
 30 600 l 25
 470 600 l 25
EndSplineSet
EndChar

StartChar: alpha
Encoding: 945 945 1168
Width: 409
VWidth: 1024
Flags: W
LayerCount: 2
Fore
SplineSet
234 150 m 1
 212.666666667 168 188.666666667 176.333333333 162 175 c 0
 145.199226125 173.999149893 130.878088268 168.803844851 119.036586429 159.414084872 c 128
 105.78872716 148.909148889 98.4431983504 135.771120598 97 120 c 0
 95.6866484465 105.647831614 99.6530901391 92.8865089368 108.899325078 81.7160319672 c 128
 117.825209139 70.9325743764 129.525434113 64.3605637207 144 62 c 0
 162.154556773 59.0392902682 179.401973568 63.3306847444 195.742250383 74.8741834285 c 128
 210.591252267 85.3641791394 221.343835473 99.7394513299 228 118 c 0
 232 128 234 138.666666667 234 150 c 1
163 403 m 0
 185.999334408 402.914294835 207.054645327 399.080829261 226.165932757 391.499603277 c 128
 247.12720438 383.184510028 264.547689042 370.904595145 278.427386744 354.659858626 c 128
 292.208566546 338.53042702 301.597238119 319.397311426 306.593401462 297.260511843 c 128
 309.986943213 282.224543552 311.455809392 260.804372937 311 233 c 2
 310 172 l 1
 332 143.333333333 349.333333333 112 362 78 c 0
 370.666666667 54.6666666667 376.666666667 30.6666666667 380 6 c 1
 310 0 l 1
 306.666666667 19.3333333333 301.666666667 38 295 56 c 0
 291 67.3333333333 286 78.6666666667 280 90 c 1
 278 86 275.666666667 82 273 78 c 0
 257.840480923 53.6284547573 240.092667436 34.0471035256 219.756559538 19.2559463048 c 128
 196.361487063 2.23989795793 171.775967217 -6.84541747701 146 -8 c 0
 110.403167712 -9.59448838867 80.7797709286 2.7441288686 57.1298096509 29.0158517718 c 128
 34.1941432754 54.4940952472 24.1508733918 85.1554779899 27 121 c 0
 29.7832866589 156.016197462 44.1740214948 185.543481931 70.1722045077 209.581853407 c 128
 96.3304211986 233.768194802 126.939686363 245.574243666 162 245 c 0
 191.333333333 244.333333333 217.333333333 235 240 217 c 1
 241 237 l 2
 241.666666667 249.666666667 241 260 239 268 c 0
 234.757772385 285.431113275 225.405970829 300.04287238 210.944595331 311.835277315 c 128
 197.735363206 322.606632647 181.753831429 329.661540209 163 333 c 0
 123 340.333333333 85 331.333333333 49 306 c 1
 16 355 l 1
 62.6666666667 387 111.666666667 403 163 403 c 0
EndSplineSet
EndChar

